<svg width="16" height="8" viewBox="0 0 16 8" fill="none" xmlns="http://www.w3.org/2000/svg">
<path d="M8.11549 7.99343C8.29306 7.96953 8.45773 7.89397 8.58668 7.77766L15.6972 1.40536C15.8767 1.26386 15.9858 1.05939 15.9987 0.84048C16.0116 0.62138 15.9273 0.407098 15.7654 0.248008C15.6037 0.0889141 15.3787 -0.000724438 15.1438 1.51839e-05C14.9087 0.000756038 14.6846 0.0918777 14.5239 0.252081L8 6.10189L1.47614 0.25208C1.31544 0.0918765 1.09126 0.000753597 0.856159 1.39349e-05C0.621259 -0.000726866 0.396281 0.0889127 0.234604 0.248007C0.0727134 0.407101 -0.0116072 0.621384 0.00128809 0.840479C0.0141839 1.05939 0.123299 1.26386 0.302848 1.40536L7.41332 7.77766C7.60021 7.94527 7.85858 8.02491 8.11549 7.99343Z" fill="white"/>
</svg>
