<svg width="468" height="459" viewBox="0 0 468 459" fill="none" xmlns="http://www.w3.org/2000/svg">
<mask id="path-1-inside-1_41_295" fill="white">
<path d="M135.014 666C47.3093 666 -35.9587 630.993 -99.4902 567.605C-163.022 504.218 -198 420.662 -198 333.014C-198 299.045 -194.687 250.121 -165.788 217.592C-154.263 204.482 -140.404 193.965 -127.093 183.795C-111.39 171.78 -95.1395 159.362 -82.318 142.622C-72.8963 130.319 -64.8864 117.497 -57.1359 105.165C-39.5315 77.1598 -23.1372 50.7387 7.72098 31.4344C40.9417 10.6894 83.757 0 135.014 0H135.648C222.979 0 305.93 34.7766 369.26 97.9624C432.59 161.148 468 244.906 468 332.986C468 421.065 432.993 504.045 369.605 567.605C306.218 631.166 222.662 666 135.014 666ZM135.648 2.04568H135.014C84.1316 2.04568 41.6909 12.6199 8.81584 33.1631C-21.6677 52.237 -38.062 78.4563 -55.4071 106.203C-63.1865 118.621 -71.2252 131.471 -80.7045 143.861C-93.6989 160.831 -110.036 173.336 -125.969 185.408C-139.079 195.521 -152.764 205.98 -164.261 218.975C-192.699 250.957 -195.954 299.39 -195.954 333.014C-195.954 512.401 -44.3431 663.983 135.014 663.983C314.372 663.983 465.954 512.401 465.954 333.014C465.954 245.569 431.12 162.618 367.819 99.4606C304.518 36.3037 222.431 2.04568 135.648 2.04568Z"/>
</mask>
<path d="M135.014 666C47.3093 666 -35.9587 630.993 -99.4902 567.605C-163.022 504.218 -198 420.662 -198 333.014C-198 299.045 -194.687 250.121 -165.788 217.592C-154.263 204.482 -140.404 193.965 -127.093 183.795C-111.39 171.78 -95.1395 159.362 -82.318 142.622C-72.8963 130.319 -64.8864 117.497 -57.1359 105.165C-39.5315 77.1598 -23.1372 50.7387 7.72098 31.4344C40.9417 10.6894 83.757 0 135.014 0H135.648C222.979 0 305.93 34.7766 369.26 97.9624C432.59 161.148 468 244.906 468 332.986C468 421.065 432.993 504.045 369.605 567.605C306.218 631.166 222.662 666 135.014 666ZM135.648 2.04568H135.014C84.1316 2.04568 41.6909 12.6199 8.81584 33.1631C-21.6677 52.237 -38.062 78.4563 -55.4071 106.203C-63.1865 118.621 -71.2252 131.471 -80.7045 143.861C-93.6989 160.831 -110.036 173.336 -125.969 185.408C-139.079 195.521 -152.764 205.98 -164.261 218.975C-192.699 250.957 -195.954 299.39 -195.954 333.014C-195.954 512.401 -44.3431 663.983 135.014 663.983C314.372 663.983 465.954 512.401 465.954 333.014C465.954 245.569 431.12 162.618 367.819 99.4606C304.518 36.3037 222.431 2.04568 135.648 2.04568Z" fill="url(#paint0_linear_41_295)" stroke="url(#paint1_linear_41_295)" stroke-width="2" mask="url(#path-1-inside-1_41_295)"/>
<mask id="path-2-inside-2_41_295" fill="white">
<path d="M135.014 637.245C52.9562 637.245 -31.4355 599.789 -90.7315 536.69C-143.43 480.736 -170.11 411.298 -165.903 341.197C-163.022 294.031 -135.074 270.174 -105.397 244.906C-86.0063 228.368 -65.924 211.224 -52.3821 186.647C-47.2535 177.37 -42.5859 168.063 -37.9759 159.074C-22.2731 127.985 -7.43471 98.5674 21.8388 74.5667C54.224 47.9439 94.1004 38.3206 135.504 30.0226C212.635 14.6079 275.216 49.3846 314.141 81.28C352.258 113.175 383.206 152.763 404.958 197.452C427.489 243.004 439.389 289.882 439.389 333.014C439.389 413.142 407.436 489.236 349.408 547.264C291.379 605.292 215.142 637.245 135.014 637.245ZM173.104 28.121C160.525 28.1192 147.978 29.374 135.648 31.8666C94.5038 40.0781 54.9731 49.6727 22.8184 76.0073C-5.99409 99.8352 -20.8901 129.022 -36.5065 159.938C-41.0588 168.927 -45.7553 178.234 -50.9127 187.54C-64.5122 212.434 -84.7097 229.664 -104.245 246.347C-133.576 271.327 -161.236 294.924 -164.03 341.428C-168.208 411.01 -141.701 479.929 -89.3773 535.537C-30.427 598.118 53.446 635.488 135.014 635.488C214.623 635.488 290.256 603.794 347.938 546.169C405.621 488.544 437.257 412.854 437.257 333.245C437.257 246.001 386.057 143.083 312.701 82.9511C280.719 56.4148 232.4 28.121 173.104 28.121Z"/>
</mask>
<path d="M135.014 637.245C52.9562 637.245 -31.4355 599.789 -90.7315 536.69C-143.43 480.736 -170.11 411.298 -165.903 341.197C-163.022 294.031 -135.074 270.174 -105.397 244.906C-86.0063 228.368 -65.924 211.224 -52.3821 186.647C-47.2535 177.37 -42.5859 168.063 -37.9759 159.074C-22.2731 127.985 -7.43471 98.5674 21.8388 74.5667C54.224 47.9439 94.1004 38.3206 135.504 30.0226C212.635 14.6079 275.216 49.3846 314.141 81.28C352.258 113.175 383.206 152.763 404.958 197.452C427.489 243.004 439.389 289.882 439.389 333.014C439.389 413.142 407.436 489.236 349.408 547.264C291.379 605.292 215.142 637.245 135.014 637.245ZM173.104 28.121C160.525 28.1192 147.978 29.374 135.648 31.8666C94.5038 40.0781 54.9731 49.6727 22.8184 76.0073C-5.99409 99.8352 -20.8901 129.022 -36.5065 159.938C-41.0588 168.927 -45.7553 178.234 -50.9127 187.54C-64.5122 212.434 -84.7097 229.664 -104.245 246.347C-133.576 271.327 -161.236 294.924 -164.03 341.428C-168.208 411.01 -141.701 479.929 -89.3773 535.537C-30.427 598.118 53.446 635.488 135.014 635.488C214.623 635.488 290.256 603.794 347.938 546.169C405.621 488.544 437.257 412.854 437.257 333.245C437.257 246.001 386.057 143.083 312.701 82.9511C280.719 56.4148 232.4 28.121 173.104 28.121Z" fill="url(#paint2_linear_41_295)" stroke="url(#paint3_linear_41_295)" stroke-width="2" mask="url(#path-2-inside-2_41_295)"/>
<mask id="path-3-inside-3_41_295" fill="white">
<path d="M136.541 608.49H134.985C56.385 607.943 -41.8366 558.674 -93.4974 493.702C-127.41 451.059 -139.943 404.585 -129.715 359.32C-124.327 335.406 -109.719 325.84 -91.2212 313.71L-84.4215 309.215C-52.7278 287.837 -38.1487 263.116 -23.9153 227.302C-9.94125 192.381 8.41231 152.706 38.6078 123.577C57.0477 105.771 80.0401 93.4101 102.283 81.4818C113.808 75.3735 125.506 69.0348 136.484 62.0622C166.42 43.0748 201.946 44.5154 242.11 66.3552C269.021 80.9055 297.574 104.301 329.556 137.81C381.735 192.554 410.49 261.877 410.49 333.015C410.49 404.153 380.323 475.406 327.77 527.758C275.216 580.11 207.506 608.49 136.541 608.49ZM181.806 50.4796C166.069 50.4013 150.647 54.8848 137.406 63.3876C126.371 70.389 114.557 76.7277 103.119 82.8648C80.9621 94.7355 58.085 107.038 39.7314 124.672C9.85292 153.715 -8.41418 193.044 -22.2442 227.936C-36.6504 263.922 -51.3447 288.989 -83.4995 310.598L-90.2992 315.122C-108.48 327.022 -122.828 336.443 -128.072 359.666C-138.157 404.441 -125.767 450.397 -92.172 492.636C-40.7994 557.262 56.846 606.358 135.014 606.791C206.066 607.252 274.121 578.727 326.559 526.577C378.998 474.426 408.79 404.066 408.79 333.015C408.79 261.963 380.208 193.418 328.346 138.963C296.508 105.598 268.041 82.2885 241.332 67.767C220.126 56.2421 200.217 50.4796 181.806 50.4796Z"/>
</mask>
<path d="M136.541 608.49H134.985C56.385 607.943 -41.8366 558.674 -93.4974 493.702C-127.41 451.059 -139.943 404.585 -129.715 359.32C-124.327 335.406 -109.719 325.84 -91.2212 313.71L-84.4215 309.215C-52.7278 287.837 -38.1487 263.116 -23.9153 227.302C-9.94125 192.381 8.41231 152.706 38.6078 123.577C57.0477 105.771 80.0401 93.4101 102.283 81.4818C113.808 75.3735 125.506 69.0348 136.484 62.0622C166.42 43.0748 201.946 44.5154 242.11 66.3552C269.021 80.9055 297.574 104.301 329.556 137.81C381.735 192.554 410.49 261.877 410.49 333.015C410.49 404.153 380.323 475.406 327.77 527.758C275.216 580.11 207.506 608.49 136.541 608.49ZM181.806 50.4796C166.069 50.4013 150.647 54.8848 137.406 63.3876C126.371 70.389 114.557 76.7277 103.119 82.8648C80.9621 94.7355 58.085 107.038 39.7314 124.672C9.85292 153.715 -8.41418 193.044 -22.2442 227.936C-36.6504 263.922 -51.3447 288.989 -83.4995 310.598L-90.2992 315.122C-108.48 327.022 -122.828 336.443 -128.072 359.666C-138.157 404.441 -125.767 450.397 -92.172 492.636C-40.7994 557.262 56.846 606.358 135.014 606.791C206.066 607.252 274.121 578.727 326.559 526.577C378.998 474.426 408.79 404.066 408.79 333.015C408.79 261.963 380.208 193.418 328.346 138.963C296.508 105.598 268.041 82.2885 241.332 67.767C220.126 56.2421 200.217 50.4796 181.806 50.4796Z" fill="url(#paint4_linear_41_295)" stroke="url(#paint5_linear_41_295)" stroke-width="2" mask="url(#path-3-inside-3_41_295)"/>
<mask id="path-4-inside-4_41_295" fill="white">
<path d="M134.755 579.736C69.4818 579.187 6.98067 553.273 -39.5314 507.474C-47.9446 499.061 -120.955 423.918 -92.6616 379.547C-85.9194 369.001 -75.3741 364.507 -64.166 359.724C-57.8158 357.274 -51.7176 354.215 -45.9566 350.59C-24.2031 336.184 -14.6374 310.599 -5.38861 285.993C-2.50737 278.185 0.546753 270.117 3.889 262.741C16.2784 235.254 34.0556 200.074 61.5139 171.895C71.3678 161.84 81.2793 153.484 90.845 145.417C108.132 130.838 124.498 117.094 138.097 95.3119C148.326 78.9464 161.58 69.9569 177.542 68.6028C209.812 65.7215 254.068 94.7357 305.498 152.159C355.948 208.574 381.563 269.397 381.563 332.986C381.563 397.238 355.372 458.752 307.86 506.178C261.127 552.825 198.056 579.621 134.986 579.707L134.755 579.736ZM182.065 69.9281C180.625 69.9281 179.213 69.9858 177.83 70.101C162.386 71.4264 149.507 80.1854 139.567 96.0322C125.823 117.987 109.4 131.846 91.9975 146.483C82.4606 154.522 72.5779 162.848 62.7817 172.875C41.4028 194.715 23.6832 222.605 5.35844 263.289C2.04501 270.607 -0.836235 278.3 -3.89036 286.339C-13.2256 311.175 -22.8778 336.876 -45.0346 351.685C-50.8815 355.341 -57.0545 358.447 -63.4745 360.963C-74.4521 365.919 -84.8246 370.212 -91.3938 380.325C-113.868 415.562 -68.7184 476.126 -38.4941 506.35C7.72076 551.833 69.8005 577.578 134.64 578.151H134.899C267.811 578.007 380.093 465.783 380.093 332.957C380.093 269.771 354.623 209.265 304.432 153.167C255.652 98.5965 213.442 69.9281 182.065 69.9281Z"/>
</mask>
<path d="M134.755 579.736C69.4818 579.187 6.98067 553.273 -39.5314 507.474C-47.9446 499.061 -120.955 423.918 -92.6616 379.547C-85.9194 369.001 -75.3741 364.507 -64.166 359.724C-57.8158 357.274 -51.7176 354.215 -45.9566 350.59C-24.2031 336.184 -14.6374 310.599 -5.38861 285.993C-2.50737 278.185 0.546753 270.117 3.889 262.741C16.2784 235.254 34.0556 200.074 61.5139 171.895C71.3678 161.84 81.2793 153.484 90.845 145.417C108.132 130.838 124.498 117.094 138.097 95.3119C148.326 78.9464 161.58 69.9569 177.542 68.6028C209.812 65.7215 254.068 94.7357 305.498 152.159C355.948 208.574 381.563 269.397 381.563 332.986C381.563 397.238 355.372 458.752 307.86 506.178C261.127 552.825 198.056 579.621 134.986 579.707L134.755 579.736ZM182.065 69.9281C180.625 69.9281 179.213 69.9858 177.83 70.101C162.386 71.4264 149.507 80.1854 139.567 96.0322C125.823 117.987 109.4 131.846 91.9975 146.483C82.4606 154.522 72.5779 162.848 62.7817 172.875C41.4028 194.715 23.6832 222.605 5.35844 263.289C2.04501 270.607 -0.836235 278.3 -3.89036 286.339C-13.2256 311.175 -22.8778 336.876 -45.0346 351.685C-50.8815 355.341 -57.0545 358.447 -63.4745 360.963C-74.4521 365.919 -84.8246 370.212 -91.3938 380.325C-113.868 415.562 -68.7184 476.126 -38.4941 506.35C7.72076 551.833 69.8005 577.578 134.64 578.151H134.899C267.811 578.007 380.093 465.783 380.093 332.957C380.093 269.771 354.623 209.265 304.432 153.167C255.652 98.5965 213.442 69.9281 182.065 69.9281Z" fill="url(#paint6_linear_41_295)" stroke="url(#paint7_linear_41_295)" stroke-width="2" mask="url(#path-4-inside-4_41_295)"/>
<mask id="path-5-inside-5_41_295" fill="white">
<path d="M139.106 551.009H134.87C74.681 549.598 21.4644 527.47 -19.0459 486.959C-19.5646 486.441 -71.5999 434.002 -67.1051 406.717C-66.6962 404.02 -65.6129 401.471 -63.9558 399.305C-62.2986 397.139 -60.1213 395.427 -57.6258 394.327C-11.1801 371.277 4.52263 343.416 30.5115 297.114L31.808 294.809C45.3787 270.693 62.2916 242.947 84.8518 219.522C115.739 187.569 129.425 170.541 140.345 129.137C146.654 105.309 157.171 91.6812 171.635 88.2237C196.212 82.6052 231.882 106.865 277.694 160.255C327.827 218.773 352.433 275.245 352.836 332.957C353.269 389.343 329.009 445.815 286.308 487.853C245.539 528.161 192.092 551.009 139.106 551.009ZM179.04 88.7423C176.695 88.7384 174.357 88.9896 172.067 89.4914C158.122 92.6896 147.922 106.116 141.756 129.425C130.75 171.059 117.006 188.289 85.9178 220.415C63.4729 243.667 46.6176 271.384 33.1046 295.328L31.808 297.633C5.67514 344.165 -10.1141 372.257 -56.9055 395.393C-59.1971 396.435 -61.1898 398.037 -62.7003 400.051C-64.2107 402.065 -65.1904 404.427 -65.5493 406.918C-69.9287 433.541 -18.3545 485.461 -17.8358 485.98C22.5016 526.317 75.3437 548.243 135.158 549.626C189.095 550.865 243.897 528.017 285.646 486.959C328.087 445.181 352.174 388.997 351.77 333.014C351.338 275.649 326.876 219.436 276.858 161.177C235.57 113.06 202.724 88.7423 179.04 88.7423Z"/>
</mask>
<path d="M139.106 551.009H134.87C74.681 549.598 21.4644 527.47 -19.0459 486.959C-19.5646 486.441 -71.5999 434.002 -67.1051 406.717C-66.6962 404.02 -65.6129 401.471 -63.9558 399.305C-62.2986 397.139 -60.1213 395.427 -57.6258 394.327C-11.1801 371.277 4.52263 343.416 30.5115 297.114L31.808 294.809C45.3787 270.693 62.2916 242.947 84.8518 219.522C115.739 187.569 129.425 170.541 140.345 129.137C146.654 105.309 157.171 91.6812 171.635 88.2237C196.212 82.6052 231.882 106.865 277.694 160.255C327.827 218.773 352.433 275.245 352.836 332.957C353.269 389.343 329.009 445.815 286.308 487.853C245.539 528.161 192.092 551.009 139.106 551.009ZM179.04 88.7423C176.695 88.7384 174.357 88.9896 172.067 89.4914C158.122 92.6896 147.922 106.116 141.756 129.425C130.75 171.059 117.006 188.289 85.9178 220.415C63.4729 243.667 46.6176 271.384 33.1046 295.328L31.808 297.633C5.67514 344.165 -10.1141 372.257 -56.9055 395.393C-59.1971 396.435 -61.1898 398.037 -62.7003 400.051C-64.2107 402.065 -65.1904 404.427 -65.5493 406.918C-69.9287 433.541 -18.3545 485.461 -17.8358 485.98C22.5016 526.317 75.3437 548.243 135.158 549.626C189.095 550.865 243.897 528.017 285.646 486.959C328.087 445.181 352.174 388.997 351.77 333.014C351.338 275.649 326.876 219.436 276.858 161.177C235.57 113.06 202.724 88.7423 179.04 88.7423Z" stroke="url(#paint8_linear_41_295)" stroke-width="2" mask="url(#path-5-inside-5_41_295)"/>
<mask id="path-6-inside-6_41_295" fill="white">
<path d="M139.884 522.284C138.242 522.284 136.599 522.284 134.986 522.284C81.6827 520.641 36.7353 501.913 1.44001 466.647C-5.41736 459.789 -39.4737 424.638 -35.6704 406.486C-35.2032 404.383 -34.1904 402.439 -32.7338 400.851C-31.2772 399.263 -29.4281 398.086 -27.3725 397.439C9.39225 383.033 36.9658 351.541 59.0649 322.527C67.7087 311.319 77.4473 300.687 86.9554 290.43C96.4635 280.172 106.26 269.569 114.615 258.534C136.138 230.183 138.789 202.955 142.102 168.467L142.679 162.704C142.996 159.419 143.226 155.731 143.457 151.813C144.753 129.973 146.568 99.9505 170.627 100.527C195.233 100.844 228.425 141.181 244.473 160.457C245.626 161.811 246.663 163.079 247.614 164.231C298.641 225.342 323.563 280.316 323.765 332.265C323.967 382.63 302.386 432.619 264.527 469.441C229.836 503.181 184.658 522.284 139.884 522.284ZM170.108 101.622C147.606 101.622 145.963 129.426 144.609 151.813C144.379 155.731 144.148 159.448 143.831 162.762L143.284 168.524C139.913 203.099 137.262 230.557 115.537 259.197C107.153 270.261 97.3279 280.864 87.8198 291.15C78.3116 301.436 68.5154 312.01 59.9869 323.161C37.8013 352.29 10.0837 383.984 -26.9403 398.448C-28.813 399.027 -30.501 400.088 -31.8357 401.524C-33.1705 402.96 -34.1052 404.72 -34.5468 406.63C-38.2059 424.206 -4.52417 458.954 2.27557 465.725C37.3403 500.789 82.0285 519.402 135.015 521.045C181.115 522.456 227.992 503.354 263.72 468.606C301.349 431.985 322.814 382.313 322.613 332.294C322.411 280.605 297.574 225.861 246.721 164.951L243.58 161.177C227.704 141.988 194.599 102.054 170.598 101.622H170.108Z"/>
</mask>
<path d="M139.884 522.284C138.242 522.284 136.599 522.284 134.986 522.284C81.6827 520.641 36.7353 501.913 1.44001 466.647C-5.41736 459.789 -39.4737 424.638 -35.6704 406.486C-35.2032 404.383 -34.1904 402.439 -32.7338 400.851C-31.2772 399.263 -29.4281 398.086 -27.3725 397.439C9.39225 383.033 36.9658 351.541 59.0649 322.527C67.7087 311.319 77.4473 300.687 86.9554 290.43C96.4635 280.172 106.26 269.569 114.615 258.534C136.138 230.183 138.789 202.955 142.102 168.467L142.679 162.704C142.996 159.419 143.226 155.731 143.457 151.813C144.753 129.973 146.568 99.9505 170.627 100.527C195.233 100.844 228.425 141.181 244.473 160.457C245.626 161.811 246.663 163.079 247.614 164.231C298.641 225.342 323.563 280.316 323.765 332.265C323.967 382.63 302.386 432.619 264.527 469.441C229.836 503.181 184.658 522.284 139.884 522.284ZM170.108 101.622C147.606 101.622 145.963 129.426 144.609 151.813C144.379 155.731 144.148 159.448 143.831 162.762L143.284 168.524C139.913 203.099 137.262 230.557 115.537 259.197C107.153 270.261 97.3279 280.864 87.8198 291.15C78.3116 301.436 68.5154 312.01 59.9869 323.161C37.8013 352.29 10.0837 383.984 -26.9403 398.448C-28.813 399.027 -30.501 400.088 -31.8357 401.524C-33.1705 402.96 -34.1052 404.72 -34.5468 406.63C-38.2059 424.206 -4.52417 458.954 2.27557 465.725C37.3403 500.789 82.0285 519.402 135.015 521.045C181.115 522.456 227.992 503.354 263.72 468.606C301.349 431.985 322.814 382.313 322.613 332.294C322.411 280.605 297.574 225.861 246.721 164.951L243.58 161.177C227.704 141.988 194.599 102.054 170.598 101.622H170.108Z" stroke="url(#paint9_linear_41_295)" stroke-width="2" mask="url(#path-6-inside-6_41_295)"/>
<mask id="path-7-inside-7_41_295" fill="white">
<path d="M140.604 493.558C138.731 493.558 136.859 493.558 134.842 493.558C90.1247 491.627 50.8245 475.406 21.5511 446.593L20.9748 445.729C13.7717 438.641 -8.15455 416.917 -5.24449 404.441C-4.69656 402.561 -3.65322 400.863 -2.22375 399.525C-0.794279 398.186 0.96872 397.257 2.88062 396.834C30.8575 387.557 56.7599 371.047 84.3911 344.972C89.2316 340.391 95.0517 335.694 101.218 330.566C112.454 321.518 124.066 312.154 130.866 302.473C148.153 277.839 146.655 243.408 145.272 213.155C145.012 206.989 144.753 201.169 144.638 195.493C144.638 193.245 144.35 189.73 144.033 185.61C142.506 164.692 139.625 125.709 154.982 119.341C171.981 112.398 204.597 152.274 215.488 165.441L217.332 167.689C249.025 205.664 287.461 263.836 290.976 325.235C292.194 347.953 288.653 370.675 280.581 391.945C272.508 413.215 260.082 432.565 244.099 448.754C215.286 477.74 178.809 493.558 140.604 493.558ZM159.275 119.514C157.912 119.49 156.559 119.745 155.299 120.263C140.633 126.228 143.485 164.75 145.012 185.437C145.329 189.701 145.56 193.073 145.618 195.378C145.618 201.14 145.963 206.903 146.223 213.011C147.548 243.523 149.104 278.127 131.586 303.021C124.7 312.817 113.031 322.239 101.736 331.344C95.5991 336.299 89.779 340.996 84.9673 345.548C57.2209 371.854 31.2033 388.45 3.11112 397.756C1.35972 398.13 -0.258255 398.97 -1.5718 400.187C-2.88535 401.404 -3.84568 402.953 -4.35131 404.671C-7.23256 416.715 14.4632 438.036 21.5799 445.009L22.3002 445.729C51.4008 474.541 90.384 490.619 135.072 492.434C175.035 494.048 213.442 478.258 243.234 447.976C259.119 431.878 271.468 412.64 279.49 391.495C287.513 370.349 291.033 347.762 289.824 325.178C286.309 264.066 247.959 206.096 216.41 168.236L214.537 165.989C189.211 135.102 170.8 119.514 159.275 119.514Z"/>
</mask>
<path d="M140.604 493.558C138.731 493.558 136.859 493.558 134.842 493.558C90.1247 491.627 50.8245 475.406 21.5511 446.593L20.9748 445.729C13.7717 438.641 -8.15455 416.917 -5.24449 404.441C-4.69656 402.561 -3.65322 400.863 -2.22375 399.525C-0.794279 398.186 0.96872 397.257 2.88062 396.834C30.8575 387.557 56.7599 371.047 84.3911 344.972C89.2316 340.391 95.0517 335.694 101.218 330.566C112.454 321.518 124.066 312.154 130.866 302.473C148.153 277.839 146.655 243.408 145.272 213.155C145.012 206.989 144.753 201.169 144.638 195.493C144.638 193.245 144.35 189.73 144.033 185.61C142.506 164.692 139.625 125.709 154.982 119.341C171.981 112.398 204.597 152.274 215.488 165.441L217.332 167.689C249.025 205.664 287.461 263.836 290.976 325.235C292.194 347.953 288.653 370.675 280.581 391.945C272.508 413.215 260.082 432.565 244.099 448.754C215.286 477.74 178.809 493.558 140.604 493.558ZM159.275 119.514C157.912 119.49 156.559 119.745 155.299 120.263C140.633 126.228 143.485 164.75 145.012 185.437C145.329 189.701 145.56 193.073 145.618 195.378C145.618 201.14 145.963 206.903 146.223 213.011C147.548 243.523 149.104 278.127 131.586 303.021C124.7 312.817 113.031 322.239 101.736 331.344C95.5991 336.299 89.779 340.996 84.9673 345.548C57.2209 371.854 31.2033 388.45 3.11112 397.756C1.35972 398.13 -0.258255 398.97 -1.5718 400.187C-2.88535 401.404 -3.84568 402.953 -4.35131 404.671C-7.23256 416.715 14.4632 438.036 21.5799 445.009L22.3002 445.729C51.4008 474.541 90.384 490.619 135.072 492.434C175.035 494.048 213.442 478.258 243.234 447.976C259.119 431.878 271.468 412.64 279.49 391.495C287.513 370.349 291.033 347.762 289.824 325.178C286.309 264.066 247.959 206.096 216.41 168.236L214.537 165.989C189.211 135.102 170.8 119.514 159.275 119.514Z" fill="url(#paint10_linear_41_295)" stroke="url(#paint11_linear_41_295)" stroke-width="2" mask="url(#path-7-inside-7_41_295)"/>
<mask id="path-8-inside-8_41_295" fill="white">
<path d="M141.67 464.889C139.451 464.889 137.233 464.889 134.985 464.687C96.6936 462.325 66.671 450.483 43.2176 428.441L41.2296 426.597C34.3146 420.23 23.9421 410.606 25.4404 403.115C26.1031 400.003 28.8114 397.583 33.5655 395.941C58.8538 387.298 83.0927 375.846 105.827 361.798C154.981 331.343 151.697 293.887 147.115 242.025C146.683 237.011 146.222 231.854 145.819 226.523C145.646 224.593 145.156 221.193 144.522 216.929C141.41 195.55 134.899 151.006 150.63 144.898C160.917 140.893 180.48 164.692 187.827 173.71L189.902 176.188C225.543 217.476 249.457 267.697 255.277 314.056C260.636 356.612 246.835 401.329 219.291 430.717C209.427 441.481 197.433 450.077 184.071 455.96C170.709 461.843 156.27 464.883 141.67 464.889ZM153.195 145.359C152.408 145.345 151.625 145.482 150.89 145.762C135.763 151.525 142.246 195.752 145.3 216.929C145.934 221.222 146.424 224.593 146.597 226.581C147 231.883 147.461 237.069 147.893 242.082C152.474 293.945 155.788 331.689 106.23 362.489C83.4327 376.556 59.1378 388.036 33.796 396.719C29.3588 398.246 26.7945 400.464 26.1895 403.288C24.72 410.318 35.3807 420.143 41.7482 426.021L43.7651 427.865C67.0744 449.762 96.9241 461.547 134.985 463.881C150.563 464.947 166.18 462.458 180.655 456.603C195.13 450.748 208.085 441.68 218.541 430.084C245.942 400.896 259.657 356.439 254.355 314.085C248.593 267.985 224.765 217.88 189.153 176.793L187.078 174.287C180.48 166.104 163.423 145.359 153.224 145.359H153.195Z"/>
</mask>
<path d="M141.67 464.889C139.451 464.889 137.233 464.889 134.985 464.687C96.6936 462.325 66.671 450.483 43.2176 428.441L41.2296 426.597C34.3146 420.23 23.9421 410.606 25.4404 403.115C26.1031 400.003 28.8114 397.583 33.5655 395.941C58.8538 387.298 83.0927 375.846 105.827 361.798C154.981 331.343 151.697 293.887 147.115 242.025C146.683 237.011 146.222 231.854 145.819 226.523C145.646 224.593 145.156 221.193 144.522 216.929C141.41 195.55 134.899 151.006 150.63 144.898C160.917 140.893 180.48 164.692 187.827 173.71L189.902 176.188C225.543 217.476 249.457 267.697 255.277 314.056C260.636 356.612 246.835 401.329 219.291 430.717C209.427 441.481 197.433 450.077 184.071 455.96C170.709 461.843 156.27 464.883 141.67 464.889ZM153.195 145.359C152.408 145.345 151.625 145.482 150.89 145.762C135.763 151.525 142.246 195.752 145.3 216.929C145.934 221.222 146.424 224.593 146.597 226.581C147 231.883 147.461 237.069 147.893 242.082C152.474 293.945 155.788 331.689 106.23 362.489C83.4327 376.556 59.1378 388.036 33.796 396.719C29.3588 398.246 26.7945 400.464 26.1895 403.288C24.72 410.318 35.3807 420.143 41.7482 426.021L43.7651 427.865C67.0744 449.762 96.9241 461.547 134.985 463.881C150.563 464.947 166.18 462.458 180.655 456.603C195.13 450.748 208.085 441.68 218.541 430.084C245.942 400.896 259.657 356.439 254.355 314.085C248.593 267.985 224.765 217.88 189.153 176.793L187.078 174.287C180.48 166.104 163.423 145.359 153.224 145.359H153.195Z" fill="url(#paint12_linear_41_295)" stroke="url(#paint13_linear_41_295)" stroke-width="2" mask="url(#path-8-inside-8_41_295)"/>
<mask id="path-9-inside-9_41_295" fill="white">
<path d="M136.513 436.048H135.043C131.442 436.048 60.4767 417.003 57.7396 402.683C57.1633 399.802 59.3819 397.209 64.3376 395.134C71.5771 392.329 78.9755 389.953 86.4944 388.017C99.6617 384.329 113.29 380.469 123.461 374.072C138.443 364.65 147.058 349.841 149.853 328.865C152.273 310.512 149.853 289.796 147.807 271.557C147.173 266.054 146.597 260.868 146.107 255.826C145.819 252.484 145.185 248.046 144.465 242.918C141.584 222.547 137.32 191.776 147.346 186.273C151.899 183.795 158.641 186.474 167.947 194.484C196.011 218.715 213.5 268.158 219.954 303.165C226.869 340.621 217.072 381.996 194.714 408.244C187.709 416.935 178.844 423.944 168.771 428.756C158.699 433.568 147.676 436.059 136.513 436.048ZM150.919 185.984C149.774 185.971 148.643 186.249 147.634 186.791C137.925 192.093 142.189 222.605 145.013 242.803C145.733 247.931 146.338 252.368 146.655 255.739C147.116 260.782 147.721 265.968 148.355 271.442C150.429 289.738 152.821 310.483 150.372 329.067C147.49 350.244 138.847 365.198 123.72 374.735C113.463 381.189 99.8057 385.021 86.5808 388.738C79.0853 390.677 71.7068 393.043 64.4817 395.826C59.8429 397.785 57.7684 400.09 58.2582 402.683C59.3819 408.445 72.4915 415.908 96.1754 424.263C108.845 428.854 121.799 432.618 134.957 435.529H136.426C147.507 435.542 158.449 433.068 168.447 428.291C178.445 423.514 187.244 416.555 194.195 407.927C216.352 381.823 226.206 340.765 219.291 303.366C212.866 268.475 195.434 219.148 167.429 195.06C160.686 188.981 155.126 185.984 151.005 185.984H150.919Z"/>
</mask>
<path d="M136.513 436.048H135.043C131.442 436.048 60.4767 417.003 57.7396 402.683C57.1633 399.802 59.3819 397.209 64.3376 395.134C71.5771 392.329 78.9755 389.953 86.4944 388.017C99.6617 384.329 113.29 380.469 123.461 374.072C138.443 364.65 147.058 349.841 149.853 328.865C152.273 310.512 149.853 289.796 147.807 271.557C147.173 266.054 146.597 260.868 146.107 255.826C145.819 252.484 145.185 248.046 144.465 242.918C141.584 222.547 137.32 191.776 147.346 186.273C151.899 183.795 158.641 186.474 167.947 194.484C196.011 218.715 213.5 268.158 219.954 303.165C226.869 340.621 217.072 381.996 194.714 408.244C187.709 416.935 178.844 423.944 168.771 428.756C158.699 433.568 147.676 436.059 136.513 436.048ZM150.919 185.984C149.774 185.971 148.643 186.249 147.634 186.791C137.925 192.093 142.189 222.605 145.013 242.803C145.733 247.931 146.338 252.368 146.655 255.739C147.116 260.782 147.721 265.968 148.355 271.442C150.429 289.738 152.821 310.483 150.372 329.067C147.49 350.244 138.847 365.198 123.72 374.735C113.463 381.189 99.8057 385.021 86.5808 388.738C79.0853 390.677 71.7068 393.043 64.4817 395.826C59.8429 397.785 57.7684 400.09 58.2582 402.683C59.3819 408.445 72.4915 415.908 96.1754 424.263C108.845 428.854 121.799 432.618 134.957 435.529H136.426C147.507 435.542 158.449 433.068 168.447 428.291C178.445 423.514 187.244 416.555 194.195 407.927C216.352 381.823 226.206 340.765 219.291 303.366C212.866 268.475 195.434 219.148 167.429 195.06C160.686 188.981 155.126 185.984 151.005 185.984H150.919Z" fill="url(#paint14_linear_41_295)" stroke="url(#paint15_linear_41_295)" stroke-width="2" mask="url(#path-9-inside-9_41_295)"/>
<mask id="path-10-inside-10_41_295" fill="white">
<path d="M115.221 411.327C104.675 411.327 94.879 408.734 87.3589 400.263L87.2148 400.061H87.3877C88.1369 399.485 88.9436 398.793 89.6927 398.131C91.0651 396.844 92.5832 395.722 94.2163 394.788C131.672 377.703 147.865 342.119 145.387 282.823C145.387 281.469 145.07 279.02 144.696 275.937C143.025 261.963 139.97 235.974 147.865 229.52C148.916 228.73 150.156 228.231 151.462 228.074C152.767 227.917 154.091 228.108 155.299 228.627C173.22 234.389 182.21 273.92 186.531 292.821C186.906 294.435 187.223 295.702 187.511 297.057C190.679 311.415 191.138 326.238 188.865 340.765C186.828 355.629 181.652 369.89 173.681 382.601C164.086 397.209 151.034 406.371 135.937 409.051C129.111 410.411 122.179 411.172 115.221 411.327ZM87.8775 400.119C99.9788 413.661 118.188 411.644 135.821 408.59C150.775 405.939 163.741 396.863 173.278 382.341C188.001 359.925 193.677 324.716 187.079 297.028C186.791 295.818 186.474 294.377 186.099 292.792C181.806 273.949 172.845 234.735 155.155 228.915C154.02 228.418 152.775 228.232 151.545 228.373C150.315 228.515 149.145 228.98 148.153 229.722C140.431 236.032 143.63 262.856 145.272 275.822C145.647 278.933 145.935 281.383 145.992 282.737C147.145 310.714 144.148 333.014 136.83 350.965C133.04 360.751 127.356 369.693 120.103 377.278C112.849 384.863 104.17 390.94 94.562 395.163C92.9611 396.058 91.4798 397.152 90.1537 398.419C89.2894 398.937 88.569 399.571 87.8775 400.119Z"/>
</mask>
<path d="M115.221 411.327C104.675 411.327 94.879 408.734 87.3589 400.263L87.2148 400.061H87.3877C88.1369 399.485 88.9436 398.793 89.6927 398.131C91.0651 396.844 92.5832 395.722 94.2163 394.788C131.672 377.703 147.865 342.119 145.387 282.823C145.387 281.469 145.07 279.02 144.696 275.937C143.025 261.963 139.97 235.974 147.865 229.52C148.916 228.73 150.156 228.231 151.462 228.074C152.767 227.917 154.091 228.108 155.299 228.627C173.22 234.389 182.21 273.92 186.531 292.821C186.906 294.435 187.223 295.702 187.511 297.057C190.679 311.415 191.138 326.238 188.865 340.765C186.828 355.629 181.652 369.89 173.681 382.601C164.086 397.209 151.034 406.371 135.937 409.051C129.111 410.411 122.179 411.172 115.221 411.327ZM87.8775 400.119C99.9788 413.661 118.188 411.644 135.821 408.59C150.775 405.939 163.741 396.863 173.278 382.341C188.001 359.925 193.677 324.716 187.079 297.028C186.791 295.818 186.474 294.377 186.099 292.792C181.806 273.949 172.845 234.735 155.155 228.915C154.02 228.418 152.775 228.232 151.545 228.373C150.315 228.515 149.145 228.98 148.153 229.722C140.431 236.032 143.63 262.856 145.272 275.822C145.647 278.933 145.935 281.383 145.992 282.737C147.145 310.714 144.148 333.014 136.83 350.965C133.04 360.751 127.356 369.693 120.103 377.278C112.849 384.863 104.17 390.94 94.562 395.163C92.9611 396.058 91.4798 397.152 90.1537 398.419C89.2894 398.937 88.569 399.571 87.8775 400.119Z" fill="url(#paint16_linear_41_295)" stroke="url(#paint17_linear_41_295)" stroke-width="2" mask="url(#path-10-inside-10_41_295)"/>
<mask id="path-11-inside-11_41_295" fill="white">
<path d="M117.843 393.722C117.373 393.744 116.904 393.675 116.46 393.52C116.244 393.449 116.052 393.321 115.905 393.148C115.757 392.975 115.66 392.765 115.624 392.541C115.624 391.446 116.748 389.832 119.168 387.96C145.964 367.416 144.897 321.461 143.918 307.861C143.198 297.546 143.169 284.35 149.68 273.862V273.689V273.834C156.624 280.72 160.687 290.401 162.156 303.395C163.756 317.858 162.78 332.491 159.275 346.614C155.126 362.835 147.491 375.657 137.233 383.695C128.849 390.553 121.444 393.722 117.843 393.722ZM149.824 274.15C143.457 284.552 143.486 297.604 144.062 307.832C145.115 321.949 144.144 336.143 141.181 349.985C137.147 367.272 129.656 380.151 119.312 388.19C117.007 389.977 115.739 391.532 115.883 392.512C115.911 392.683 115.984 392.843 116.096 392.975C116.208 393.107 116.353 393.206 116.517 393.261C118.793 394.183 126.774 391.792 137.32 383.523C160.37 365.572 164.951 329.182 162.07 303.424C160.629 290.574 156.624 280.979 149.824 274.15Z"/>
</mask>
<path d="M117.843 393.722C117.373 393.744 116.904 393.675 116.46 393.52C116.244 393.449 116.052 393.321 115.905 393.148C115.757 392.975 115.66 392.765 115.624 392.541C115.624 391.446 116.748 389.832 119.168 387.96C145.964 367.416 144.897 321.461 143.918 307.861C143.198 297.546 143.169 284.35 149.68 273.862V273.689V273.834C156.624 280.72 160.687 290.401 162.156 303.395C163.756 317.858 162.78 332.491 159.275 346.614C155.126 362.835 147.491 375.657 137.233 383.695C128.849 390.553 121.444 393.722 117.843 393.722ZM149.824 274.15C143.457 284.552 143.486 297.604 144.062 307.832C145.115 321.949 144.144 336.143 141.181 349.985C137.147 367.272 129.656 380.151 119.312 388.19C117.007 389.977 115.739 391.532 115.883 392.512C115.911 392.683 115.984 392.843 116.096 392.975C116.208 393.107 116.353 393.206 116.517 393.261C118.793 394.183 126.774 391.792 137.32 383.523C160.37 365.572 164.951 329.182 162.07 303.424C160.629 290.574 156.624 280.979 149.824 274.15Z" stroke="url(#paint18_linear_41_295)" stroke-width="2" mask="url(#path-11-inside-11_41_295)"/>
<mask id="path-12-inside-12_41_295" fill="white">
<path d="M133.949 367.013C133.516 366.84 133.66 365.716 134.323 363.7C135.994 358.513 139.653 344.626 142.074 332.006C143.37 325.35 144.724 321.576 145.848 321.576C146.914 321.576 147.26 325.004 147.375 327.799C147.462 333.331 146.783 338.848 145.358 344.193C144.108 349.531 142.171 354.683 139.596 359.522C136.859 364.189 134.755 367.013 133.949 367.013ZM145.733 321.662C144.696 321.662 143.313 325.523 142.074 332.006C139.625 344.597 135.994 358.513 134.294 363.7C133.43 366.379 133.689 366.84 133.862 366.898C134.496 366.898 136.398 364.65 139.337 359.435C144.429 349.645 147.096 338.776 147.116 327.742C146.943 323.909 146.424 321.662 145.675 321.605L145.733 321.662Z"/>
</mask>
<path d="M133.949 367.013C133.516 366.84 133.66 365.716 134.323 363.7C135.994 358.513 139.653 344.626 142.074 332.006C143.37 325.35 144.724 321.576 145.848 321.576C146.914 321.576 147.26 325.004 147.375 327.799C147.462 333.331 146.783 338.848 145.358 344.193C144.108 349.531 142.171 354.683 139.596 359.522C136.859 364.189 134.755 367.013 133.949 367.013ZM145.733 321.662C144.696 321.662 143.313 325.523 142.074 332.006C139.625 344.597 135.994 358.513 134.294 363.7C133.43 366.379 133.689 366.84 133.862 366.898C134.496 366.898 136.398 364.65 139.337 359.435C144.429 349.645 147.096 338.776 147.116 327.742C146.943 323.909 146.424 321.662 145.675 321.605L145.733 321.662Z" stroke="url(#paint19_linear_41_295)" stroke-width="2" mask="url(#path-12-inside-12_41_295)"/>
<defs>
<linearGradient id="paint0_linear_41_295" x1="-198" y1="333.014" x2="468" y2="333.014" gradientUnits="userSpaceOnUse">
<stop stop-color="#EEFF01"/>
<stop offset="0.5" stop-color="#FF80E6"/>
<stop offset="1" stop-color="#EA27C3"/>
</linearGradient>
<linearGradient id="paint1_linear_41_295" x1="-110.5" y1="182" x2="444.5" y2="583.5" gradientUnits="userSpaceOnUse">
<stop stop-color="#EEFF01"/>
<stop offset="0.494792" stop-color="#EA27C3"/>
<stop offset="1" stop-color="#9E03A3"/>
</linearGradient>
<linearGradient id="paint2_linear_41_295" x1="6490.57" y1="70376" x2="133802" y2="70376" gradientUnits="userSpaceOnUse">
<stop stop-color="#EEFF01"/>
<stop offset="0.494792" stop-color="#FF80E6"/>
<stop offset="1" stop-color="#EA27C3"/>
</linearGradient>
<linearGradient id="paint3_linear_41_295" x1="-110.5" y1="179.5" x2="419" y2="580.5" gradientUnits="userSpaceOnUse">
<stop stop-color="#EEFF01"/>
<stop offset="0.552083" stop-color="#EA27C3"/>
<stop offset="1" stop-color="#9E03A3"/>
</linearGradient>
<linearGradient id="paint4_linear_41_295" x1="12099.3" y1="63884.5" x2="114684" y2="63884.5" gradientUnits="userSpaceOnUse">
<stop stop-color="#EEFF01"/>
<stop offset="0.5" stop-color="#FF80E6"/>
<stop offset="1" stop-color="#EA27C3"/>
</linearGradient>
<linearGradient id="paint5_linear_41_295" x1="-104.5" y1="173.5" x2="410" y2="527.5" gradientUnits="userSpaceOnUse">
<stop stop-color="#EEFF01"/>
<stop offset="0.494792" stop-color="#EA27C3"/>
<stop offset="1" stop-color="#9E03A3"/>
</linearGradient>
<linearGradient id="paint6_linear_41_295" x1="16408.3" y1="57582.6" x2="96623.5" y2="57582.6" gradientUnits="userSpaceOnUse">
<stop stop-color="#EEFF01"/>
<stop offset="0.494792" stop-color="#FF80E6"/>
<stop offset="1" stop-color="#EA27C3"/>
</linearGradient>
<linearGradient id="paint7_linear_41_295" x1="-99" y1="172.5" x2="416" y2="561" gradientUnits="userSpaceOnUse">
<stop stop-color="#EEFF01"/>
<stop offset="0.536458" stop-color="#EA27C3"/>
<stop offset="1" stop-color="#9E03A3"/>
</linearGradient>
<linearGradient id="paint8_linear_41_295" x1="-98.5" y1="160" x2="425" y2="513.5" gradientUnits="userSpaceOnUse">
<stop stop-color="#EEFF01"/>
<stop offset="0.520833" stop-color="#EA27C3"/>
<stop offset="1" stop-color="#9E03A3"/>
</linearGradient>
<linearGradient id="paint9_linear_41_295" x1="-110.5" y1="183" x2="421.5" y2="553.5" gradientUnits="userSpaceOnUse">
<stop stop-color="#EEFF01"/>
<stop offset="0.505208" stop-color="#FF80E6"/>
<stop offset="1" stop-color="#EA27C3"/>
</linearGradient>
<linearGradient id="paint10_linear_41_295" x1="19803.5" y1="39953.3" x2="50353.7" y2="39953.3" gradientUnits="userSpaceOnUse">
<stop stop-color="#EEFF01"/>
<stop offset="0.510417" stop-color="#FF80E6"/>
<stop offset="1" stop-color="#EA27C3"/>
</linearGradient>
<linearGradient id="paint11_linear_41_295" x1="-90.5" y1="159" x2="381.5" y2="556" gradientUnits="userSpaceOnUse">
<stop stop-color="#EEFF01"/>
<stop offset="0.515625" stop-color="#FF80E6"/>
<stop offset="1" stop-color="#EA27C3"/>
</linearGradient>
<linearGradient id="paint12_linear_41_295" x1="17935" y1="34034.3" x2="36477.9" y2="34034.3" gradientUnits="userSpaceOnUse">
<stop stop-color="#EEFF01"/>
<stop offset="0.510417" stop-color="#FF80E6"/>
<stop offset="1" stop-color="#EA27C3"/>
</linearGradient>
<linearGradient id="paint13_linear_41_295" x1="-123" y1="180.5" x2="402" y2="529.5" gradientUnits="userSpaceOnUse">
<stop stop-color="#EEFF01"/>
<stop offset="0.536458" stop-color="#FF80E6"/>
<stop offset="1" stop-color="#EA27C3"/>
</linearGradient>
<linearGradient id="paint14_linear_41_295" x1="14652.6" y1="27214.7" x2="24046.5" y2="27214.7" gradientUnits="userSpaceOnUse">
<stop stop-color="#EEFF01"/>
<stop offset="0.526042" stop-color="#FF80E6"/>
<stop offset="1" stop-color="#EA27C3"/>
</linearGradient>
<linearGradient id="paint15_linear_41_295" x1="-102" y1="185" x2="434" y2="480" gradientUnits="userSpaceOnUse">
<stop stop-color="#EEFF01"/>
<stop offset="0.53125" stop-color="#FF80E6"/>
<stop offset="1" stop-color="#EA27C3"/>
</linearGradient>
<linearGradient id="paint16_linear_41_295" x1="10290.1" y1="20562.2" x2="13975.9" y2="20562.2" gradientUnits="userSpaceOnUse">
<stop stop-color="#EEFF01"/>
<stop offset="0.479167" stop-color="#FF80E6"/>
<stop offset="1" stop-color="#EA27C3"/>
</linearGradient>
<linearGradient id="paint17_linear_41_295" x1="-94.9997" y1="163" x2="405.5" y2="533" gradientUnits="userSpaceOnUse">
<stop stop-color="#EEFF01"/>
<stop offset="0.536458" stop-color="#FF80E6"/>
<stop offset="1" stop-color="#EA27C3"/>
</linearGradient>
<linearGradient id="paint18_linear_41_295" x1="-94" y1="161" x2="434.5" y2="489.5" gradientUnits="userSpaceOnUse">
<stop stop-color="#EEFF01"/>
<stop offset="0.515625" stop-color="#FF80E6"/>
<stop offset="1" stop-color="#EA27C3"/>
</linearGradient>
<linearGradient id="paint19_linear_41_295" x1="-76" y1="147.5" x2="396" y2="540" gradientUnits="userSpaceOnUse">
<stop stop-color="#EEFF01"/>
<stop offset="0.515625" stop-color="#FF80E6"/>
<stop offset="1" stop-color="#EA27C3"/>
</linearGradient>
</defs>
</svg>
