<svg width="1455" height="1110" viewBox="0 0 1455 1110" fill="none" xmlns="http://www.w3.org/2000/svg">
<path style="mix-blend-mode:color-dodge" opacity="0.5" d="M934.14 781.903C1139.14 781.903 1305.32 606.868 1305.32 390.951C1305.32 175.035 1139.14 0 934.14 0C729.143 0 562.959 175.035 562.959 390.951C562.959 606.868 729.143 781.903 934.14 781.903Z" fill="url(#paint0_radial_76_39)"/>
<path style="mix-blend-mode:color-dodge" opacity="0.5" d="M934.14 1050.34C1101.95 1050.34 1238 858.856 1238 622.654C1238 386.452 1101.95 194.972 934.14 194.972C766.325 194.972 630.284 386.452 630.284 622.654C630.284 858.856 766.325 1050.34 934.14 1050.34Z" fill="url(#paint1_radial_76_39)"/>
<g style="mix-blend-mode:screen" opacity="0.6">
<path d="M938.637 1036.47C819.868 1036.47 708.017 1009.68 623.743 960.998C539.47 912.317 492.805 847.347 492.805 778.384C492.805 710.049 538.527 645.928 621.731 597.846C704.935 549.763 815.308 523.504 933.039 523.504C1051.84 523.504 1163.66 550.297 1247.93 598.978C1332.21 647.658 1379.03 712.628 1379.03 781.591C1379.03 849.958 1333.15 914.047 1249.91 962.13C1166.68 1010.21 1056.34 1036.47 938.637 1036.47ZM933.039 526.303C815.811 526.303 705.753 552.562 623.146 600.267C540.539 647.972 495.415 711.087 495.415 778.384C495.415 846.31 541.483 910.305 625.096 958.576C708.709 1006.85 820.339 1033.7 938.637 1033.7C1055.86 1033.7 1165.92 1007.45 1248.53 959.74C1331.14 912.034 1376.42 848.888 1376.42 781.591C1376.42 713.665 1330.35 649.67 1246.74 601.399C1163.12 553.128 1051.37 526.303 933.039 526.303Z" fill="#113A39"/>
</g>
<g style="mix-blend-mode:screen" opacity="0.3">
<path d="M938.511 1027.41C824.396 1027.41 716.947 1001.66 635.913 954.865C554.878 908.072 509.534 845.02 509.534 778.447C509.534 712.408 553.777 650.488 634.057 604.104C713.866 558.033 820.088 532.656 933.197 532.656C1047.31 532.656 1154.76 558.411 1235.79 605.204C1316.83 651.998 1362.17 714.86 1362.17 781.528C1362.17 847.568 1317.96 909.519 1237.65 955.872C1157.84 1001.94 1051.62 1027.41 938.511 1027.41ZM933.197 538.347C821.063 538.347 715.815 563.505 636.856 609.072C557.897 654.639 515.131 714.483 515.131 778.447C515.131 843.008 559.155 903.921 638.711 949.928C718.897 996.218 825.371 1021.72 938.511 1021.72C1050.64 1021.72 1155.89 996.564 1234.85 951.029C1313.46 905.713 1356.58 845.524 1356.58 781.528C1356.58 716.967 1312.55 656.054 1233 610.047C1152.81 563.757 1046.24 538.253 933.197 538.253V538.347Z" fill="#113A39"/>
</g>
<g style="mix-blend-mode:screen">
<g style="mix-blend-mode:screen" opacity="0.8">
<path d="M774.775 873.008C685.25 821.309 684.81 737.785 773.769 686.401C782.735 681.264 792.019 676.705 801.566 672.753L793.013 665.771C782.777 669.975 772.829 674.849 763.235 680.363C668.616 734.987 669.119 824.139 764.304 879.109C785.197 890.921 807.487 900.07 830.653 906.342L836.942 898.606C815.239 892.684 794.356 884.085 774.775 873.008V873.008Z" fill="#113A39"/>
</g>
<g style="mix-blend-mode:screen" opacity="0.6">
<path d="M1163.06 766.905L1177.84 766.182C1172.34 735.647 1149.54 705.867 1109.64 682.218L1099.1 688.288C1136.52 710.489 1157.87 738.32 1163.06 766.905Z" fill="#113A39"/>
</g>
<g style="mix-blend-mode:screen" opacity="0.8">
<path d="M1094.42 685.615L1104.95 679.545C1020.74 632.374 891.94 626.84 798.39 663.539L806.975 670.583C894.77 636.18 1015.27 641.243 1094.42 685.615Z" fill="#113A39"/>
</g>
<g style="mix-blend-mode:screen" opacity="0.4">
<path d="M1178.31 769.987L1163.56 770.711C1168.47 807.629 1146.62 845.429 1097.88 873.574C1069.35 890.052 1034.99 901.185 998.792 907.034L1002.66 915.273C1041.46 908.984 1078.13 897.222 1108.47 879.675C1160.42 849.706 1183.63 809.359 1178.31 769.987Z" fill="#113A39"/>
</g>
<g style="mix-blend-mode:screen" opacity="0.6">
<path d="M842.823 900.179L836.534 907.915C888.74 921.073 943.012 923.914 996.307 916.28L992.502 907.915C942.582 915.109 891.736 912.482 842.823 900.179V900.179Z" fill="#113A39"/>
</g>
</g>
<g style="mix-blend-mode:screen" opacity="0.4">
<path d="M931.593 617.909C796.064 618.632 683.71 675.048 659.874 749.452L685.596 752.125C707.325 684.765 809.019 633.727 931.656 633.003L931.593 617.909ZM683.678 749.106L663.647 747.031C689.527 674.702 799.9 622.154 928.794 620.739V630.173C809.617 631.683 707.325 681.306 683.678 749.106Z" fill="#113A39"/>
</g>
<g style="mix-blend-mode:screen" opacity="0.6">
<path d="M938.102 617.94V633.003C997.848 633.538 1052.88 645.991 1096.11 666.432L1112.84 654.922C1065.11 632.249 1004.29 618.601 938.102 617.94ZM1095.96 663.224C1051.43 642.469 997.942 631.085 940.964 630.236V620.802C1001.18 621.651 1059.95 633.884 1107.34 655.394L1095.96 663.224Z" fill="#113A39"/>
</g>
<g style="mix-blend-mode:screen" opacity="0.8">
<path d="M1117.91 657.375L1101.21 668.916C1155.61 695.992 1190.26 735.962 1190.51 780.459C1190.51 806.56 1178.91 831.026 1158.28 852.253L1180.92 859.832C1203.75 836.404 1216.77 809.328 1216.61 780.522C1216.36 731.37 1178.03 687.25 1117.91 657.375ZM1180.14 856.593L1163.31 850.964C1183.09 829.36 1193.44 805.051 1193.31 780.428C1193.06 737.66 1161.55 697.061 1106.65 668.539L1118.16 660.614C1178.72 691.149 1213.56 734.767 1213.81 780.491C1213.97 807.032 1202.34 833.291 1180.14 856.593Z" fill="#113A39"/>
</g>
<g style="mix-blend-mode:screen">
<path d="M1020.52 918.89C993.172 924.322 965.355 927.04 937.473 927.003H936.687C796.283 926.751 681.697 860.618 681.257 779.547C681.224 771.548 682.282 763.581 684.401 755.867L658.679 753.194C656.266 761.749 655.049 770.596 655.063 779.484C655.566 868.889 781.882 941.815 936.687 942.098H937.567C968.439 942.134 999.238 939.111 1029.51 933.072L1020.52 918.89ZM936.75 939.362C783.485 939.079 658.427 867.379 657.924 779.547C657.908 771.708 658.891 763.899 660.849 756.308L680.942 758.383C679.267 765.334 678.433 772.46 678.458 779.61C678.898 862.222 794.806 929.613 936.687 929.865H937.473C964.91 929.907 992.288 927.316 1019.23 922.129L1025.02 931.217C996.21 936.685 966.951 939.412 937.63 939.362H936.75Z" fill="#113A39"/>
</g>
<g style="mix-blend-mode:screen" opacity="0.6">
<path d="M1155.04 855.492C1125.89 883.795 1080.67 905.808 1026.65 917.632L1035.65 931.815C1095.39 918.858 1145.52 894.392 1177.68 863.071L1155.04 855.492ZM1031.15 919.487C1082.72 907.694 1126.77 886.216 1155.77 858.668L1172.4 864.234C1140.67 893.512 1092.84 916.28 1036.97 928.67L1031.15 919.487Z" fill="#113A39"/>
</g>
<g style="mix-blend-mode:screen" opacity="0.2">
<path d="M1046.24 600.896L1070.27 556.87C1064.26 555.643 1058.32 554.26 1052.22 553.19L1027.28 597.217C1033.66 598.223 1039.95 599.732 1046.24 600.896ZM749.147 622.154L701.602 584.921C696.382 586.996 691.319 589.166 686.257 591.399L733.047 629.135C738.393 626.62 743.739 624.324 749.21 622.154H749.147ZM1078.13 608.663L1110.01 566.43C1104.23 564.857 1098.54 563.285 1092.66 561.776L1059.95 603.758C1066.18 605.236 1072.18 606.965 1078.19 608.663H1078.13ZM1196.08 663.853C1200.2 666.998 1204.22 670.143 1207.97 673.287L1272.21 646.085C1268.59 642.941 1264.76 640.111 1260.86 637.186L1196.08 663.853ZM1173.44 648.727C1178.09 651.536 1182.58 654.398 1186.9 657.312L1245.79 626.368C1241.64 623.569 1237.37 620.865 1232.96 618.16L1173.44 648.727ZM1201.74 600.99L1148.13 635.016C1153.19 637.5 1158.12 640.079 1163 642.784L1216.05 608.412C1211.46 605.875 1206.75 603.401 1201.93 600.99H1201.74ZM842.225 596.808L816.786 552.782C810.717 553.819 804.774 555.172 798.799 556.367L823.295 600.393C829.773 599.229 836.031 597.877 842.414 596.808H842.225ZM1294.82 667.061C1291.67 663.916 1288.37 660.771 1285.07 657.627L1216.05 680.3C1219.57 683.445 1223.09 686.872 1226.27 690.269L1294.82 667.061ZM809.774 603.317L776.63 561.178C770.782 562.593 765.09 564.323 759.336 565.801L791.536 608.129C797.825 606.462 803.642 604.764 809.774 603.317ZM1013.19 595.141L1029.14 549.92C1022.85 549.071 1016.78 548.096 1010.52 547.436L993.635 592.594C1000.21 593.443 1006.68 594.198 1013.19 595.141ZM778.612 611.808L738.079 571.902C732.513 573.663 727.104 575.581 721.664 577.499L761.442 617.657C767.103 615.645 772.668 613.632 778.612 611.808V611.808ZM979.264 591.367L986.905 545.423C980.616 544.92 974.327 544.448 968.038 544.134L959.453 590.047C965.994 590.298 972.629 590.833 979.264 591.367V591.367ZM910.305 589.984L901.217 544.008C894.928 544.291 888.639 544.763 882.35 545.234L890.525 591.21C897.035 590.707 903.67 590.298 910.305 589.984ZM876.061 592.374L858.703 547.153C852.414 547.813 846.125 548.756 840.087 549.606L856.533 594.858C863.011 593.946 869.489 593.034 876.061 592.374ZM1167.97 585.738L1120.8 622.846C1126.3 625.016 1131.65 627.343 1136.96 629.701L1183.34 592.311C1178.29 590.047 1173.17 587.856 1167.97 585.738V585.738ZM1265.61 786.371H1345.63C1345.63 782.692 1345.63 779.013 1345.63 775.333L1265.61 774.925C1265.8 778.738 1265.8 782.558 1265.61 786.371V786.371ZM1233.5 863.26L1306.83 881.908C1309.53 878.606 1312.36 875.304 1314.82 871.939L1241.86 852.788C1239.38 856.31 1236.36 859.769 1233.5 863.26ZM1216.99 880.713L1286.58 903.669C1289.88 900.525 1293.21 897.38 1296.23 894.235L1227.05 870.807C1224 874.14 1220.48 877.411 1216.99 880.713ZM1197.4 897.065L1262.49 924.079C1266.33 921.154 1270.13 918.229 1273.72 915.21L1209.19 887.757C1205.48 890.933 1201.49 894.015 1197.4 897.065ZM926.971 970.337L927.694 1016.53C933.983 1016.53 940.272 1016.53 946.781 1016.53L947.001 970.306C940.209 970.463 933.574 970.463 926.75 970.337H926.971ZM606.008 773.604H525.98C525.98 777.283 525.98 780.962 525.98 784.642L606.04 785.051C605.829 781.238 605.819 777.417 606.008 773.604V773.604ZM944.737 589.638L944.014 543.442C937.725 543.442 931.436 543.442 924.927 543.442L924.738 589.669C931.467 589.543 938.165 589.533 944.831 589.638H944.737ZM1260.32 746.622L1338.56 736.873C1337.36 733.288 1335.7 729.735 1334.22 726.15L1255.92 735.333C1257.62 739.106 1259.22 742.848 1260.42 746.622H1260.32ZM1264.69 766.434L1344.28 761.465C1343.72 757.817 1342.87 754.169 1342.05 750.522L1262.46 754.924C1263.43 758.707 1264.21 762.539 1264.79 766.402L1264.69 766.434ZM1241.2 708.288L1313.94 689.42C1311.48 686.023 1308.59 682.721 1305.85 679.419L1232.71 697.816C1235.51 701.275 1238.56 704.734 1241.2 708.288ZM1252.65 727.156L1328.62 712.753C1326.77 709.263 1324.38 705.835 1322.33 702.344L1246.01 716.087C1248.28 719.861 1250.64 723.477 1252.52 727.156H1252.65ZM1256.64 825.806L1335 835.24C1336.45 831.687 1338.15 828.133 1339.25 824.517L1260.92 814.485C1259.64 818.331 1258.17 822.109 1256.52 825.806H1256.64ZM1262.93 806.215L1342.55 810.932C1343.34 807.284 1344.16 803.636 1344.66 799.988L1264.94 794.705C1264.44 798.576 1263.74 802.418 1262.84 806.215H1262.93ZM1246.71 845.02L1322.99 859.172C1325.07 855.712 1327.43 852.285 1329.28 848.794L1253.18 834.108C1251.27 837.63 1248.94 841.247 1246.71 845.02ZM1131.43 572.782L1091.27 612.311C1097.12 614.135 1102.84 616.179 1108.54 618.223L1147.87 578.191C1142.43 576.336 1136.99 574.386 1131.43 572.625V572.782ZM708.52 917.349L655.598 951.721C660.251 954.278 664.979 956.752 669.779 959.142L723.425 925.116C718.373 922.538 713.404 919.948 708.52 917.349ZM961.34 969.991L970.428 1015.97C976.717 1015.68 983.006 1015.21 989.295 1014.77L981.151 968.765C974.673 969.3 968.07 969.74 961.34 969.991ZM825.371 959.079L801.315 1003.11C807.353 1004.33 813.264 1005.72 819.365 1006.78L844.332 962.759C837.98 961.752 831.723 960.369 825.434 959.079H825.371ZM892.412 968.513L884.771 1014.49C891.06 1014.96 897.349 1015.46 903.638 1015.75L912.223 969.834C905.713 969.614 899.11 969.142 892.475 968.608L892.412 968.513ZM734.682 930.179L688.364 967.664C693.416 969.929 698.552 972.119 703.772 974.237L750.94 937.129C745.437 934.959 740.06 932.632 734.745 930.274L734.682 930.179ZM762.983 941.595L723.645 981.627C729.085 983.545 734.525 985.495 740.091 987.256L780.247 947.507C774.587 945.651 768.895 943.733 763.235 941.689L762.983 941.595ZM793.328 951.217L761.663 993.545C767.417 995.118 773.14 996.69 778.989 998.2L811.692 956.218C805.56 954.739 799.554 953.01 793.517 951.312L793.328 951.217ZM858.325 964.74L842.414 1009.96C848.703 1010.81 854.772 1011.78 861.03 1012.48L877.884 967.287C871.501 966.689 865.023 965.778 858.514 964.834L858.325 964.74ZM1150.01 925.745L1204 959.96C1208.78 957.57 1213.49 955.117 1218.12 952.601L1164.82 918.009C1159.85 920.714 1154.92 923.261 1150.01 925.745ZM1122.62 937.821L1170.2 975.054C1175.39 973.01 1180.48 970.809 1185.55 968.576L1138.72 930.84C1133.31 933.355 1128 935.651 1122.5 937.821H1122.62ZM995.678 967.664L1013.04 1012.89C1019.33 1012.22 1025.43 1011.28 1031.62 1010.46L1015.21 965.18C1008.73 966.029 1002.22 966.941 995.678 967.664ZM1174.92 912.16L1234.66 942.947C1239.03 940.274 1243.31 937.569 1247.43 934.802L1188.19 903.606C1184.04 906.468 1179.54 909.33 1174.92 912.097V912.16ZM1093.16 948.23L1133.72 988.136C1139.29 986.375 1144.7 984.457 1150.14 982.539L1110.36 942.381C1104.61 944.33 1098.91 946.343 1093.1 948.167L1093.16 948.23ZM1029.39 963.23L1054.83 1007.26C1060.9 1006.22 1066.81 1004.83 1072.81 1003.64L1048.32 959.614C1041.97 960.746 1035.71 962.098 1029.32 963.167L1029.39 963.23ZM1061.97 956.658L1095.11 998.797C1100.96 997.382 1106.68 995.652 1112.4 994.174L1080.05 951.941C1074.04 953.513 1068.07 955.085 1061.97 956.658ZM611.291 813.353L533.055 823.007C534.25 826.624 535.917 830.177 537.426 833.731L615.693 824.548C614.09 820.9 612.486 817.158 611.291 813.353ZM624.875 715.112L548.621 700.961C546.545 704.42 544.155 707.848 542.332 711.338L618.586 726.024C620.442 722.376 622.769 718.728 624.875 715.112ZM615.065 734.169L536.703 724.735C535.256 728.32 533.558 731.873 532.458 735.458L610.788 745.49C612.077 741.653 613.649 738.1 615.19 734.169H615.065ZM638.114 696.747L564.783 678.067C562.079 681.401 559.218 684.671 556.796 688.036L629.718 707.187C632.359 703.665 635.347 700.363 638.24 696.747H638.114ZM674.182 662.941L609.153 635.897C605.285 638.821 601.48 641.777 597.895 644.765L662.61 672.218C666.257 668.916 670.22 665.992 674.307 662.941H674.182ZM654.591 679.262L585.16 656.337C581.827 659.482 578.525 662.627 575.475 665.771L644.655 689.2C647.736 685.835 651.227 682.564 654.717 679.262H654.591ZM625.724 933.607C629.917 936.395 634.194 939.131 638.554 941.815L698.112 911.248C693.437 908.46 688.94 905.598 684.622 902.663L625.724 933.607ZM608.87 753.824L529.25 749.106C528.464 752.754 527.647 756.402 527.143 760.05L606.763 765.302C607.235 761.402 608.021 757.566 608.87 753.824ZM696.917 647.941L637.171 617.154C632.81 619.838 628.617 622.553 624.592 625.299L683.427 656.337C687.703 653.486 692.158 650.666 696.791 647.878L696.917 647.941ZM606.92 793.541L527.395 798.51C527.93 802.158 528.779 805.806 529.596 809.454L609.153 805.051C608.209 801.256 607.464 797.414 606.92 793.541ZM576.701 892.914C579.846 896.059 582.99 899.204 586.481 902.349L655.66 879.644C652.107 876.499 648.585 873.04 645.409 869.643L576.701 892.914ZM599.436 913.984C603.084 917.129 606.92 919.959 610.788 922.884L675.597 896.122C671.477 892.977 667.452 889.833 663.679 886.688L599.436 913.984ZM630.63 851.687L557.897 870.555C560.35 873.952 563.243 877.254 566.01 880.587L639.12 862.159C636.227 858.7 633.177 855.241 630.63 851.687V851.687ZM619.184 832.819L543.118 847.222C544.942 850.744 547.331 854.171 549.407 857.631L625.536 843.762C623.429 840.115 621.071 836.498 619.184 832.787V832.819ZM721.853 634.324L667.83 600.11C663.05 602.5 658.396 604.953 653.711 607.468L707.168 642.06C711.885 639.293 716.79 636.714 721.853 634.324Z" fill="#113A39"/>
</g>
<g style="mix-blend-mode:screen" opacity="0.5">
<path d="M1196.14 663.853C1200.26 666.998 1204.29 670.142 1208.03 673.287L1272.27 646.085C1268.66 642.941 1264.82 640.11 1260.92 637.186L1196.14 663.853ZM778.612 611.808L738.079 571.901C732.513 573.662 727.104 575.581 721.664 577.499L761.442 617.657C767.103 615.644 772.668 613.632 778.612 611.808ZM979.264 591.367L986.905 545.423C980.616 544.92 974.327 544.448 968.038 544.134L959.453 590.046C965.994 590.298 972.629 590.833 979.264 591.367ZM910.305 589.984L901.217 544.008C894.928 544.291 888.639 544.763 882.35 545.234L890.525 591.21C897.035 590.707 903.67 590.298 910.305 589.984V589.984ZM1167.97 585.738L1120.8 622.846C1126.3 625.016 1131.65 627.343 1136.96 629.701L1183.34 592.311C1178.29 590.046 1173.17 587.856 1167.97 585.738ZM1197.4 897.065L1262.49 924.078C1266.33 921.154 1270.13 918.229 1273.72 915.21L1209.19 887.757C1205.48 890.933 1201.49 894.015 1197.4 897.065ZM926.971 970.337L927.694 1016.53C933.983 1016.53 940.272 1016.53 946.781 1016.53L947.001 970.306C940.209 970.463 933.574 970.463 926.75 970.337H926.971ZM606.008 773.604H525.98C525.98 777.283 525.98 780.962 525.98 784.642L606.04 785.05C605.829 781.238 605.819 777.417 606.008 773.604V773.604ZM1260.32 746.622L1338.56 736.873C1337.36 733.288 1335.7 729.735 1334.22 726.15L1255.92 735.332C1257.62 739.106 1259.22 742.848 1260.42 746.622H1260.32ZM1256.42 825.806L1334.78 835.24C1336.23 831.687 1337.93 828.133 1339.03 824.517L1260.7 814.485C1259.5 818.326 1258.1 822.105 1256.52 825.806H1256.42ZM793.517 951.312L761.663 993.545C767.417 995.118 773.14 996.69 778.989 998.199L811.692 956.217C805.56 954.739 799.554 953.01 793.517 951.312ZM1093.1 948.167L1133.66 988.073C1139.23 986.312 1144.63 984.394 1150.07 982.476L1110.3 942.318C1104.61 944.33 1098.91 946.343 1093.1 948.167V948.167ZM611.291 813.353L533.055 823.007C534.25 826.624 535.917 830.177 537.426 833.731L615.693 824.548C614.09 820.9 612.486 817.158 611.291 813.353ZM674.182 662.941L609.153 635.896C605.285 638.821 601.48 641.777 597.895 644.765L662.61 672.218C666.257 668.916 670.22 665.991 674.307 662.941H674.182ZM599.436 913.984C603.084 917.129 606.92 919.959 610.788 922.883L675.597 896.122C671.477 892.977 667.452 889.832 663.679 886.688L599.436 913.984Z" fill="#113A39"/>
</g>
<g style="mix-blend-mode:screen" opacity="0.3">
<path d="M749.21 622.154L701.665 584.921C696.445 586.996 691.382 589.166 686.32 591.399L733.11 629.135C738.393 626.62 743.739 624.324 749.21 622.154ZM1078.19 608.663L1110.08 566.43C1104.29 564.857 1098.6 563.285 1092.72 561.775L1060.02 603.757C1066.18 605.235 1072.18 606.965 1078.19 608.663ZM1201.93 600.99L1148.31 635.016C1153.38 637.5 1158.31 640.079 1163.19 642.783L1216.05 608.412C1211.46 605.875 1206.75 603.401 1201.93 600.99ZM809.774 603.317L776.63 561.178C770.782 562.593 765.09 564.323 759.336 565.801L791.536 608.129C797.825 606.462 803.642 604.764 809.774 603.317V603.317ZM1013.19 595.141L1029.14 549.92C1022.85 549.071 1016.78 548.096 1010.52 547.436L993.635 592.594C1000.21 593.443 1006.68 594.198 1013.19 595.141V595.141ZM1216.99 880.713L1286.58 903.669C1289.88 900.525 1293.21 897.38 1296.23 894.235L1227.05 870.807C1224 874.14 1220.48 877.411 1216.99 880.713ZM1264.79 766.402L1344.38 761.434C1343.81 757.786 1342.96 754.138 1342.14 750.49L1262.55 754.893C1263.5 758.688 1264.24 762.53 1264.79 766.402V766.402ZM1241.2 708.288L1313.94 689.42C1311.48 686.023 1308.59 682.721 1305.86 679.419L1232.71 697.816C1235.51 701.275 1238.56 704.734 1241.2 708.288ZM1252.65 727.156L1328.62 712.753C1326.77 709.263 1324.38 705.835 1322.33 702.344L1246.01 716.087C1248.28 719.86 1250.64 723.477 1252.52 727.156H1252.65ZM1246.71 845.02L1322.99 859.172C1325.07 855.712 1327.43 852.285 1329.28 848.794L1253.18 834.108C1251.27 837.63 1248.94 841.247 1246.71 845.02ZM892.475 968.608L884.834 1014.58C891.123 1015.06 897.412 1015.56 903.701 1015.84L912.286 969.929C905.713 969.614 899.11 969.142 892.475 968.608ZM734.745 930.274L688.364 967.664C693.416 969.929 698.552 972.119 703.772 974.237L750.94 937.129C745.437 934.959 740.06 932.632 734.745 930.274ZM858.514 964.865L842.603 1010.09C848.892 1010.94 854.961 1011.91 861.218 1012.6L878.073 967.413C871.501 966.689 865.023 965.778 858.514 964.834V964.865ZM1122.5 937.852L1170.07 975.086C1175.26 973.042 1180.36 970.84 1185.42 968.608L1138.6 930.871C1133.31 933.355 1128 935.651 1122.5 937.821V937.852ZM1029.32 963.199L1054.76 1007.22C1060.83 1006.19 1066.74 1004.8 1072.75 1003.61L1048.26 959.582C1041.97 960.746 1035.71 962.098 1029.32 963.167V963.199ZM611.291 813.353L533.055 823.007C534.25 826.624 535.917 830.177 537.426 833.731L615.693 824.548C614.09 820.9 612.486 817.158 611.291 813.353ZM615.19 734.169L536.829 724.735C535.382 728.32 533.684 731.873 532.583 735.458L610.914 745.49C612.077 741.653 613.649 738.1 615.19 734.169ZM674.307 662.941L609.153 635.896C605.285 638.821 601.48 641.777 597.895 644.765L662.61 672.218C666.257 668.916 670.22 665.991 674.307 662.941ZM630.63 851.624L557.897 870.493C560.35 873.889 563.243 877.191 566.01 880.524L639.12 862.096C636.227 858.7 633.177 855.241 630.63 851.687V851.624Z" fill="#113A39"/>
</g>
<g style="mix-blend-mode:screen" opacity="0.2">
<path d="M1050.24 488.441C1044.8 487.717 1039.42 486.743 1033.95 486.114L1021.84 518.536C1027.53 519.196 1033.22 519.888 1038.88 520.674L1050.24 488.441ZM1025.71 516.177L1035.8 489.164C1038.26 489.478 1040.74 489.856 1043.13 490.233L1046.46 490.736L1037.03 517.592C1033.04 517.058 1029.32 516.586 1025.71 516.177ZM1102.47 497.152C1097.18 496.082 1091.96 494.887 1086.74 494.007L1068.88 525.454C1074.42 526.439 1079.94 527.488 1085.45 528.599L1102.47 497.152ZM1073.16 523.253L1088.1 497.026C1090.67 497.529 1093.28 498.095 1095.8 498.63L1098.19 499.133L1083.98 525.297C1080.39 524.605 1076.81 523.913 1073.16 523.253ZM1212.9 567.939L1245.98 541.303C1241.49 539.354 1237.02 537.404 1232.46 535.549L1198.85 561.996C1203.47 563.914 1208.28 565.895 1212.9 567.939ZM1232.9 538.756C1235.51 539.825 1238.09 540.926 1240.61 541.901L1212.49 564.574C1209.66 563.348 1206.96 562.184 1204.32 561.115L1232.9 538.756ZM996.779 482.937C991.213 482.529 985.71 482.025 980.144 481.742L973.855 514.636C979.641 514.951 985.427 515.297 991.182 515.705L996.779 482.937ZM977.314 512.026L982.44 484.667L990.804 485.265L993.509 485.485L988.981 512.749C985.207 512.466 981.339 512.246 977.314 512.026V512.026ZM1200.89 523.693C1196.08 522.026 1191.46 520.328 1186.46 518.756L1157.78 547.058C1162.83 548.694 1167.86 550.381 1172.87 552.121L1200.89 523.693ZM1163 545.926L1187.21 521.963C1190.1 522.907 1192.97 523.913 1195.8 524.888L1172.02 549.008C1168.88 547.907 1165.95 546.901 1163 545.926ZM1152.87 508.944C1147.81 507.561 1142.78 506.114 1137.65 504.856L1114.26 534.888C1119.6 536.209 1124.92 537.561 1130.17 539.008L1152.87 508.944ZM1119.1 533.222L1138.75 508.064L1147.02 510.296L1148.16 510.611L1129.1 535.769C1125.86 534.951 1122.56 534.071 1119.1 533.222V533.222ZM894.865 514.51L888.356 481.554C882.79 481.837 877.287 482.308 871.721 482.717L877.538 515.517C883.324 515.108 889.016 514.825 894.865 514.51V514.51ZM877.507 485.076L886.06 484.478L891.5 511.869L879.865 512.561L875.023 485.265L877.507 485.076ZM711.413 546.272L682.452 517.97C677.578 519.542 672.83 521.114 668.05 522.875L696.351 551.492C701.35 549.637 706.35 547.939 711.413 546.272ZM681.697 521.114L706.162 545.203C703.237 546.146 700.25 547.153 697.137 548.348L673.175 524.133L681.697 521.114ZM754.807 534.322L731.066 504.196C725.941 505.454 720.972 506.9 715.91 508.221L738.928 538.379C744.179 536.838 749.462 535.549 754.807 534.228V534.322ZM721.507 509.605C724.274 508.85 727.136 508.064 729.997 507.34L749.933 532.498C746.474 533.347 743.204 534.196 739.997 535.045L720.658 509.699L721.507 509.605ZM670.503 561.052L636.605 534.479C632.076 536.303 627.611 538.222 623.146 540.171L656.509 566.933C661.132 564.92 665.754 562.939 670.503 561.052ZM636.164 537.656L665 560.266L656.918 563.694L628.617 540.895C631.165 539.983 633.554 538.725 636.164 537.656ZM800.183 524.825L781.976 493.378C776.662 494.29 771.473 495.516 766.254 496.523L783.706 527.97C789.114 526.806 794.68 525.8 800.183 524.825V524.825ZM772.983 498.001L780.53 496.46L795.749 522.781C792.164 523.41 788.58 524.07 785.089 524.762L770.499 498.504L772.983 498.001ZM1249.95 586.053L1287.68 561.555C1283.59 559.354 1279.4 557.184 1275.1 555.046L1236.9 579.292C1241.34 581.451 1245.69 583.684 1249.95 585.99V586.053ZM1275.35 558.285C1277.52 559.386 1279.79 560.549 1282.15 561.807L1249.82 582.814C1247.43 581.524 1245.01 580.266 1242.62 579.04L1275.35 558.285ZM847.037 518.221L834.458 485.768C829.018 486.365 823.673 487.309 818.233 488.032L829.93 520.297C835.653 519.542 841.355 518.85 847.037 518.221ZM825.434 489.919C827.823 489.573 830.276 489.195 832.729 488.881L843.106 515.957L831.88 517.309L822.132 490.422L825.434 489.919ZM943.133 513.756L942.473 480.61H925.744L925.587 513.661H933.039L943.133 513.756ZM928.669 483.472H939.863L940.272 510.894H928.511L928.669 483.472ZM632.548 578.128L594.059 553.757C589.866 555.853 585.737 558.012 581.67 560.235L619.656 584.858C623.911 582.573 628.209 580.329 632.548 578.128ZM593.902 556.964L626.888 577.877L619.813 581.587L587.141 560.455L593.902 556.964ZM1354.41 893.701L1406.61 906.971C1408.96 904.078 1411.45 901.185 1413.62 898.229L1361.42 884.518C1359.25 887.6 1356.92 890.65 1354.41 893.701ZM1408.81 899.99C1408.15 900.839 1407.42 901.688 1406.73 902.537L1405.57 903.952L1359.34 892.191L1362.49 887.851L1408.81 899.99ZM1372.39 868.008L1426.73 878.071C1428.52 874.927 1430.6 872.033 1432.2 868.983L1377.71 858.448C1376.1 861.53 1374.34 864.706 1372.46 867.882L1372.39 868.008ZM1427.83 870.964L1426.51 873.103C1426.1 873.732 1425.72 874.361 1425.35 874.989L1376.8 865.964C1377.61 864.549 1378.43 863.071 1379.22 861.593L1427.83 870.964ZM1385.57 841.215L1441.45 847.976C1442.67 844.832 1444.31 841.687 1445.38 838.542L1389.15 831.341C1388.15 834.548 1386.92 837.819 1385.63 841.089L1385.57 841.215ZM1391.07 834.485L1441.38 840.932L1440.47 842.976C1440.19 843.605 1439.87 844.266 1439.59 844.957L1389.28 838.888C1390.13 837.221 1390.66 835.775 1391.13 834.36L1391.07 834.485ZM1331.77 918.387L1381.32 934.739C1384.22 931.972 1387.11 929.236 1389.81 926.437L1340.44 909.707C1337.74 912.506 1334.82 915.399 1331.83 918.261L1331.77 918.387ZM1384.66 927.632C1383.46 928.827 1382.27 929.991 1381.07 931.123L1380.6 931.563L1337.02 917.16C1338.5 915.714 1339.88 914.33 1341.23 912.915L1384.66 927.632ZM1393.87 813.793L1450.69 817.127C1451.35 813.982 1452.2 810.837 1452.67 807.693L1395.6 803.95C1395.29 807.001 1394.63 810.428 1393.93 813.573L1393.87 813.793ZM1397.99 806.749L1449.34 810.145C1449.15 811.183 1448.9 812.221 1448.65 813.29L1448.46 814.171L1397.24 811.026C1397.53 809.6 1397.8 808.133 1398.05 806.623L1397.99 806.749ZM1273.78 962.664L1316.42 984.677C1320.23 982.319 1323.97 979.929 1327.62 977.507L1285.45 955.085C1281.67 957.622 1277.81 960.106 1273.84 962.538L1273.78 962.664ZM1322.11 977.727L1316.29 981.407L1279.44 962.538C1281.52 961.218 1283.56 959.897 1285.54 958.576L1322.11 977.727ZM1304.79 941.406L1351.26 960.557C1354.6 957.979 1357.93 955.4 1361.1 952.758L1315.07 933.072C1311.77 935.934 1308.34 938.607 1304.85 941.28L1304.79 941.406ZM1355.63 953.639L1350.73 957.475L1310.38 940.557L1315.54 936.437L1355.63 953.639ZM1283.56 606.022L1325.54 584.009C1321.86 581.556 1318.09 579.166 1314.28 576.807L1271.86 598.569C1275.85 601.085 1279.74 603.569 1283.56 606.022ZM1320.01 583.694L1283.72 602.877C1281.7 601.556 1279.63 600.204 1277.43 598.883L1314.03 580.015C1316.23 581.367 1318.18 582.594 1320.01 583.789V583.694ZM1397.17 785.742H1454.4C1454.4 782.598 1454.4 779.296 1454.4 776.057L1397.14 775.837C1397.27 779.138 1397.27 782.503 1397.17 785.837V785.742ZM1451.6 778.981C1451.6 780.365 1451.6 781.717 1451.6 783.069H1400C1400 781.591 1400 780.113 1400 778.635L1451.6 778.981ZM1339.12 651.966L1388.3 635.393C1385.57 632.595 1382.61 629.827 1379.72 627.06L1330.35 643.255C1333.37 646.023 1336.29 648.916 1339.12 651.872V651.966ZM1379 630.236L1379.66 630.865C1380.82 631.966 1381.98 633.066 1383.12 634.198L1339.91 648.727C1338.53 647.343 1337.11 645.897 1335.63 644.45L1379 630.236ZM1313.53 628.035L1359.34 608.6C1356.2 605.99 1352.77 603.38 1349.38 600.801L1303.25 619.89C1306.64 622.72 1310.1 625.425 1313.53 628.035ZM1353.93 607.877L1313.87 624.89C1312.21 623.538 1310.48 622.154 1308.65 620.739L1348.84 604.103C1350.48 605.393 1352.17 606.682 1353.81 608.003L1353.93 607.877ZM1360.48 676.872L1412.55 663.35C1410.35 660.394 1407.8 657.501 1405.44 654.576L1353.37 667.658C1355.73 670.834 1358.09 673.916 1360.35 676.998L1360.48 676.872ZM1405.6 659.136C1406.29 659.985 1407.01 660.834 1407.71 661.715L1361.61 673.696L1358.27 669.325L1404.4 657.721L1405.6 659.136ZM1395.29 757.975L1452.3 754.421C1451.79 751.276 1450.91 748.132 1450.22 744.83L1393.43 747.974C1394.31 751.308 1394.91 754.641 1395.29 757.975ZM1448.02 747.754L1448.27 748.761C1448.52 749.83 1448.74 750.836 1448.96 751.905L1397.64 755.05C1397.39 753.541 1397.14 752.062 1396.86 750.616L1448.02 747.754ZM1376.8 703.256L1431.2 692.942C1429.53 689.797 1427.42 686.841 1425.6 683.791L1371.39 693.665C1373.43 696.841 1375.22 700.049 1376.92 703.256H1376.8ZM1425.44 688.791L1426.76 690.929L1378.3 700.112L1375.85 695.709L1424.22 686.904L1425.44 688.791ZM1388.68 730.332L1444.81 723.351C1443.74 720.206 1442.04 717.062 1440.79 713.917L1385 720.458C1386.32 723.76 1387.55 727.062 1388.68 730.332ZM1438.99 716.967L1439.94 719.011C1440.25 719.703 1440.57 720.364 1440.85 721.024L1390.54 727.314C1390.03 725.867 1389.5 724.42 1388.9 722.879L1438.99 716.967ZM821.472 1071.44C826.912 1072.16 832.289 1073.14 837.76 1073.77L849.867 1041.35C844.165 1040.72 838.483 1040 832.823 1039.21L821.472 1071.44ZM845.999 1043.7L835.905 1070.72C833.452 1070.4 831.031 1070.02 828.641 1069.65L825.245 1069.14L834.679 1042.29C838.704 1042.92 842.414 1043.39 845.999 1043.8V1043.7ZM928.606 1046.22L929.109 1079.27H945.869V1046.22H938.637C935.366 1046.28 932.002 1046.28 928.606 1046.28V1046.22ZM943.07 1076.5H931.876L931.436 1049.05H943.196L943.07 1076.5ZM874.96 1076.94C880.494 1077.35 886.029 1077.86 891.595 1078.17L897.884 1045.24C892.098 1044.93 886.343 1044.58 880.557 1044.18L874.96 1076.94ZM894.393 1047.85L889.299 1075.21C886.437 1075.06 883.545 1074.8 880.746 1074.58L878.23 1074.4L882.727 1047.23C886.532 1047.51 890.368 1047.73 894.393 1047.95V1047.85ZM769.241 1062.73C774.524 1063.8 779.744 1065.02 784.964 1065.87L802.824 1034.43C797.269 1033.46 791.745 1032.41 786.253 1031.28L769.241 1062.73ZM798.548 1036.63L783.643 1062.85C781.001 1062.35 778.391 1061.79 775.844 1061.25L773.517 1060.78L787.825 1034.58C791.315 1035.37 794.9 1036.06 798.548 1036.85V1036.63ZM658.805 991.942L625.756 1018.58C630.221 1020.53 634.686 1022.48 639.277 1024.33L672.892 997.885C668.134 996.04 663.438 994.09 658.805 992.036V991.942ZM638.806 1021.12C636.196 1020.06 633.586 1018.92 631.102 1017.98L659.402 995.306C662.232 996.533 664.905 997.696 667.547 998.797L638.806 1021.12ZM670.848 1036.19C675.628 1037.85 680.282 1039.55 685.282 1041.12L713.96 1012.82C708.866 1011.19 703.835 1009.52 698.866 1007.76L670.848 1036.19ZM708.583 1013.99L684.622 1038.04C681.729 1037.07 678.836 1036.09 676.006 1035.09L699.715 1011L708.583 1013.99ZM718.708 1050.94C723.802 1052.32 728.802 1053.77 733.928 1055.06L757.355 1024.99C752.009 1023.67 746.695 1022.32 741.412 1020.87L718.708 1050.94ZM752.48 1026.66L732.859 1051.82C730.029 1051.09 727.23 1050.34 724.526 1049.58L723.425 1049.27L742.512 1024.11C745.846 1025.02 749.147 1025.9 752.606 1026.75L752.48 1026.66ZM1116.77 1025.65L1140.52 1055.78C1145.64 1054.52 1150.64 1053.11 1155.67 1051.75L1132.69 1021.6C1127.53 1023.11 1122.25 1024.46 1116.9 1025.75L1116.77 1025.65ZM1150.11 1050.37C1147.34 1051.13 1144.48 1051.91 1141.58 1052.63L1121.71 1027.41C1125.15 1026.58 1128.45 1025.73 1131.62 1024.87L1150.96 1050.21L1150.11 1050.37ZM1160.17 1013.55L1189.16 1042.04C1194 1040.5 1198.75 1038.89 1203.53 1037.13L1175.23 1008.51C1170.36 1010.34 1165.36 1012.04 1160.29 1013.64L1160.17 1013.55ZM1189.92 1038.86L1165.55 1014.84C1168.47 1013.89 1171.49 1012.89 1174.57 1011.69L1198.56 1035.9L1189.92 1038.86ZM1201.2 999.111L1235.1 1025.68C1239.66 1023.83 1244.13 1021.91 1248.56 1019.96L1215.23 993.199C1210.6 995.044 1205.92 997.015 1201.2 999.111ZM1235.57 1022.48L1206.61 999.709C1209.22 998.64 1211.9 997.476 1214.7 996.281L1243 1019.08L1235.57 1022.48ZM1239.16 982.004L1277.65 1006.38C1281.83 1004.27 1285.95 1002.1 1290.04 999.929L1252.05 975.275C1247.81 977.413 1243.53 979.646 1239.16 981.847V982.004ZM1277.81 1003.17L1244.82 982.256L1251.93 978.545L1284.54 999.678L1277.81 1003.17ZM621.731 973.954L583.997 998.483C588.116 1000.68 592.235 1002.85 596.575 1004.99L634.812 980.746C630.347 978.545 626.039 976.312 621.731 973.954ZM596.323 1001.75L589.531 998.2L621.92 977.098L629.089 980.904L596.323 1001.75ZM1024.64 1041.72L1037.22 1074.18C1042.69 1073.58 1048.03 1072.63 1053.47 1071.91L1041.75 1039.65C1036.05 1040.43 1030.52 1041.12 1024.67 1041.75L1024.64 1041.72ZM1046.27 1070.02C1043.88 1070.37 1041.4 1070.75 1038.95 1071.06L1028.57 1044.02L1039.8 1042.63L1049.58 1069.52L1046.27 1070.02ZM597.895 597.437L555.224 575.424C551.419 577.782 547.677 580.172 544.03 582.594L586.261 604.795C590.034 602.342 593.933 599.89 597.895 597.437ZM549.564 582.373L555.35 578.694L592.235 597.562C590.139 598.883 588.043 600.204 585.946 601.525L549.564 582.373ZM976.874 1045.46L983.352 1078.42C988.918 1078.14 994.452 1077.67 999.986 1077.29L994.169 1044.46C988.415 1044.87 982.629 1045.21 976.874 1045.46ZM994.012 1074.9C991.276 1075.12 988.446 1075.34 985.647 1075.5L980.207 1048.11C984.201 1047.92 988.069 1047.67 991.811 1047.45L996.653 1074.71L994.012 1074.9ZM1071.56 1035.15L1089.76 1066.6C1095.08 1065.69 1100.27 1064.49 1105.49 1063.45L1088.03 1032.01C1082.59 1033.17 1077.09 1034.18 1071.56 1035.15V1035.15ZM1098.91 1061.94L1091.18 1063.52L1075.96 1037.19C1079.57 1036.57 1083.16 1035.9 1086.62 1035.21L1101.24 1061.47L1098.91 1061.94ZM486.076 718.886L430.198 712.124C428.971 715.269 427.336 718.414 426.267 721.559L482.491 728.666C483.56 725.521 484.787 722.156 486.076 718.886ZM480.573 725.521L430.26 719.074C430.543 718.383 430.826 717.722 431.141 717.03C431.455 716.338 431.738 715.71 432.021 715.018L482.334 721.087C481.579 722.754 481.076 724.2 480.573 725.521ZM499.251 691.967L444.945 681.904C443.153 685.049 441.078 687.942 439.442 691.023L493.937 701.527C495.604 698.445 497.365 695.269 499.251 692.093V691.967ZM443.845 689.011C444.254 688.319 444.694 687.627 445.134 686.935L446.329 684.986L494.849 694.074C494.032 695.489 493.214 696.967 492.428 698.445L443.845 689.011ZM477.806 746.182L420.984 742.848C420.324 745.993 419.475 749.138 419.003 752.44L476.045 756.182C476.516 752.974 477.083 749.641 477.806 746.308V746.182ZM473.655 753.226L422.305 749.861C422.525 748.823 422.745 747.786 422.997 746.716C422.997 746.433 422.997 746.119 423.217 745.804L474.441 748.949C474.158 750.364 473.938 751.842 473.655 753.352V753.226ZM539.973 641.714L490.415 625.362C487.554 628.129 484.629 630.865 481.957 633.664L531.294 650.394C534.019 647.48 536.912 644.586 539.973 641.714ZM487.082 632.469L490.227 629.324L491.044 628.538L534.627 642.941C533.149 644.387 531.766 645.802 530.414 647.186L487.082 632.469ZM566.859 618.601L520.508 599.418C517.144 601.996 513.811 604.575 510.635 607.217L556.639 626.777C559.941 624.041 563.368 621.368 566.859 618.601ZM516.012 606.368L520.917 602.531L561.356 619.324C559.532 620.739 557.803 622.123 556.167 623.443L516.012 606.368ZM474.535 774.138H417.336C417.336 777.283 417.336 780.428 417.336 783.793L474.567 784.076C474.473 780.837 474.441 777.472 474.535 774.138ZM420.104 781.088C420.104 779.736 420.104 778.384 420.104 777H471.705C471.705 778.478 471.705 779.956 471.705 781.434L420.104 781.088ZM517.238 666.275L465.039 653.004C462.681 655.897 460.196 658.79 458.027 661.746L510.226 675.457C512.458 672.375 514.817 669.325 517.238 666.275V666.275ZM462.838 659.985L464.913 657.438L466.077 656.023L512.364 667.815L509.22 672.124L462.838 659.985ZM588.147 953.733L546.168 975.746C549.847 978.168 553.62 980.558 557.457 982.916L599.719 961.375C595.82 958.859 591.963 956.354 588.147 953.859V953.733ZM551.702 976.061L587.99 956.972C590.003 958.293 592.078 959.645 594.279 960.966L557.677 979.834L551.702 976.061ZM532.583 907.978L483.372 924.676C486.076 927.475 489.032 930.242 491.925 933.01L541.325 916.814C538.338 913.952 535.414 911.059 532.583 908.103V907.978ZM492.805 929.928L492.428 929.582L488.686 925.965L531.923 911.437C533.275 912.82 534.69 914.267 536.2 915.714L492.805 929.928ZM511.452 883.071L459.41 896.594C461.58 899.55 464.127 902.443 466.485 905.399L518.465 892.191C515.98 889.046 513.622 886.09 511.358 882.977L511.452 883.071ZM466.234 900.65L464.221 898.229L510.32 886.279C511.452 887.757 512.553 889.235 513.653 890.619L467.555 902.223L466.234 900.65ZM558.4 931.909L512.584 951.343C515.729 953.953 519.156 956.563 522.552 959.142L568.714 940.054C565.129 937.286 561.639 934.582 558.306 931.815L558.4 931.909ZM517.961 951.941L557.897 935.022L563.054 939.362L522.867 955.966L517.961 951.941ZM494.849 856.687L440.417 867.033C442.052 870.178 444.159 873.134 445.983 876.184L500.195 866.31C498.277 863.134 496.484 859.926 494.786 856.719L494.849 856.687ZM446.266 871.247L444.883 869.015L493.34 859.832C494.157 861.31 494.975 862.788 495.824 864.234L447.43 873.071C446.989 872.474 446.612 871.876 446.203 871.279L446.266 871.247ZM483.057 829.643L426.77 836.624C427.871 839.769 429.537 842.913 430.795 846.058L486.61 839.517C485.384 836.215 484.158 832.945 483.057 829.643ZM432.745 843.008C432.43 842.316 432.116 841.655 431.833 840.995L430.921 838.951L481.233 832.662C481.736 834.108 482.302 835.555 482.868 837.096L432.745 843.008ZM476.359 802.126L419.349 805.68C419.852 808.825 420.733 811.969 421.424 815.271L478.215 812.127C477.428 808.667 476.799 805.334 476.296 802.001L476.359 802.126ZM423.625 812.221C423.625 811.875 423.468 811.529 423.374 811.183C423.154 810.145 422.902 809.139 422.682 808.038L474.001 804.894C474.252 806.403 474.535 807.881 474.818 809.328L423.625 812.221Z" fill="#113A39"/>
</g>
<g style="mix-blend-mode:screen" opacity="0.2">
<path d="M996.779 482.937C991.213 482.529 985.71 482.025 980.144 481.742L973.855 514.636C979.641 514.951 985.427 515.297 991.182 515.705L996.779 482.937ZM977.314 512.026L982.44 484.667L990.804 485.265L993.509 485.485L988.981 512.749C985.207 512.466 981.339 512.246 977.314 512.026ZM1200.89 523.693C1196.08 522.026 1191.46 520.328 1186.46 518.756L1157.78 547.058C1162.83 548.693 1167.86 550.381 1172.87 552.121L1200.89 523.693ZM1163 545.926L1187.21 521.963C1190.1 522.907 1192.97 523.913 1195.8 524.888L1172.02 549.008C1168.88 547.907 1165.95 546.901 1163 545.926V545.926ZM1152.87 508.944C1147.81 507.561 1142.78 506.114 1137.65 504.856L1114.26 534.888C1119.6 536.209 1124.92 537.561 1130.17 539.008L1152.87 508.944ZM1119.1 533.222L1138.75 508.064L1147.02 510.296L1148.16 510.611L1129.1 535.769C1125.86 534.951 1122.56 534.071 1119.1 533.222V533.222ZM711.413 546.272L682.452 517.97C677.578 519.542 672.829 521.114 668.05 522.875L696.351 551.492C701.35 549.637 706.35 547.939 711.413 546.272ZM681.697 521.114L706.161 545.203C703.237 546.146 700.25 547.153 697.137 548.348L673.175 524.133L681.697 521.114ZM847.036 518.316L834.458 485.862C829.018 486.46 823.673 487.403 818.233 488.126L829.93 520.391C835.653 519.573 841.355 518.85 847.036 518.221V518.316ZM825.434 490.013C827.823 489.667 830.276 489.29 832.729 488.975L843.106 516.051L831.88 517.404L822.132 490.516L825.434 490.013ZM632.548 578.128L594.059 553.757C589.866 555.853 585.736 558.012 581.67 560.235L619.655 584.858C623.911 582.573 628.209 580.329 632.548 578.128ZM593.902 556.964L626.888 577.876L619.813 581.587L587.141 560.455L593.902 556.964ZM1372.46 867.882L1426.79 877.945C1428.59 874.801 1430.66 871.908 1432.27 868.857L1377.77 858.322C1376.1 861.53 1374.34 864.706 1372.46 867.882ZM1427.89 870.838L1426.57 872.977C1426.16 873.606 1425.79 874.235 1425.41 874.864L1376.86 865.838C1377.68 864.423 1378.49 862.945 1379.28 861.467L1427.89 870.838ZM1393.93 813.573L1450.75 816.906C1451.42 813.762 1452.26 810.617 1452.74 807.472L1395.66 803.73C1395.29 807.001 1394.63 810.428 1393.93 813.573ZM1398.05 806.529L1449.4 809.925C1449.21 810.963 1448.96 812.001 1448.71 813.07L1448.52 813.95L1397.3 810.806C1397.55 809.527 1397.8 808.133 1398.05 806.623V806.529ZM1273.84 962.444L1316.48 984.457C1320.29 982.099 1324.03 979.709 1327.68 977.287L1285.45 955.085C1281.67 957.622 1277.81 960.106 1273.84 962.538V962.444ZM1322.18 977.507L1316.36 981.187L1279.5 962.318C1281.58 960.997 1283.62 959.677 1285.6 958.356L1322.18 977.507ZM1304.85 941.186L1351.26 960.557C1354.6 957.979 1357.93 955.4 1361.1 952.758L1315.07 933.072C1311.77 935.934 1308.34 938.607 1304.85 941.28V941.186ZM1355.7 953.419L1350.79 957.255L1310.38 940.557L1315.54 936.437L1355.7 953.419ZM1339.12 651.777L1388.3 635.205C1385.57 632.406 1382.61 629.639 1379.72 626.871L1330.35 643.066C1333.37 646.023 1336.29 648.916 1339.12 651.872V651.777ZM1379 630.047L1379.66 630.676C1380.82 631.777 1381.98 632.878 1383.12 634.01L1339.91 648.538C1338.53 647.155 1337.11 645.708 1335.63 644.261L1379 630.047ZM1388.68 730.238L1444.81 723.257C1443.74 720.112 1442.04 716.967 1440.79 713.823L1385 720.364C1386.32 723.76 1387.55 727.062 1388.68 730.332V730.238ZM1438.99 716.873L1439.94 718.917C1440.25 719.609 1440.57 720.269 1440.85 720.93L1390.54 727.219C1390.03 725.773 1389.5 724.326 1388.9 722.785L1438.99 716.873ZM821.471 1071.44C826.911 1072.16 832.289 1073.14 837.76 1073.77L849.867 1041.35C844.164 1040.72 838.483 1040 832.823 1039.21L821.471 1071.44ZM845.999 1043.7L835.905 1070.72C833.452 1070.4 831.031 1070.02 828.641 1069.65L825.245 1069.14L834.678 1042.29C838.703 1042.92 842.414 1043.39 845.999 1043.8V1043.7ZM718.834 1050.94C723.928 1052.32 728.928 1053.77 734.053 1055.06L757.48 1024.99C752.135 1023.67 746.82 1022.32 741.537 1020.87L718.834 1050.94ZM752.606 1026.66L732.984 1051.82C730.154 1051.09 727.356 1050.34 724.651 1049.58L723.551 1049.27L742.638 1024.11C745.845 1025.02 749.147 1025.9 752.606 1026.75V1026.66ZM1160.29 1013.55L1189.29 1042.04C1194.13 1040.5 1198.88 1038.89 1203.66 1037.13L1175.36 1008.51C1170.36 1010.34 1165.36 1012.04 1160.29 1013.64V1013.55ZM1190.04 1038.86L1165.55 1014.84C1168.47 1013.89 1171.49 1012.89 1174.57 1011.69L1198.56 1035.9L1190.04 1038.86ZM621.731 973.954L583.996 998.482C588.116 1000.68 592.235 1002.85 596.575 1004.99L634.812 980.746C630.347 978.545 626.039 976.312 621.731 973.954ZM596.323 1001.75L589.531 998.199L621.919 977.098L629.089 980.904L596.323 1001.75ZM1024.64 1041.72L1037.22 1074.18C1042.69 1073.58 1048.03 1072.63 1053.47 1071.91L1041.75 1039.65C1036.05 1040.43 1030.52 1041.12 1024.67 1041.75L1024.64 1041.72ZM1046.27 1070.02C1043.88 1070.37 1041.4 1070.75 1038.95 1071.06L1028.57 1044.02L1039.8 1042.63L1049.58 1069.52L1046.27 1070.02ZM976.843 1045.34L983.352 1078.42C988.918 1078.14 994.452 1077.67 999.986 1077.29L994.169 1044.46C988.415 1044.87 982.629 1045.21 976.874 1045.46L976.843 1045.34ZM993.98 1074.77C991.245 1074.99 988.415 1075.21 985.616 1075.37L980.207 1048.11C984.201 1047.92 988.069 1047.67 991.811 1047.45L996.653 1074.71L993.98 1074.77ZM477.806 746.308L420.984 742.974C420.324 746.119 419.475 749.264 419.003 752.566L476.045 756.308C476.516 752.974 477.082 749.641 477.806 746.308ZM473.655 753.352L422.305 749.987C422.525 748.949 422.745 747.911 422.996 746.842C422.996 746.559 422.996 746.245 423.217 745.93L474.441 749.075C474.158 750.364 473.938 751.842 473.655 753.352ZM539.973 641.714L490.415 625.362C487.554 628.129 484.629 630.865 481.956 633.664L531.294 650.394C534.019 647.48 536.912 644.586 539.973 641.714ZM487.082 632.469L490.227 629.324L491.044 628.538L534.627 642.941C533.149 644.387 531.766 645.802 530.414 647.186L487.082 632.469ZM517.332 666.275L465.133 653.004C462.775 655.897 460.291 658.79 458.121 661.746L510.32 675.457C512.458 672.375 514.817 669.325 517.238 666.275H517.332ZM462.932 659.985L465.007 657.438L466.171 656.023L512.458 667.815L509.314 672.124L462.932 659.985ZM532.678 907.978L483.371 924.676C486.076 927.475 489.032 930.242 491.925 933.01L541.325 916.814C538.338 913.952 535.413 911.059 532.583 908.103L532.678 907.978ZM492.805 929.928L492.428 929.582L488.686 925.965L531.923 911.437C533.275 912.82 534.69 914.267 536.2 915.714L492.805 929.928ZM494.88 856.813L440.417 867.033C442.052 870.178 444.159 873.134 445.983 876.184L500.195 866.31C498.277 863.134 496.484 859.926 494.786 856.719L494.88 856.813ZM446.297 871.373L444.914 869.14L493.371 859.958C494.189 861.436 495.006 862.914 495.855 864.36L447.461 873.197C446.989 872.474 446.612 871.876 446.203 871.279L446.297 871.373ZM483.057 829.643L426.77 836.624C427.871 839.769 429.537 842.913 430.795 846.058L486.61 839.517C485.384 836.215 484.158 832.945 483.057 829.643ZM432.745 843.008C432.43 842.316 432.116 841.655 431.833 840.995L430.921 838.951L481.233 832.662C481.736 834.108 482.302 835.555 482.868 837.096L432.745 843.008Z" fill="#113A39"/>
</g>
<g style="mix-blend-mode:screen" opacity="0.2">
<g style="mix-blend-mode:screen" opacity="0.2">
<path d="M1227.21 782.314C1226.74 822.095 1202.24 858.574 1161.65 887.128L1178.31 895.336C1225.48 862.316 1248.56 825.334 1248.97 782.409L1227.21 782.314Z" fill="#113A39"/>
</g>
</g>
<g style="mix-blend-mode:screen" opacity="0.6">
<path d="M991.276 958.639C1062.06 951.563 1126.93 930.085 1174.35 898.072L1157.59 889.927C1104.13 925.839 1025.05 948.544 936.656 948.356C888.087 948.521 839.791 941.094 793.517 926.343L782.731 937.16C846.596 958.23 920.461 965.715 991.276 958.639Z" fill="#113A39"/>
</g>
<g style="mix-blend-mode:screen" opacity="0.3">
<path d="M644.214 779.516C643.711 686.715 774.083 611.431 934.832 611.714C950.995 611.714 966.874 612.563 982.346 614.072L986.088 601.493C933.188 595.937 879.744 598.696 827.698 609.67C704.495 635.362 621.982 703.539 622.391 779.296C622.751 800.69 629.055 821.563 640.598 839.58L660.943 835.335C650.307 818.636 644.515 799.312 644.214 779.516Z" fill="#113A39"/>
</g>
<g style="mix-blend-mode:screen" opacity="0.2">
<path d="M663.176 838.731L642.831 842.976C669.056 883.229 713.079 913.481 777.228 935.368L788.045 924.55C731.349 905.053 686.885 874.801 663.176 838.731Z" fill="#113A39"/>
</g>
<g style="mix-blend-mode:screen" opacity="0.5">
<path d="M1227.21 778.667H1249.03C1248.09 736.402 1222.12 695.678 1175.73 663.79C1129.35 631.903 1064.32 610.11 992.345 602.217L988.603 614.795C1122.78 629.45 1225.17 697.218 1227.21 778.667Z" fill="#113A39"/>
</g>
<path style="mix-blend-mode:color-dodge" opacity="0.7" d="M615.964 906.314C768.364 893.57 888.546 843.027 884.398 793.424C880.251 743.821 753.344 713.942 600.944 726.686C448.544 739.431 328.362 789.973 332.51 839.576C336.657 889.179 463.564 919.059 615.964 906.314Z" fill="url(#paint2_radial_76_39)"/>
<path style="mix-blend-mode:color-dodge" opacity="0.15" d="M906.652 959.437C946.419 876.653 954.838 798.1 925.455 783.983C896.072 769.867 840.015 825.533 800.248 908.316C760.48 991.1 752.062 1069.65 781.444 1083.77C810.827 1097.89 866.884 1042.22 906.652 959.437Z" fill="url(#paint3_radial_76_39)"/>
<path style="mix-blend-mode:color-dodge" opacity="0.1" d="M1257.46 821.034C1348.81 811.609 1420.15 777.682 1416.81 745.254C1413.46 712.827 1336.7 694.18 1245.34 703.604C1153.99 713.029 1082.65 746.957 1086 779.384C1089.34 811.811 1166.11 830.458 1257.46 821.034Z" fill="url(#paint4_radial_76_39)"/>
<path style="mix-blend-mode:color-dodge" opacity="0.3" d="M1048.28 598.954C1061.6 508.084 1046.25 430.587 1014 425.858C981.749 421.13 944.805 490.961 931.484 581.831C918.164 672.7 933.511 750.198 965.764 754.926C998.017 759.655 1034.96 689.824 1048.28 598.954Z" fill="url(#paint5_radial_76_39)"/>
<path style="mix-blend-mode:color-dodge" opacity="0.1" d="M1221.93 726.161C1328.32 702.439 1405.77 643.824 1394.94 595.241C1384.11 546.658 1289.09 526.504 1182.71 550.226C1076.33 573.948 998.868 632.563 1009.7 681.146C1020.53 729.729 1115.55 749.883 1221.93 726.161Z" fill="url(#paint6_radial_76_39)"/>
<path style="mix-blend-mode:color-dodge" opacity="0.3" d="M1361.34 1017.08C1387.58 974.783 1333.78 893.907 1241.17 836.436C1148.55 778.966 1052.2 766.664 1025.96 808.959C999.717 851.254 1053.52 932.13 1146.13 989.601C1238.75 1047.07 1335.1 1059.37 1361.34 1017.08Z" fill="url(#paint7_radial_76_39)"/>
<path style="mix-blend-mode:color-dodge" opacity="0.15" d="M888.631 748.031C918.195 707.987 871.08 623.04 783.397 558.296C695.714 493.551 600.666 473.528 571.102 513.572C541.537 553.616 588.652 638.563 676.335 703.307C764.019 768.051 859.067 788.075 888.631 748.031Z" fill="url(#paint8_radial_76_39)"/>
<g style="mix-blend-mode:screen">
<g style="mix-blend-mode:screen" opacity="0.8">
<path d="M1094.42 685.615L1104.95 679.545C1020.74 632.374 891.94 626.84 798.391 663.539L806.975 670.583C894.771 636.18 1015.27 641.243 1094.42 685.615Z" fill="#27043D"/>
</g>
</g>
<g style="mix-blend-mode:screen" opacity="0.6">
<path d="M938.102 617.94V633.003C997.848 633.538 1052.88 645.991 1096.11 666.432L1112.84 654.922C1065.11 632.249 1004.29 618.601 938.102 617.94ZM1095.96 663.224C1051.43 642.469 997.942 631.085 940.964 630.236V620.802C1001.18 621.651 1059.95 633.884 1107.34 655.394L1095.96 663.224Z" fill="#27043D"/>
</g>
<g style="mix-blend-mode:screen" opacity="0.2">
<path d="M1046.24 600.896L1070.27 556.87C1064.26 555.643 1058.32 554.26 1052.22 553.19L1027.28 597.217C1033.66 598.223 1039.95 599.732 1046.24 600.896ZM1078.13 608.663L1110.01 566.43C1104.23 564.857 1098.54 563.285 1092.66 561.776L1059.95 603.758C1066.18 605.236 1072.18 606.965 1078.19 608.663H1078.13ZM842.288 596.808L816.849 552.782C810.78 553.819 804.837 555.172 798.862 556.367L823.358 600.393C829.773 599.229 836.031 597.877 842.414 596.808H842.288ZM809.648 603.317L776.505 561.178C770.656 562.593 764.964 564.323 759.21 565.801L791.535 608.129C797.825 606.462 803.642 604.764 809.774 603.317H809.648ZM1013.07 595.141L1029.01 549.92C1022.72 549.071 1016.65 548.096 1010.39 547.436L993.509 592.594C1000.21 593.443 1006.68 594.198 1013.19 595.141H1013.07ZM979.138 591.367L986.779 545.423C980.49 544.92 974.201 544.448 967.912 544.134L959.328 590.047C965.994 590.298 972.629 590.833 979.264 591.367H979.138ZM910.179 589.984L901.091 544.008C894.802 544.291 888.513 544.763 882.224 545.234L890.4 591.21C897.035 590.707 903.669 590.298 910.304 589.984H910.179ZM875.935 592.374L858.577 547.153C852.288 547.813 845.999 548.756 839.961 549.606L856.407 594.858C863.011 593.946 869.488 593.034 876.06 592.374H875.935ZM1167.84 585.738L1120.67 622.846C1126.18 625.016 1131.52 627.343 1136.84 629.701L1183.22 592.311C1178.25 590.047 1173.17 587.856 1167.97 585.738H1167.84ZM944.58 589.638L943.857 543.442C937.568 543.442 931.278 543.442 924.769 543.442L924.581 589.669C931.415 589.543 938.165 589.533 944.831 589.638H944.58ZM1131.18 572.625L1091.27 612.311C1097.12 614.135 1102.84 616.179 1108.54 618.223L1147.87 578.191C1142.43 576.336 1136.99 574.386 1131.43 572.625H1131.18Z" fill="#27043D"/>
</g>
<g style="mix-blend-mode:screen" opacity="0.5">
<path d="M979.264 591.367L986.905 545.423C980.616 544.92 974.327 544.448 968.038 544.134L959.453 590.046C965.994 590.298 972.629 590.833 979.264 591.367ZM910.304 589.984L901.217 544.008C894.928 544.291 888.639 544.763 882.35 545.234L890.525 591.21C897.035 590.707 903.67 590.298 910.304 589.984V589.984ZM1167.97 585.738L1120.8 622.846C1126.3 625.016 1131.65 627.343 1136.96 629.701L1183.34 592.311C1178.29 590.046 1173.17 587.856 1167.97 585.738Z" fill="#27043D"/>
</g>
<g style="mix-blend-mode:screen" opacity="0.3">
<path d="M1078.19 608.663L1110.08 566.43C1104.29 564.857 1098.6 563.285 1092.72 561.775L1060.02 603.758C1066.18 605.236 1072.18 606.965 1078.19 608.663ZM809.774 603.317L776.63 561.178C770.782 562.593 765.09 564.323 759.335 565.801L791.535 608.129C797.825 606.462 803.642 604.764 809.774 603.317V603.317ZM1013.19 595.141L1029.14 549.92C1022.85 549.071 1016.78 548.096 1010.52 547.436L993.634 592.594C1000.21 593.443 1006.68 594.198 1013.19 595.141V595.141Z" fill="#27043D"/>
</g>
<g style="mix-blend-mode:screen" opacity="0.2">
<path d="M1050.24 488.441C1044.8 487.717 1039.42 486.743 1033.95 486.114L1021.84 518.536C1027.53 519.196 1033.22 519.888 1038.88 520.674L1050.24 488.441ZM1025.71 516.177L1035.8 489.164C1038.26 489.478 1040.74 489.856 1043.13 490.233L1046.46 490.736L1037.03 517.592C1033.04 517.058 1029.32 516.586 1025.71 516.177ZM1102.47 497.152C1097.18 496.082 1091.96 494.887 1086.74 494.007L1068.88 525.454C1074.42 526.439 1079.94 527.488 1085.45 528.599L1102.47 497.152ZM1073.16 523.253L1088.1 497.026C1090.67 497.529 1093.28 498.095 1095.8 498.63L1098.19 499.133L1083.98 525.297C1080.39 524.605 1076.81 523.913 1073.16 523.253ZM996.779 482.937C991.213 482.529 985.71 482.025 980.144 481.742L973.855 514.636C979.641 514.951 985.427 515.297 991.182 515.705L996.779 482.937ZM977.314 512.026L982.44 484.667L990.804 485.265L993.509 485.485L988.98 512.749C985.207 512.466 981.339 512.246 977.314 512.026ZM1200.89 523.693C1196.08 522.026 1191.46 520.328 1186.46 518.756L1157.78 547.058C1162.83 548.694 1167.86 550.381 1172.87 552.121L1200.89 523.693ZM1163 545.926L1187.21 521.963C1190.1 522.907 1192.97 523.913 1195.8 524.888L1172.02 549.008C1168.88 547.907 1165.95 546.901 1163 545.926V545.926ZM1152.87 508.944C1147.81 507.561 1142.78 506.114 1137.65 504.856L1114.26 534.888C1119.6 536.209 1124.92 537.561 1130.17 539.008L1152.87 508.944ZM1119.1 533.222L1138.75 508.064L1147.02 510.297L1148.16 510.611L1129.1 535.769C1125.86 534.951 1122.56 534.071 1119.1 533.222V533.222ZM894.865 514.51L888.356 481.554C882.79 481.837 877.287 482.308 871.721 482.717L877.538 515.517C883.324 515.108 889.016 514.825 894.865 514.51V514.51ZM877.507 485.076L886.06 484.478L891.5 511.869L879.865 512.561L875.023 485.265L877.507 485.076ZM800.183 524.825L781.976 493.378C776.662 494.29 771.473 495.516 766.253 496.523L783.706 527.97C789.114 526.806 794.68 525.8 800.183 524.825V524.825ZM772.983 498.001L780.53 496.46L795.749 522.781C792.164 523.41 788.58 524.07 785.089 524.762L770.499 498.504L772.983 498.001ZM847.036 518.221L834.458 485.768C829.018 486.365 823.673 487.309 818.233 488.032L829.93 520.297C835.653 519.542 841.355 518.85 847.036 518.221V518.221ZM825.433 489.919C827.823 489.573 830.276 489.195 832.729 488.881L843.106 515.957L831.88 517.309L822.132 490.422L825.433 489.919ZM943.133 513.756L942.473 480.61H925.744L925.587 513.661H933.039L943.133 513.756ZM928.668 483.472H939.863L940.272 510.894H928.511L928.668 483.472Z" fill="#27043D"/>
</g>
<g style="mix-blend-mode:screen" opacity="0.2">
<path d="M996.779 482.937C991.213 482.529 985.71 482.025 980.144 481.742L973.855 514.636C979.641 514.951 985.427 515.297 991.182 515.705L996.779 482.937ZM977.314 512.026L982.44 484.667L990.804 485.265L993.509 485.485L988.98 512.749C985.207 512.466 981.339 512.246 977.314 512.026ZM1200.89 523.693C1196.08 522.026 1191.46 520.328 1186.46 518.756L1157.78 547.058C1162.83 548.693 1167.86 550.381 1172.87 552.121L1200.89 523.693ZM1163 545.926L1187.21 521.963C1190.1 522.907 1192.97 523.913 1195.8 524.888L1172.02 549.008C1168.88 547.907 1165.95 546.901 1163 545.926V545.926ZM1152.87 508.944C1147.81 507.561 1142.78 506.114 1137.65 504.856L1114.26 534.888C1119.6 536.209 1124.92 537.561 1130.17 539.008L1152.87 508.944ZM1119.1 533.221L1138.75 508.064L1147.02 510.296L1148.16 510.611L1129.1 535.769C1125.86 534.951 1122.56 534.071 1119.1 533.221V533.221ZM847.036 518.221L834.458 485.768C829.018 486.365 823.672 487.309 818.232 488.032L829.93 520.297C835.653 519.542 841.355 518.85 847.036 518.221V518.221ZM825.433 489.919C827.823 489.573 830.276 489.195 832.729 488.881L843.106 515.957L831.88 517.309L822.132 490.422L825.433 489.919Z" fill="#27043D"/>
</g>
<g style="mix-blend-mode:screen" opacity="0.5">
<path d="M1155.74 651.4C1111.46 626.242 1054.51 609.072 992.22 602.248L988.478 614.827C1050.49 621.651 1105.71 639.985 1147.37 665.426C1150.3 660.708 1153.16 656.086 1155.74 651.4Z" fill="#27043D"/>
</g>
<g style="mix-blend-mode:screen" opacity="0.5">
<g style="mix-blend-mode:screen" opacity="0.5">
<path d="M738.519 559.92C738.519 561.838 738.739 563.757 738.833 565.675C801.943 547.132 867.42 537.894 933.196 538.253C1026.09 538.253 1114.45 555.486 1187.49 587.248L1189.66 582.09C1115.93 550.014 1026.81 532.655 933.196 532.655C867.33 532.322 801.76 541.505 738.519 559.92Z" fill="#27043D"/>
</g>
<g style="mix-blend-mode:screen" opacity="0.5">
<path d="M738.299 549.605C738.299 550.58 738.299 551.524 738.299 552.498C801.688 534.802 867.227 525.986 933.039 526.303C1027.38 526.303 1117.43 543.347 1192.59 574.826L1193.63 572.247C1118.16 540.611 1027.85 523.504 933.039 523.504C867.234 523.201 801.702 531.984 738.299 549.605V549.605Z" fill="#27043D"/>
</g>
</g>
<g style="mix-blend-mode:screen" opacity="0.5">
<path d="M746.789 635.11C747.732 640.047 748.707 644.985 749.776 649.828C800.089 625.928 864.52 611.588 934.832 611.714C950.995 611.714 966.874 612.563 982.346 614.072L986.088 601.493C933.188 595.937 879.744 598.696 827.698 609.67C799.935 615.385 772.826 623.909 746.789 635.11V635.11Z" fill="#27043D"/>
</g>
<g style="mix-blend-mode:screen" opacity="0.5">
<path d="M756.348 675.206C801.472 649.419 863.262 633.381 931.656 632.972V617.877C862.791 618.255 799.963 633.003 751.663 657.186L752.323 659.954C800.026 636.022 861.942 621.431 928.857 620.708V630.142C862.193 630.959 800.875 646.809 755.594 672.501L756.348 675.206Z" fill="#27043D"/>
</g>
<path d="M1015.99 578.628L1085.17 615.421V568.722C1085.33 562.913 1084.07 557.152 1081.52 551.929L1051.71 495.324C1045.42 483.123 1031.4 480.953 1016.12 489.758L1015.99 578.628Z" fill="url(#paint9_linear_76_39)"/>
<path d="M859.803 578.628L790.624 615.421V568.722C790.46 562.915 791.701 557.154 794.24 551.929L824.081 495.324C830.37 483.123 844.395 480.953 859.677 489.758L859.803 578.628Z" fill="url(#paint10_linear_76_39)"/>
<path style="mix-blend-mode:screen" d="M974.61 735.864C974.61 774.953 958.164 877.376 937.882 877.376C917.6 877.376 901.185 775.079 901.185 735.864C901.185 701.461 917.631 693.159 937.882 693.159C958.133 693.159 974.61 701.524 974.61 735.864Z" fill="url(#paint11_linear_76_39)"/>
<path style="mix-blend-mode:screen" d="M972.629 735.455C972.629 773.601 957.095 874.923 937.882 874.923C918.669 874.923 903.292 773.601 903.292 735.455C903.292 701.87 918.857 693.788 937.882 693.788C956.906 693.788 972.629 701.87 972.629 735.455Z" fill="url(#paint12_linear_76_39)"/>
<path style="mix-blend-mode:screen" d="M970.774 734.983C970.774 772.217 956.089 872.565 937.976 872.565C919.864 872.565 905.21 772.217 905.21 734.983C905.21 702.216 919.864 694.322 937.976 694.322C956.089 694.322 970.774 702.216 970.774 734.983Z" fill="url(#paint13_linear_76_39)"/>
<path style="mix-blend-mode:screen" d="M968.73 734.512C968.73 770.802 954.925 870.175 937.882 870.175C920.838 870.175 907.065 770.802 907.065 734.512C907.065 702.561 920.87 694.857 937.882 694.857C954.894 694.857 968.73 702.561 968.73 734.512Z" fill="url(#paint14_linear_76_39)"/>
<path style="mix-blend-mode:screen" d="M966.749 734.04C966.749 769.387 953.825 867.785 937.882 867.785C921.939 867.785 909.015 769.387 909.015 734.04C909.015 702.907 921.939 695.392 937.882 695.392C953.825 695.392 966.749 702.907 966.749 734.04Z" fill="url(#paint15_linear_76_39)"/>
<path style="mix-blend-mode:screen" d="M964.799 733.568C964.799 768.003 952.755 865.395 937.882 865.395C923.008 865.395 910.996 767.909 910.996 733.568C910.996 703.253 923.04 695.832 937.882 695.832C952.724 695.832 964.799 703.253 964.799 733.568Z" fill="url(#paint16_linear_76_39)"/>
<path style="mix-blend-mode:screen" d="M962.849 733.065C962.849 766.588 951.655 863.036 937.882 863.036C924.109 863.036 912.946 766.588 912.946 733.065C912.946 703.568 924.109 696.461 937.882 696.461C951.655 696.461 962.849 703.568 962.849 733.065Z" fill="url(#paint17_linear_76_39)"/>
<path style="mix-blend-mode:screen" d="M960.869 732.719C960.869 765.299 950.586 860.772 937.882 860.772C925.178 860.772 914.896 765.299 914.896 732.719C914.896 704.04 925.21 697.153 937.882 697.153C950.554 697.153 960.869 703.914 960.869 732.719Z" fill="url(#paint18_linear_76_39)"/>
<path style="mix-blend-mode:screen" d="M958.919 732.122C958.919 763.789 949.485 858.256 937.882 858.256C926.279 858.256 916.876 763.915 916.876 732.122C916.876 704.259 926.31 697.53 937.882 697.53C949.454 697.53 958.919 704.417 958.919 732.122Z" fill="url(#paint19_linear_76_39)"/>
<path style="mix-blend-mode:screen" d="M956.969 731.65C956.969 762.374 948.416 855.866 937.882 855.866C927.348 855.866 918.826 762.374 918.826 731.65C918.826 704.606 927.348 698.096 937.882 698.096C948.416 698.096 956.969 704.606 956.969 731.65Z" fill="url(#paint20_linear_76_39)"/>
<path style="mix-blend-mode:screen" d="M955.051 731.178C955.051 760.959 947.41 853.508 937.945 853.508C928.48 853.508 920.838 760.959 920.838 731.178C920.838 704.951 928.511 698.63 937.945 698.63C947.378 698.63 955.051 704.951 955.051 731.178Z" fill="url(#paint21_linear_76_39)"/>
<path style="mix-blend-mode:screen" d="M953.039 730.707C953.039 759.575 946.246 851.118 937.882 851.118C929.518 851.118 922.757 759.575 922.757 730.707C922.757 705.297 929.518 699.26 937.882 699.26C946.246 699.26 953.039 705.297 953.039 730.707Z" fill="url(#paint22_linear_76_39)"/>
<path d="M970.774 681.366H905.021V690.8V691.052C905.021 701.649 919.738 710.203 937.882 710.203C956.026 710.203 970.774 701.492 970.774 690.894V690.643V681.366Z" fill="url(#paint23_linear_76_39)"/>
<path d="M1016.43 599.1H859.206V645.768C859.191 645.977 859.191 646.187 859.206 646.397C859.206 671.554 894.362 692.152 937.819 692.152C981.276 692.152 1016.43 671.68 1016.43 646.397C1016.43 646.208 1016.43 645.988 1016.43 645.768V599.1Z" fill="url(#paint24_linear_76_39)"/>
<g style="mix-blend-mode:multiply" opacity="0.5">
<path d="M1016.43 600.641H859.206V637.875C859.189 638.042 859.189 638.21 859.206 638.378C859.206 658.504 894.362 674.825 937.819 674.825C981.277 674.825 1016.43 658.504 1016.43 638.378C1016.43 638.189 1016.43 638.032 1016.43 637.875V600.641Z" fill="#C7BCD6"/>
</g>
<path d="M1060.68 444.6C1069.07 378.011 1052.89 310.645 1015.17 255.131C1013.58 252.804 1011.95 250.508 1010.27 248.244L937.945 149.091L865.621 248.244C863.902 250.466 862.266 252.762 860.715 255.131C822.989 310.642 806.8 378.007 815.182 444.6L833.672 599.226C833.672 599.509 833.672 599.761 833.672 600.044C833.672 633.598 880.368 660.8 937.976 660.8C995.584 660.8 1042.31 633.598 1042.31 600.044C1042.33 599.771 1042.33 599.498 1042.31 599.226V599.226L1060.68 444.6Z" fill="url(#paint25_linear_76_39)"/>
<path d="M1010.27 248.244L937.945 149.091L865.621 248.244C865.212 248.81 864.835 249.376 864.426 249.911C877.004 266.326 905.148 277.804 937.976 277.804C970.805 277.804 999.043 266.326 1011.56 249.911C1011.06 249.376 1010.68 248.81 1010.27 248.244Z" fill="url(#paint26_linear_76_39)"/>
<path opacity="0.3" d="M1010.27 248.244L937.945 149.091L865.621 248.244C865.212 248.81 864.835 249.376 864.426 249.911C877.004 266.326 905.148 277.804 937.976 277.804C970.805 277.804 999.043 266.326 1011.56 249.911C1011.06 249.376 1010.68 248.81 1010.27 248.244Z" fill="url(#paint27_linear_76_39)"/>
<path style="mix-blend-mode:multiply" opacity="0.5" d="M1060.68 444.6C1069.07 378.011 1052.89 310.645 1015.17 255.131C1013.58 252.804 1011.95 250.508 1010.27 248.244L937.945 149.091L865.621 248.244C863.902 250.466 862.266 252.762 860.715 255.131C822.989 310.642 806.8 378.007 815.182 444.6L833.672 599.226C833.672 599.509 833.672 599.761 833.672 600.044C833.672 633.598 880.368 660.8 937.976 660.8C995.584 660.8 1042.31 633.598 1042.31 600.044C1042.33 599.771 1042.33 599.498 1042.31 599.226V599.226L1060.68 444.6Z" fill="url(#paint28_radial_76_39)"/>
<path style="mix-blend-mode:color-dodge" opacity="0.7" d="M986.905 358.687C966.183 275.352 923.197 179.438 933.448 174.752C951.403 166.607 1026.49 260.068 1047.25 343.403C1065.49 416.77 1044.89 599.415 1025.93 604.132C1006.97 608.849 1005.17 432.053 986.905 358.687Z" fill="url(#paint29_radial_76_39)"/>
<path d="M922.096 485.67C922.096 500.104 917.128 510.325 909.015 515.262C908.795 515.419 901.248 520.199 900.997 520.325C892.601 525.042 897.852 514.35 885.274 506.96C859.457 492.117 838.704 456.141 838.704 426.644C838.704 412.021 825.213 411.927 833.484 407.052C833.704 406.895 842.917 401.863 843.106 401.738C851.502 397.209 862.948 398.027 875.62 405.354C901.248 420.197 922.096 456.173 922.096 485.67Z" fill="url(#paint30_linear_76_39)"/>
<path d="M895.213 521.677C913.225 511.204 913.129 477.432 894.998 446.245C876.867 415.058 847.567 398.266 829.555 408.739C811.543 419.212 811.639 452.984 829.77 484.171C847.901 515.358 877.201 532.15 895.213 521.677Z" fill="url(#paint31_linear_76_39)"/>
<path d="M893.237 510.29C907.915 501.709 907.763 474.138 892.898 448.708C878.034 423.279 854.084 409.621 839.406 418.202C824.728 426.783 824.88 454.354 839.745 479.783C854.609 505.213 878.559 518.871 893.237 510.29Z" fill="url(#paint32_linear_76_39)"/>
<path style="mix-blend-mode:screen" d="M896.28 474.098C896.28 492.148 883.544 499.413 867.822 490.324C852.099 481.236 839.521 459.286 839.521 441.235C839.521 423.185 852.099 415.92 867.822 425.009C883.544 434.097 896.28 455.984 896.28 474.098Z" fill="url(#paint33_linear_76_39)"/>
<path d="M873.765 504.507C852.885 492.463 836.031 463.248 836.031 439.286C836.031 428.216 839.647 420.229 845.464 415.983C835.245 417.839 828.484 427.273 828.484 442.399C828.484 466.362 845.433 495.576 866.218 507.62C877.476 514.13 887.601 514.319 894.519 509.35C887.246 510.239 879.894 508.523 873.765 504.507V504.507Z" fill="url(#paint34_linear_76_39)"/>
<path style="mix-blend-mode:color-dodge" d="M867.696 409.6C855.369 402.492 842.54 402.964 836.691 405.763C846.718 403.612 857.189 405.463 865.872 410.92C891.594 425.763 912.443 461.739 912.443 491.268C912.443 506.646 905.462 517.526 896.406 522.055C905.839 518.533 914.266 507.495 914.266 489.947C914.172 460.418 893.418 424.537 867.696 409.6Z" fill="url(#paint35_radial_76_39)"/>
<path style="mix-blend-mode:color-dodge" d="M894.047 364.221C918.952 264.156 970.522 148.965 958.196 143.399C936.624 133.619 851.722 246.735 826.817 346.768C804.805 434.82 815.277 538.407 838.075 544.068C860.872 549.728 872.13 452.273 894.047 364.221Z" fill="url(#paint36_radial_76_39)"/>
<path d="M860.715 642.372L805.749 747.625L794.648 741.053V696.492C794.738 689.654 795.906 682.872 798.107 676.397L826.66 589.132C832.792 570.263 846.093 552.904 860.715 544.477L871.406 550.923L860.715 642.372Z" fill="url(#paint37_linear_76_39)"/>
<path d="M871.689 648.913L805.654 747.625V703.065C805.756 696.225 806.934 689.443 809.145 682.97L837.666 595.704C843.955 576.836 857.13 559.477 871.752 551.018L871.689 648.913Z" fill="url(#paint38_linear_76_39)"/>
<path style="mix-blend-mode:color-dodge" d="M806.567 704.417C806.673 697.577 807.851 690.797 810.057 684.322L838.704 596.899C844.584 578.943 856.973 562.307 870.841 553.439V550.797C856.219 559.225 842.917 576.678 836.785 595.452L808.233 682.718C806.022 689.192 804.844 695.973 804.743 702.813V747.374L806.692 744.481L806.567 704.417Z" fill="url(#paint39_radial_76_39)"/>
<path d="M1015.21 642.372L1070.17 747.625L1081.3 741.053V696.492C1081.2 689.655 1080.03 682.876 1077.84 676.397L1049.39 589.132C1043.1 570.263 1029.95 552.904 1015.3 544.477L1004.64 550.923L1015.21 642.372Z" fill="url(#paint40_linear_76_39)"/>
<path d="M1004.11 648.913L1070.14 747.625V703.065C1070.05 696.226 1068.88 689.445 1066.68 682.97L1038.13 595.704C1031.84 576.836 1018.7 559.477 1004.07 551.018L1004.11 648.913Z" fill="url(#paint41_linear_76_39)"/>
<path style="mix-blend-mode:color-dodge" d="M1068.25 682.97L1039.73 595.704C1033.44 576.836 1020.27 559.477 1005.65 551.018V551.584C1020.05 562.173 1030.75 577.025 1036.24 594.037L1064.8 681.335C1067.01 687.808 1068.18 694.589 1068.29 701.429V742.311L1071.74 747.468V703.065C1071.64 696.225 1070.47 689.443 1068.25 682.97V682.97Z" fill="url(#paint42_radial_76_39)"/>
<defs>
<radialGradient id="paint0_radial_76_39" cx="0" cy="0" r="1" gradientUnits="userSpaceOnUse" gradientTransform="translate(950.039 397.032) scale(369.158 390.276)">
<stop stop-color="#627EF0"/>
<stop offset="0.25" stop-color="#4458A7"/>
<stop offset="0.52" stop-color="#273260"/>
<stop offset="0.74" stop-color="#12172C"/>
<stop offset="0.91" stop-color="#05060C"/>
<stop offset="1"/>
</radialGradient>
<radialGradient id="paint1_radial_76_39" cx="0" cy="0" r="1" gradientUnits="userSpaceOnUse" gradientTransform="translate(950.039 622.306) scale(302.221 427.452)">
<stop stop-color="#FA45C1"/>
<stop offset="0.21" stop-color="#CB389D"/>
<stop offset="0.67" stop-color="#571843"/>
<stop offset="1"/>
</radialGradient>
<radialGradient id="paint2_radial_76_39" cx="0" cy="0" r="1" gradientUnits="userSpaceOnUse" gradientTransform="translate(560.244 820.541) rotate(-4.78028) scale(276.423 90.1433)">
<stop stop-color="#43E8E1"/>
<stop offset="0.14" stop-color="#34B5B0"/>
<stop offset="0.3" stop-color="#257F7B"/>
<stop offset="0.46" stop-color="#17514F"/>
<stop offset="0.62" stop-color="#0D2E2D"/>
<stop offset="0.76" stop-color="#061514"/>
<stop offset="0.89" stop-color="#020505"/>
<stop offset="1"/>
</radialGradient>
<radialGradient id="paint3_radial_76_39" cx="0" cy="0" r="1" gradientUnits="userSpaceOnUse" gradientTransform="translate(1.02052e+06 -3.13321e+06) rotate(-64.3413) scale(17583.9 2218.28)">
<stop stop-color="#43E8E1"/>
<stop offset="0.14" stop-color="#34B5B0"/>
<stop offset="0.3" stop-color="#257F7B"/>
<stop offset="0.46" stop-color="#17514F"/>
<stop offset="0.62" stop-color="#0D2E2D"/>
<stop offset="0.76" stop-color="#061514"/>
<stop offset="0.89" stop-color="#020505"/>
<stop offset="1"/>
</radialGradient>
<radialGradient id="paint4_radial_76_39" cx="0" cy="0" r="1" gradientUnits="userSpaceOnUse" gradientTransform="translate(-4.53841e+06 -328836) rotate(174.11) scale(17583.1 2218.39)">
<stop stop-color="#43E8E1"/>
<stop offset="0.14" stop-color="#34B5B0"/>
<stop offset="0.3" stop-color="#257F7B"/>
<stop offset="0.46" stop-color="#17514F"/>
<stop offset="0.62" stop-color="#0D2E2D"/>
<stop offset="0.76" stop-color="#061514"/>
<stop offset="0.89" stop-color="#020505"/>
<stop offset="1"/>
</radialGradient>
<radialGradient id="paint5_radial_76_39" cx="0" cy="0" r="1" gradientUnits="userSpaceOnUse" gradientTransform="translate(-1.23101e+06 1.79769e+06) rotate(98.3395) scale(17584.1 2218.26)">
<stop stop-color="#43E8E1"/>
<stop offset="0.14" stop-color="#34B5B0"/>
<stop offset="0.3" stop-color="#257F7B"/>
<stop offset="0.46" stop-color="#17514F"/>
<stop offset="0.62" stop-color="#0D2E2D"/>
<stop offset="0.76" stop-color="#061514"/>
<stop offset="0.89" stop-color="#020505"/>
<stop offset="1"/>
</radialGradient>
<radialGradient id="paint6_radial_76_39" cx="0" cy="0" r="1" gradientUnits="userSpaceOnUse" gradientTransform="translate(2.35242e+06 -739617) rotate(-12.5707) scale(24765.4 5167)">
<stop stop-color="#43E8E1"/>
<stop offset="0.14" stop-color="#34B5B0"/>
<stop offset="0.3" stop-color="#257F7B"/>
<stop offset="0.46" stop-color="#17514F"/>
<stop offset="0.62" stop-color="#0D2E2D"/>
<stop offset="0.76" stop-color="#061514"/>
<stop offset="0.89" stop-color="#020505"/>
<stop offset="1"/>
</radialGradient>
<radialGradient id="paint7_radial_76_39" cx="0" cy="0" r="1" gradientUnits="userSpaceOnUse" gradientTransform="translate(-32265.9 1.44364e+06) rotate(31.8215) scale(11309.5 11314.6)">
<stop stop-color="#43E8E1"/>
<stop offset="0.14" stop-color="#34B5B0"/>
<stop offset="0.3" stop-color="#257F7B"/>
<stop offset="0.46" stop-color="#17514F"/>
<stop offset="0.62" stop-color="#0D2E2D"/>
<stop offset="0.76" stop-color="#061514"/>
<stop offset="0.89" stop-color="#020505"/>
<stop offset="1"/>
</radialGradient>
<radialGradient id="paint8_radial_76_39" cx="0" cy="0" r="1" gradientUnits="userSpaceOnUse" gradientTransform="translate(-315374 1.58653e+06) rotate(36.4416) scale(11309.6 11314.6)">
<stop stop-color="#43E8E1"/>
<stop offset="0.14" stop-color="#34B5B0"/>
<stop offset="0.3" stop-color="#257F7B"/>
<stop offset="0.46" stop-color="#17514F"/>
<stop offset="0.62" stop-color="#0D2E2D"/>
<stop offset="0.76" stop-color="#061514"/>
<stop offset="0.89" stop-color="#020505"/>
<stop offset="1"/>
</radialGradient>
<linearGradient id="paint9_linear_76_39" x1="1040.39" y1="554.822" x2="1228.78" y2="498.412" gradientUnits="userSpaceOnUse">
<stop offset="0.04" stop-color="#6B24D6"/>
<stop offset="0.29" stop-color="#7733DC"/>
<stop offset="0.79" stop-color="#975CED"/>
<stop offset="1" stop-color="#A56EF4"/>
</linearGradient>
<linearGradient id="paint10_linear_76_39" x1="11961.1" y1="24529.9" x2="6816.89" y2="23920.9" gradientUnits="userSpaceOnUse">
<stop offset="0.04" stop-color="#6B24D6"/>
<stop offset="0.29" stop-color="#7733DC"/>
<stop offset="0.79" stop-color="#975CED"/>
<stop offset="1" stop-color="#A56EF4"/>
</linearGradient>
<linearGradient id="paint11_linear_76_39" x1="937.882" y1="717.153" x2="937.882" y2="844.451" gradientUnits="userSpaceOnUse">
<stop stop-color="#F8299A"/>
<stop offset="0.1" stop-color="#C9217D"/>
<stop offset="0.23" stop-color="#94195C"/>
<stop offset="0.36" stop-color="#671140"/>
<stop offset="0.49" stop-color="#420B29"/>
<stop offset="0.62" stop-color="#250617"/>
<stop offset="0.75" stop-color="#10030A"/>
<stop offset="0.88" stop-color="#040103"/>
<stop offset="1"/>
</linearGradient>
<linearGradient id="paint12_linear_76_39" x1="937.882" y1="717.31" x2="937.882" y2="842.596" gradientUnits="userSpaceOnUse">
<stop stop-color="#F93A9B"/>
<stop offset="0.08" stop-color="#D63285"/>
<stop offset="0.22" stop-color="#9E2562"/>
<stop offset="0.36" stop-color="#6E1A44"/>
<stop offset="0.49" stop-color="#46102C"/>
<stop offset="0.63" stop-color="#270919"/>
<stop offset="0.76" stop-color="#12040B"/>
<stop offset="0.88" stop-color="#040103"/>
<stop offset="1"/>
</linearGradient>
<linearGradient id="paint13_linear_76_39" x1="937.882" y1="717.499" x2="937.882" y2="840.74" gradientUnits="userSpaceOnUse">
<stop stop-color="#F94B9C"/>
<stop offset="0.05" stop-color="#E4458F"/>
<stop offset="0.2" stop-color="#A9336A"/>
<stop offset="0.35" stop-color="#752349"/>
<stop offset="0.49" stop-color="#4B172F"/>
<stop offset="0.63" stop-color="#2A0D1B"/>
<stop offset="0.77" stop-color="#13060C"/>
<stop offset="0.89" stop-color="#050103"/>
<stop offset="1"/>
</linearGradient>
<linearGradient id="paint14_linear_76_39" x1="937.882" y1="717.656" x2="937.882" y2="838.885" gradientUnits="userSpaceOnUse">
<stop stop-color="#FA5C9E"/>
<stop offset="0.01" stop-color="#F55A9B"/>
<stop offset="0.17" stop-color="#B54373"/>
<stop offset="0.33" stop-color="#7E2E50"/>
<stop offset="0.49" stop-color="#511E33"/>
<stop offset="0.64" stop-color="#2E111D"/>
<stop offset="0.77" stop-color="#15080D"/>
<stop offset="0.9" stop-color="#050203"/>
<stop offset="1"/>
</linearGradient>
<linearGradient id="paint15_linear_76_39" x1="937.882" y1="717.813" x2="937.882" y2="836.998" gradientUnits="userSpaceOnUse">
<stop stop-color="#FB6D9F"/>
<stop offset="0.14" stop-color="#C3557C"/>
<stop offset="0.32" stop-color="#893B57"/>
<stop offset="0.48" stop-color="#582638"/>
<stop offset="0.64" stop-color="#32161F"/>
<stop offset="0.78" stop-color="#160A0E"/>
<stop offset="0.9" stop-color="#060304"/>
<stop offset="1"/>
</linearGradient>
<linearGradient id="paint16_linear_76_39" x1="937.882" y1="717.971" x2="937.882" y2="835.143" gradientUnits="userSpaceOnUse">
<stop stop-color="#FB7EA0"/>
<stop offset="0.1" stop-color="#D56B88"/>
<stop offset="0.29" stop-color="#954B5F"/>
<stop offset="0.47" stop-color="#60303D"/>
<stop offset="0.63" stop-color="#361B23"/>
<stop offset="0.78" stop-color="#190C10"/>
<stop offset="0.91" stop-color="#060304"/>
<stop offset="1"/>
</linearGradient>
<linearGradient id="paint17_linear_76_39" x1="937.882" y1="718.128" x2="937.882" y2="833.287" gradientUnits="userSpaceOnUse">
<stop stop-color="#FC8FA1"/>
<stop offset="0.05" stop-color="#EB8596"/>
<stop offset="0.25" stop-color="#A45D69"/>
<stop offset="0.45" stop-color="#6A3C44"/>
<stop offset="0.62" stop-color="#3C2226"/>
<stop offset="0.78" stop-color="#1B0F11"/>
<stop offset="0.91" stop-color="#070405"/>
<stop offset="1"/>
</linearGradient>
<linearGradient id="paint18_linear_76_39" x1="937.882" y1="718.285" x2="937.882" y2="831.432" gradientUnits="userSpaceOnUse">
<stop stop-color="#FCA0A2"/>
<stop offset="0.21" stop-color="#B67475"/>
<stop offset="0.42" stop-color="#764B4C"/>
<stop offset="0.61" stop-color="#432B2B"/>
<stop offset="0.78" stop-color="#1F1314"/>
<stop offset="0.91" stop-color="#080505"/>
<stop offset="1"/>
</linearGradient>
<linearGradient id="paint19_linear_76_39" x1="937.882" y1="718.442" x2="937.882" y2="829.577" gradientUnits="userSpaceOnUse">
<stop stop-color="#FDB1A3"/>
<stop offset="0.14" stop-color="#CF9185"/>
<stop offset="0.38" stop-color="#865E56"/>
<stop offset="0.59" stop-color="#4C3531"/>
<stop offset="0.77" stop-color="#231816"/>
<stop offset="0.91" stop-color="#090706"/>
<stop offset="1"/>
</linearGradient>
<linearGradient id="paint20_linear_76_39" x1="937.882" y1="718.6" x2="937.882" y2="827.721" gradientUnits="userSpaceOnUse">
<stop stop-color="#FEC2A5"/>
<stop offset="0.05" stop-color="#EFB69B"/>
<stop offset="0.32" stop-color="#9B7665"/>
<stop offset="0.56" stop-color="#584439"/>
<stop offset="0.76" stop-color="#291F1A"/>
<stop offset="0.91" stop-color="#0B0807"/>
<stop offset="1"/>
</linearGradient>
<linearGradient id="paint21_linear_76_39" x1="937.882" y1="718.757" x2="937.882" y2="825.834" gradientUnits="userSpaceOnUse">
<stop stop-color="#FED3A6"/>
<stop offset="0.23" stop-color="#B79877"/>
<stop offset="0.51" stop-color="#695745"/>
<stop offset="0.74" stop-color="#302820"/>
<stop offset="0.91" stop-color="#0D0B09"/>
<stop offset="1"/>
</linearGradient>
<linearGradient id="paint22_linear_76_39" x1="937.882" y1="718.914" x2="937.882" y2="823.979" gradientUnits="userSpaceOnUse">
<stop stop-color="#FFE4A7"/>
<stop offset="0.1" stop-color="#E1CA94"/>
<stop offset="0.43" stop-color="#827455"/>
<stop offset="0.71" stop-color="#3C3627"/>
<stop offset="0.9" stop-color="#110F0B"/>
<stop offset="1"/>
</linearGradient>
<linearGradient id="paint23_linear_76_39" x1="905.336" y1="695.706" x2="970.05" y2="695.706" gradientUnits="userSpaceOnUse">
<stop offset="0.02" stop-color="#45108A"/>
<stop offset="0.29" stop-color="#3D065F"/>
<stop offset="1" stop-color="#10054D"/>
</linearGradient>
<linearGradient id="paint24_linear_76_39" x1="860.086" y1="645.61" x2="1014.7" y2="645.61" gradientUnits="userSpaceOnUse">
<stop stop-color="#5C1CCC"/>
<stop offset="0.03" stop-color="#6323D0"/>
<stop offset="0.07" stop-color="#7538DA"/>
<stop offset="0.12" stop-color="#9259EA"/>
<stop offset="0.14" stop-color="#A56EF4"/>
<stop offset="0.23" stop-color="#C994FF"/>
<stop offset="0.28" stop-color="#AE7AF0"/>
<stop offset="0.38" stop-color="#7945D1"/>
<stop offset="0.54" stop-color="#4916A1"/>
<stop offset="0.62" stop-color="#4B17A4"/>
<stop offset="0.69" stop-color="#521AAF"/>
<stop offset="0.76" stop-color="#5D1EC1"/>
<stop offset="0.82" stop-color="#6B24D6"/>
<stop offset="0.94" stop-color="#5B1DBD"/>
<stop offset="1" stop-color="#531AB0"/>
</linearGradient>
<linearGradient id="paint25_linear_76_39" x1="814.239" y1="404.945" x2="1059.95" y2="404.945" gradientUnits="userSpaceOnUse">
<stop offset="0.01" stop-color="#C1A1D5"/>
<stop offset="0.04" stop-color="#C8ABDA"/>
<stop offset="0.1" stop-color="#DAC6E6"/>
<stop offset="0.18" stop-color="#F7F2F9"/>
<stop offset="0.2" stop-color="white"/>
<stop offset="0.23" stop-color="#F9F5FB"/>
<stop offset="0.29" stop-color="#E9DBF2"/>
<stop offset="0.36" stop-color="#D1B4E3"/>
<stop offset="0.43" stop-color="#B395D6"/>
<stop offset="0.49" stop-color="#9C7DCB"/>
<stop offset="0.56" stop-color="#8E6EC5"/>
<stop offset="0.61" stop-color="#8969C3"/>
<stop offset="0.76" stop-color="#9471C6"/>
<stop offset="1" stop-color="#B086CC"/>
</linearGradient>
<linearGradient id="paint26_linear_76_39" x1="890.808" y1="199.469" x2="1020.33" y2="251.949" gradientUnits="userSpaceOnUse">
<stop stop-color="#5C1CCC"/>
<stop offset="0.04" stop-color="#6323D0"/>
<stop offset="0.09" stop-color="#7538DA"/>
<stop offset="0.16" stop-color="#9259EA"/>
<stop offset="0.19" stop-color="#A56EF4"/>
<stop offset="0.34" stop-color="#7945D1"/>
<stop offset="0.44" stop-color="#6D37C7"/>
<stop offset="0.6" stop-color="#5E27BA"/>
<stop offset="0.77" stop-color="#561DB2"/>
<stop offset="1" stop-color="#531AB0"/>
</linearGradient>
<linearGradient id="paint27_linear_76_39" x1="31855" y1="8039.22" x2="24465.8" y2="12175.2" gradientUnits="userSpaceOnUse">
<stop stop-color="#5C1CCC"/>
<stop offset="0.04" stop-color="#6323D0"/>
<stop offset="0.09" stop-color="#7538DA"/>
<stop offset="0.16" stop-color="#9259EA"/>
<stop offset="0.19" stop-color="#A56EF4"/>
<stop offset="0.34" stop-color="#7945D1"/>
<stop offset="0.44" stop-color="#6D37C7"/>
<stop offset="0.6" stop-color="#5E27BA"/>
<stop offset="0.77" stop-color="#561DB2"/>
<stop offset="1" stop-color="#531AB0"/>
</linearGradient>
<radialGradient id="paint28_radial_76_39" cx="0" cy="0" r="1" gradientUnits="userSpaceOnUse" gradientTransform="translate(937.882 404.97) scale(174.364 278.999)">
<stop offset="0.53" stop-color="white"/>
<stop offset="0.6" stop-color="#FBFAFD"/>
<stop offset="0.68" stop-color="#EFECF6"/>
<stop offset="0.76" stop-color="#DCD5EA"/>
<stop offset="0.85" stop-color="#C0B4DA"/>
<stop offset="0.95" stop-color="#9E8BC5"/>
<stop offset="1" stop-color="#8770B8"/>
</radialGradient>
<radialGradient id="paint29_radial_76_39" cx="0" cy="0" r="1" gradientUnits="userSpaceOnUse" gradientTransform="translate(1134.08 693.141) rotate(164.744) scale(47.5486 208.31)">
<stop stop-color="#972A74"/>
<stop offset="0.02" stop-color="#8C276C"/>
<stop offset="0.11" stop-color="#671D4F"/>
<stop offset="0.21" stop-color="#471437"/>
<stop offset="0.32" stop-color="#2D0D23"/>
<stop offset="0.43" stop-color="#190713"/>
<stop offset="0.57" stop-color="#0B0308"/>
<stop offset="0.73" stop-color="#020102"/>
<stop offset="1"/>
</radialGradient>
<linearGradient id="paint30_linear_76_39" x1="15770.4" y1="15923.9" x2="18682" y2="19680.4" gradientUnits="userSpaceOnUse">
<stop stop-color="#5C1CCC"/>
<stop offset="0.03" stop-color="#6323D0"/>
<stop offset="0.07" stop-color="#7538DA"/>
<stop offset="0.12" stop-color="#9259EA"/>
<stop offset="0.14" stop-color="#A56EF4"/>
<stop offset="0.23" stop-color="#C994FF"/>
<stop offset="0.28" stop-color="#AE7AF0"/>
<stop offset="0.38" stop-color="#7945D1"/>
<stop offset="0.54" stop-color="#4916A1"/>
<stop offset="0.62" stop-color="#4B17A4"/>
<stop offset="0.69" stop-color="#521AAF"/>
<stop offset="0.76" stop-color="#5D1EC1"/>
<stop offset="0.82" stop-color="#6B24D6"/>
<stop offset="0.94" stop-color="#5B1DBD"/>
<stop offset="1" stop-color="#531AB0"/>
</linearGradient>
<linearGradient id="paint31_linear_76_39" x1="816.055" y1="465.083" x2="908.741" y2="465.304" gradientUnits="userSpaceOnUse">
<stop offset="0.04" stop-color="#A56EF4"/>
<stop offset="0.36" stop-color="#C994FF"/>
<stop offset="0.54" stop-color="#B379F5"/>
<stop offset="0.91" stop-color="#7935DC"/>
<stop offset="1" stop-color="#6B24D6"/>
</linearGradient>
<linearGradient id="paint32_linear_76_39" x1="892.073" y1="508.855" x2="839.115" y2="417.126" gradientUnits="userSpaceOnUse">
<stop offset="0.04" stop-color="#138BBD"/>
<stop offset="0.23" stop-color="#169AC7"/>
<stop offset="0.59" stop-color="#1FC3DF"/>
<stop offset="1" stop-color="#2AF6FF"/>
</linearGradient>
<linearGradient id="paint33_linear_76_39" x1="9814.22" y1="9953.25" x2="10979.2" y2="11087.7" gradientUnits="userSpaceOnUse">
<stop stop-color="white"/>
<stop offset="1"/>
</linearGradient>
<linearGradient id="paint34_linear_76_39" x1="882.067" y1="516.237" x2="829.391" y2="424.98" gradientUnits="userSpaceOnUse">
<stop stop-color="#5C1CCC"/>
<stop offset="0.23" stop-color="#BA85FF"/>
<stop offset="0.38" stop-color="#7945D1"/>
<stop offset="0.54" stop-color="#4916A1"/>
<stop offset="0.61" stop-color="#4B17A4"/>
<stop offset="0.68" stop-color="#521AAF"/>
<stop offset="0.74" stop-color="#5D1EC1"/>
<stop offset="0.79" stop-color="#6B24D6"/>
<stop offset="0.93" stop-color="#5B1DBD"/>
<stop offset="1" stop-color="#531AB0"/>
</linearGradient>
<radialGradient id="paint35_radial_76_39" cx="0" cy="0" r="1" gradientUnits="userSpaceOnUse" gradientTransform="translate(14233.2 17803.9) scale(1233.45 1879.36)">
<stop stop-color="white"/>
<stop offset="1"/>
</radialGradient>
<radialGradient id="paint36_radial_76_39" cx="0" cy="0" r="1" gradientUnits="userSpaceOnUse" gradientTransform="translate(344879 -3.3739e+06) rotate(15.256) scale(2062.41 24951.2)">
<stop stop-color="#972A74"/>
<stop offset="0.02" stop-color="#8C276C"/>
<stop offset="0.11" stop-color="#671D4F"/>
<stop offset="0.21" stop-color="#471437"/>
<stop offset="0.32" stop-color="#2D0D23"/>
<stop offset="0.43" stop-color="#190713"/>
<stop offset="0.57" stop-color="#0B0308"/>
<stop offset="0.73" stop-color="#020102"/>
<stop offset="1"/>
</radialGradient>
<linearGradient id="paint37_linear_76_39" x1="807.667" y1="725.518" x2="871.759" y2="529.321" gradientUnits="userSpaceOnUse">
<stop offset="0.2" stop-color="#7734DC"/>
<stop offset="0.39" stop-color="#8C4FE7"/>
<stop offset="0.59" stop-color="#A56EF4"/>
<stop offset="0.67" stop-color="#BA8AFF"/>
<stop offset="0.8" stop-color="#A067F1"/>
<stop offset="1" stop-color="#9155EA"/>
</linearGradient>
<linearGradient id="paint38_linear_76_39" x1="10762" y1="41756.1" x2="15752.2" y2="41253.9" gradientUnits="userSpaceOnUse">
<stop offset="0.04" stop-color="#6B24D6"/>
<stop offset="0.29" stop-color="#7733DC"/>
<stop offset="0.79" stop-color="#975CED"/>
<stop offset="1" stop-color="#A56EF4"/>
</linearGradient>
<radialGradient id="paint39_radial_76_39" cx="0" cy="0" r="1" gradientUnits="userSpaceOnUse" gradientTransform="translate(-17240.3 -71319.3) scale(1542.45 4587.27)">
<stop stop-color="white"/>
<stop offset="1"/>
</radialGradient>
<linearGradient id="paint40_linear_76_39" x1="1048.38" y1="663.441" x2="1013.41" y2="560.013" gradientUnits="userSpaceOnUse">
<stop offset="0.04" stop-color="#6B24D6"/>
<stop offset="0.19" stop-color="#7733DC"/>
<stop offset="0.2" stop-color="#7734DC"/>
<stop offset="0.39" stop-color="#8C4FE7"/>
<stop offset="0.59" stop-color="#A56EF4"/>
<stop offset="0.67" stop-color="#BA8AFF"/>
<stop offset="0.8" stop-color="#A067F1"/>
<stop offset="1" stop-color="#9155EA"/>
</linearGradient>
<linearGradient id="paint41_linear_76_39" x1="10447.5" y1="43502" x2="2910.46" y2="42934.2" gradientUnits="userSpaceOnUse">
<stop offset="0.04" stop-color="#6B24D6"/>
<stop offset="0.29" stop-color="#7733DC"/>
<stop offset="0.79" stop-color="#975CED"/>
<stop offset="1" stop-color="#A56EF4"/>
</linearGradient>
<radialGradient id="paint42_radial_76_39" cx="0" cy="0" r="1" gradientUnits="userSpaceOnUse" gradientTransform="translate(15144.7 39324.5) scale(1541.41 4581.23)">
<stop stop-color="white"/>
<stop offset="1"/>
</radialGradient>
</defs>
</svg>
