<svg width="446" height="333" viewBox="0 0 446 333" fill="none" xmlns="http://www.w3.org/2000/svg">
<mask id="path-1-inside-1_41_308" fill="white">
<path d="M333.014 333C245.309 333 162.041 297.993 98.5098 234.605C34.9783 171.218 0 87.6619 0 0.0144348C0 -33.9555 3.31343 -82.879 32.2123 -115.408C43.7373 -128.518 57.5961 -139.035 70.9075 -149.205C86.6103 -161.22 102.86 -173.638 115.682 -190.378C125.104 -202.681 133.114 -215.503 140.864 -227.835C158.469 -255.84 174.863 -282.261 205.721 -301.566C238.942 -322.311 281.757 -333 333.014 -333H333.648C420.979 -333 503.93 -298.223 567.26 -235.038C630.59 -171.852 666 -88.0941 666 -0.0144043C666 88.0653 630.993 171.045 567.605 234.605C504.218 298.166 420.662 333 333.014 333ZM333.648 -330.954H333.014C282.132 -330.954 239.691 -320.38 206.816 -299.837C176.332 -280.763 159.938 -254.544 142.593 -226.797C134.814 -214.379 126.775 -201.529 117.296 -189.139C104.301 -172.169 87.9644 -159.664 72.0312 -147.592C58.9215 -137.479 45.2356 -127.02 33.7394 -114.025C5.30149 -82.0435 2.04568 -33.6097 2.04568 0.0144348C2.04568 179.401 153.657 330.983 333.014 330.983C512.372 330.983 663.954 179.401 663.954 0.0144348C663.954 -87.4314 629.12 -170.382 565.819 -233.539C502.518 -296.696 420.431 -330.954 333.648 -330.954Z"/>
</mask>
<path d="M333.014 333C245.309 333 162.041 297.993 98.5098 234.605C34.9783 171.218 0 87.6619 0 0.0144348C0 -33.9555 3.31343 -82.879 32.2123 -115.408C43.7373 -128.518 57.5961 -139.035 70.9075 -149.205C86.6103 -161.22 102.86 -173.638 115.682 -190.378C125.104 -202.681 133.114 -215.503 140.864 -227.835C158.469 -255.84 174.863 -282.261 205.721 -301.566C238.942 -322.311 281.757 -333 333.014 -333H333.648C420.979 -333 503.93 -298.223 567.26 -235.038C630.59 -171.852 666 -88.0941 666 -0.0144043C666 88.0653 630.993 171.045 567.605 234.605C504.218 298.166 420.662 333 333.014 333ZM333.648 -330.954H333.014C282.132 -330.954 239.691 -320.38 206.816 -299.837C176.332 -280.763 159.938 -254.544 142.593 -226.797C134.814 -214.379 126.775 -201.529 117.296 -189.139C104.301 -172.169 87.9644 -159.664 72.0312 -147.592C58.9215 -137.479 45.2356 -127.02 33.7394 -114.025C5.30149 -82.0435 2.04568 -33.6097 2.04568 0.0144348C2.04568 179.401 153.657 330.983 333.014 330.983C512.372 330.983 663.954 179.401 663.954 0.0144348C663.954 -87.4314 629.12 -170.382 565.819 -233.539C502.518 -296.696 420.431 -330.954 333.648 -330.954Z" fill="url(#paint0_linear_41_308)" stroke="url(#paint1_linear_41_308)" stroke-width="2" mask="url(#path-1-inside-1_41_308)"/>
<mask id="path-2-inside-2_41_308" fill="white">
<path d="M333.014 304.245C250.956 304.245 166.565 266.789 107.268 203.69C54.5705 147.736 27.8901 78.2979 32.0968 8.19717C34.978 -38.9688 62.9261 -62.8255 92.6029 -88.0941C111.994 -104.632 132.076 -121.776 145.618 -146.353C150.746 -155.63 155.414 -164.937 160.024 -173.926C175.727 -205.015 190.565 -234.433 219.839 -258.433C252.224 -285.056 292.1 -294.679 333.504 -302.977C410.635 -318.392 473.216 -283.615 512.141 -251.72C550.258 -219.825 581.206 -180.237 602.958 -135.548C625.489 -89.9957 637.389 -43.1178 637.389 0.0144348C637.389 80.1419 605.436 156.236 547.408 214.264C489.379 272.292 413.142 304.245 333.014 304.245ZM371.104 -304.879C358.525 -304.881 345.978 -303.626 333.648 -301.133C292.504 -292.922 252.973 -283.327 220.818 -256.993C192.006 -233.165 177.11 -203.978 161.494 -173.062C156.941 -164.073 152.245 -154.766 147.087 -145.46C133.488 -120.566 113.29 -103.336 93.7554 -86.6534C64.4243 -61.673 36.7644 -38.0756 33.9696 8.42767C29.7918 78.0098 56.2992 146.929 108.623 202.537C167.573 265.118 251.446 302.488 333.014 302.488C412.623 302.488 488.256 270.794 545.938 213.169C603.621 155.544 635.257 79.8538 635.257 0.244965C635.257 -86.9992 584.057 -189.917 510.701 -250.049C478.719 -276.585 430.4 -304.879 371.104 -304.879Z"/>
</mask>
<path d="M333.014 304.245C250.956 304.245 166.565 266.789 107.268 203.69C54.5705 147.736 27.8901 78.2979 32.0968 8.19717C34.978 -38.9688 62.9261 -62.8255 92.6029 -88.0941C111.994 -104.632 132.076 -121.776 145.618 -146.353C150.746 -155.63 155.414 -164.937 160.024 -173.926C175.727 -205.015 190.565 -234.433 219.839 -258.433C252.224 -285.056 292.1 -294.679 333.504 -302.977C410.635 -318.392 473.216 -283.615 512.141 -251.72C550.258 -219.825 581.206 -180.237 602.958 -135.548C625.489 -89.9957 637.389 -43.1178 637.389 0.0144348C637.389 80.1419 605.436 156.236 547.408 214.264C489.379 272.292 413.142 304.245 333.014 304.245ZM371.104 -304.879C358.525 -304.881 345.978 -303.626 333.648 -301.133C292.504 -292.922 252.973 -283.327 220.818 -256.993C192.006 -233.165 177.11 -203.978 161.494 -173.062C156.941 -164.073 152.245 -154.766 147.087 -145.46C133.488 -120.566 113.29 -103.336 93.7554 -86.6534C64.4243 -61.673 36.7644 -38.0756 33.9696 8.42767C29.7918 78.0098 56.2992 146.929 108.623 202.537C167.573 265.118 251.446 302.488 333.014 302.488C412.623 302.488 488.256 270.794 545.938 213.169C603.621 155.544 635.257 79.8538 635.257 0.244965C635.257 -86.9992 584.057 -189.917 510.701 -250.049C478.719 -276.585 430.4 -304.879 371.104 -304.879Z" fill="url(#paint2_linear_41_308)" stroke="url(#paint3_linear_41_308)" stroke-width="2" mask="url(#path-2-inside-2_41_308)"/>
<mask id="path-3-inside-3_41_308" fill="white">
<path d="M334.541 275.49H332.985C254.385 274.943 156.163 225.674 104.503 160.702C70.5903 118.059 58.0569 71.5847 68.2854 26.3203C73.6733 2.40598 88.2812 -7.15976 106.779 -19.2898L113.579 -23.7845C145.272 -45.1634 159.851 -69.8845 174.085 -105.698C188.059 -140.619 206.412 -180.294 236.608 -209.423C255.048 -227.229 278.04 -239.59 300.283 -251.518C311.808 -257.626 323.506 -263.965 334.484 -270.938C364.42 -289.925 399.946 -288.485 440.11 -266.645C467.021 -252.094 495.574 -228.699 527.556 -195.19C579.735 -140.446 608.49 -71.1234 608.49 0.0145569C608.49 71.1525 578.323 142.406 525.77 194.758C473.216 247.11 405.506 275.49 334.541 275.49ZM379.806 -282.52C364.069 -282.599 348.647 -278.115 335.406 -269.612C324.371 -262.611 312.557 -256.272 301.119 -250.135C278.962 -238.264 256.085 -225.962 237.731 -208.328C207.853 -179.285 189.586 -139.956 175.756 -105.064C161.35 -69.0777 146.655 -44.0109 114.501 -22.4015L107.701 -17.878C89.5201 -5.97842 75.1715 3.44324 69.9277 26.6661C59.8433 71.4406 72.2327 117.397 105.828 159.636C157.201 224.262 254.846 273.358 333.014 273.791C404.066 274.252 472.121 245.727 524.559 193.577C576.998 141.426 606.79 71.0661 606.79 0.0145569C606.79 -71.037 578.208 -139.582 526.346 -194.037C494.508 -227.402 466.041 -250.711 439.332 -265.233C418.126 -276.758 398.217 -282.52 379.806 -282.52Z"/>
</mask>
<path d="M334.541 275.49H332.985C254.385 274.943 156.163 225.674 104.503 160.702C70.5903 118.059 58.0569 71.5847 68.2854 26.3203C73.6733 2.40598 88.2812 -7.15976 106.779 -19.2898L113.579 -23.7845C145.272 -45.1634 159.851 -69.8845 174.085 -105.698C188.059 -140.619 206.412 -180.294 236.608 -209.423C255.048 -227.229 278.04 -239.59 300.283 -251.518C311.808 -257.626 323.506 -263.965 334.484 -270.938C364.42 -289.925 399.946 -288.485 440.11 -266.645C467.021 -252.094 495.574 -228.699 527.556 -195.19C579.735 -140.446 608.49 -71.1234 608.49 0.0145569C608.49 71.1525 578.323 142.406 525.77 194.758C473.216 247.11 405.506 275.49 334.541 275.49ZM379.806 -282.52C364.069 -282.599 348.647 -278.115 335.406 -269.612C324.371 -262.611 312.557 -256.272 301.119 -250.135C278.962 -238.264 256.085 -225.962 237.731 -208.328C207.853 -179.285 189.586 -139.956 175.756 -105.064C161.35 -69.0777 146.655 -44.0109 114.501 -22.4015L107.701 -17.878C89.5201 -5.97842 75.1715 3.44324 69.9277 26.6661C59.8433 71.4406 72.2327 117.397 105.828 159.636C157.201 224.262 254.846 273.358 333.014 273.791C404.066 274.252 472.121 245.727 524.559 193.577C576.998 141.426 606.79 71.0661 606.79 0.0145569C606.79 -71.037 578.208 -139.582 526.346 -194.037C494.508 -227.402 466.041 -250.711 439.332 -265.233C418.126 -276.758 398.217 -282.52 379.806 -282.52Z" fill="url(#paint4_linear_41_308)" stroke="url(#paint5_linear_41_308)" stroke-width="2" mask="url(#path-3-inside-3_41_308)"/>
<mask id="path-4-inside-4_41_308" fill="white">
<path d="M332.755 246.736C267.482 246.187 204.981 220.273 158.469 174.474C150.055 166.061 77.0446 90.9179 105.338 46.5467C112.081 36.0013 122.626 31.5066 133.834 26.7238C140.184 24.2737 146.282 21.2149 152.043 17.5902C173.797 3.18396 183.363 -22.4015 192.611 -47.0073C195.493 -54.8155 198.547 -62.883 201.889 -70.259C214.278 -97.7461 232.056 -132.926 259.514 -161.105C269.368 -171.16 279.279 -179.516 288.845 -187.583C306.132 -202.162 322.498 -215.906 336.097 -237.688C346.326 -254.054 359.58 -263.043 375.542 -264.397C407.812 -267.279 452.068 -238.264 503.498 -180.841C553.948 -124.426 579.563 -63.6033 579.563 -0.0142212C579.563 64.2376 553.372 125.752 505.86 173.177C459.127 219.825 396.056 246.62 332.986 246.707L332.755 246.736ZM380.065 -263.072C378.625 -263.072 377.213 -263.014 375.83 -262.899C360.386 -261.574 347.507 -252.815 337.567 -236.968C323.823 -215.013 307.4 -201.154 289.997 -186.517C280.461 -178.479 270.578 -170.152 260.782 -160.125C239.403 -138.285 221.683 -110.395 203.358 -69.7116C200.045 -62.3932 197.164 -54.7003 194.11 -46.6616C184.774 -21.8253 175.122 3.87546 152.965 18.6851C147.119 22.3405 140.945 25.4464 134.525 27.9627C123.548 32.9184 113.175 37.2115 106.606 47.3246C84.1325 82.5623 129.282 143.126 159.506 173.35C205.721 218.833 267.801 244.578 332.64 245.151H332.899C465.811 245.007 578.093 132.782 578.093 -0.0430298C578.093 -63.2288 552.623 -123.735 502.432 -179.833C453.652 -234.404 411.442 -263.072 380.065 -263.072Z"/>
</mask>
<path d="M332.755 246.736C267.482 246.187 204.981 220.273 158.469 174.474C150.055 166.061 77.0446 90.9179 105.338 46.5467C112.081 36.0013 122.626 31.5066 133.834 26.7238C140.184 24.2737 146.282 21.2149 152.043 17.5902C173.797 3.18396 183.363 -22.4015 192.611 -47.0073C195.493 -54.8155 198.547 -62.883 201.889 -70.259C214.278 -97.7461 232.056 -132.926 259.514 -161.105C269.368 -171.16 279.279 -179.516 288.845 -187.583C306.132 -202.162 322.498 -215.906 336.097 -237.688C346.326 -254.054 359.58 -263.043 375.542 -264.397C407.812 -267.279 452.068 -238.264 503.498 -180.841C553.948 -124.426 579.563 -63.6033 579.563 -0.0142212C579.563 64.2376 553.372 125.752 505.86 173.177C459.127 219.825 396.056 246.62 332.986 246.707L332.755 246.736ZM380.065 -263.072C378.625 -263.072 377.213 -263.014 375.83 -262.899C360.386 -261.574 347.507 -252.815 337.567 -236.968C323.823 -215.013 307.4 -201.154 289.997 -186.517C280.461 -178.479 270.578 -170.152 260.782 -160.125C239.403 -138.285 221.683 -110.395 203.358 -69.7116C200.045 -62.3932 197.164 -54.7003 194.11 -46.6616C184.774 -21.8253 175.122 3.87546 152.965 18.6851C147.119 22.3405 140.945 25.4464 134.525 27.9627C123.548 32.9184 113.175 37.2115 106.606 47.3246C84.1325 82.5623 129.282 143.126 159.506 173.35C205.721 218.833 267.801 244.578 332.64 245.151H332.899C465.811 245.007 578.093 132.782 578.093 -0.0430298C578.093 -63.2288 552.623 -123.735 502.432 -179.833C453.652 -234.404 411.442 -263.072 380.065 -263.072Z" fill="url(#paint6_linear_41_308)" stroke="url(#paint7_linear_41_308)" stroke-width="2" mask="url(#path-4-inside-4_41_308)"/>
<mask id="path-5-inside-5_41_308" fill="white">
<path d="M337.106 218.009H332.87C272.681 216.598 219.464 194.469 178.954 153.959C178.435 153.441 126.4 101.002 130.895 73.7165C131.304 71.0202 132.387 68.4709 134.044 66.305C135.701 64.1392 137.879 62.4269 140.374 61.3271C186.82 38.2772 202.523 10.4155 228.511 -35.8861L229.808 -38.1911C243.379 -62.3071 260.292 -90.0535 282.852 -113.478C313.739 -145.431 327.425 -162.459 338.345 -203.863C344.654 -227.691 355.171 -241.319 369.635 -244.776C394.212 -250.395 429.882 -226.135 475.694 -172.745C525.827 -114.227 550.433 -57.7548 550.836 -0.0434265C551.269 56.3426 527.009 112.815 484.308 154.852C443.539 195.161 390.092 218.009 337.106 218.009ZM377.04 -244.258C374.695 -244.262 372.357 -244.011 370.067 -243.509C356.122 -240.311 345.922 -226.884 339.756 -203.575C328.75 -161.941 315.006 -144.711 283.918 -112.585C261.473 -89.3332 244.618 -61.6156 231.105 -37.6725L229.808 -35.3675C203.675 11.1646 187.886 39.2568 141.094 62.3932C138.803 63.4353 136.81 65.0371 135.3 67.051C133.789 69.065 132.81 71.4264 132.451 73.9182C128.071 100.541 179.646 152.461 180.164 152.98C220.502 193.317 273.344 215.243 333.158 216.626C387.095 217.865 441.897 195.017 483.646 153.959C526.087 112.181 550.174 55.9968 549.77 0.0142212C549.338 -57.3514 524.876 -113.565 474.858 -171.823C433.57 -219.94 400.724 -244.258 377.04 -244.258Z"/>
</mask>
<path d="M337.106 218.009H332.87C272.681 216.598 219.464 194.469 178.954 153.959C178.435 153.441 126.4 101.002 130.895 73.7165C131.304 71.0202 132.387 68.4709 134.044 66.305C135.701 64.1392 137.879 62.4269 140.374 61.3271C186.82 38.2772 202.523 10.4155 228.511 -35.8861L229.808 -38.1911C243.379 -62.3071 260.292 -90.0535 282.852 -113.478C313.739 -145.431 327.425 -162.459 338.345 -203.863C344.654 -227.691 355.171 -241.319 369.635 -244.776C394.212 -250.395 429.882 -226.135 475.694 -172.745C525.827 -114.227 550.433 -57.7548 550.836 -0.0434265C551.269 56.3426 527.009 112.815 484.308 154.852C443.539 195.161 390.092 218.009 337.106 218.009ZM377.04 -244.258C374.695 -244.262 372.357 -244.011 370.067 -243.509C356.122 -240.311 345.922 -226.884 339.756 -203.575C328.75 -161.941 315.006 -144.711 283.918 -112.585C261.473 -89.3332 244.618 -61.6156 231.105 -37.6725L229.808 -35.3675C203.675 11.1646 187.886 39.2568 141.094 62.3932C138.803 63.4353 136.81 65.0371 135.3 67.051C133.789 69.065 132.81 71.4264 132.451 73.9182C128.071 100.541 179.646 152.461 180.164 152.98C220.502 193.317 273.344 215.243 333.158 216.626C387.095 217.865 441.897 195.017 483.646 153.959C526.087 112.181 550.174 55.9968 549.77 0.0142212C549.338 -57.3514 524.876 -113.565 474.858 -171.823C433.57 -219.94 400.724 -244.258 377.04 -244.258Z" stroke="url(#paint8_linear_41_308)" stroke-width="2" mask="url(#path-5-inside-5_41_308)"/>
<mask id="path-6-inside-6_41_308" fill="white">
<path d="M337.884 189.284C336.242 189.284 334.599 189.284 332.986 189.284C279.683 187.641 234.735 168.913 199.44 133.647C192.583 126.789 158.526 91.6381 162.33 73.4863C162.797 71.3825 163.81 69.4389 165.266 67.8507C166.723 66.2626 168.572 65.086 170.628 64.4391C207.392 50.0329 234.966 18.5409 257.065 -10.4733C265.709 -21.6813 275.447 -32.3131 284.955 -42.5703C294.464 -52.8276 304.26 -63.4306 312.615 -74.4657C334.138 -102.817 336.789 -130.045 340.102 -164.533L340.679 -170.296C340.996 -173.581 341.226 -177.269 341.457 -181.187C342.753 -203.027 344.568 -233.05 368.627 -232.473C393.233 -232.156 426.425 -191.819 442.473 -172.543C443.626 -171.189 444.663 -169.921 445.614 -168.769C496.641 -107.658 521.563 -52.6835 521.765 -0.73465C521.967 49.6295 500.386 99.6191 462.527 136.441C427.836 170.181 382.658 189.284 337.884 189.284ZM368.108 -231.378C345.606 -231.378 343.963 -203.574 342.609 -181.187C342.379 -177.269 342.148 -173.552 341.831 -170.238L341.284 -164.476C337.913 -129.901 335.262 -102.443 313.537 -73.8031C305.153 -62.7391 295.328 -52.1361 285.82 -41.85C276.312 -31.564 266.515 -20.9898 257.987 -9.83937C235.801 19.29 208.084 50.9837 171.06 65.4476C169.187 66.0271 167.499 67.0878 166.164 68.5237C164.83 69.9595 163.895 71.7203 163.453 73.6303C159.794 91.2059 193.476 125.954 200.276 132.725C235.34 167.789 280.028 186.402 333.015 188.045C379.115 189.456 425.992 170.354 461.72 135.606C499.349 98.9853 520.814 49.3126 520.613 -0.705826C520.411 -52.3954 495.574 -107.139 444.721 -168.049L441.58 -171.823C425.704 -191.012 392.599 -230.946 368.598 -231.378H368.108Z"/>
</mask>
<path d="M337.884 189.284C336.242 189.284 334.599 189.284 332.986 189.284C279.683 187.641 234.735 168.913 199.44 133.647C192.583 126.789 158.526 91.6381 162.33 73.4863C162.797 71.3825 163.81 69.4389 165.266 67.8507C166.723 66.2626 168.572 65.086 170.628 64.4391C207.392 50.0329 234.966 18.5409 257.065 -10.4733C265.709 -21.6813 275.447 -32.3131 284.955 -42.5703C294.464 -52.8276 304.26 -63.4306 312.615 -74.4657C334.138 -102.817 336.789 -130.045 340.102 -164.533L340.679 -170.296C340.996 -173.581 341.226 -177.269 341.457 -181.187C342.753 -203.027 344.568 -233.05 368.627 -232.473C393.233 -232.156 426.425 -191.819 442.473 -172.543C443.626 -171.189 444.663 -169.921 445.614 -168.769C496.641 -107.658 521.563 -52.6835 521.765 -0.73465C521.967 49.6295 500.386 99.6191 462.527 136.441C427.836 170.181 382.658 189.284 337.884 189.284ZM368.108 -231.378C345.606 -231.378 343.963 -203.574 342.609 -181.187C342.379 -177.269 342.148 -173.552 341.831 -170.238L341.284 -164.476C337.913 -129.901 335.262 -102.443 313.537 -73.8031C305.153 -62.7391 295.328 -52.1361 285.82 -41.85C276.312 -31.564 266.515 -20.9898 257.987 -9.83937C235.801 19.29 208.084 50.9837 171.06 65.4476C169.187 66.0271 167.499 67.0878 166.164 68.5237C164.83 69.9595 163.895 71.7203 163.453 73.6303C159.794 91.2059 193.476 125.954 200.276 132.725C235.34 167.789 280.028 186.402 333.015 188.045C379.115 189.456 425.992 170.354 461.72 135.606C499.349 98.9853 520.814 49.3126 520.613 -0.705826C520.411 -52.3954 495.574 -107.139 444.721 -168.049L441.58 -171.823C425.704 -191.012 392.599 -230.946 368.598 -231.378H368.108Z" stroke="url(#paint9_linear_41_308)" stroke-width="2" mask="url(#path-6-inside-6_41_308)"/>
<mask id="path-7-inside-7_41_308" fill="white">
<path d="M338.604 160.558C336.731 160.558 334.859 160.558 332.842 160.558C288.125 158.627 248.825 142.406 219.551 113.593L218.975 112.729C211.772 105.641 189.845 83.9164 192.756 71.4406C193.303 69.5607 194.347 67.8627 195.776 66.5245C197.206 65.1863 198.969 64.257 200.881 63.8341C228.858 54.5565 254.76 38.047 282.391 11.9717C287.232 7.39052 293.052 2.69409 299.218 -2.43452C310.454 -11.4816 322.066 -20.8457 328.866 -30.5267C346.153 -55.1613 344.655 -89.5922 343.272 -119.845C343.012 -126.011 342.753 -131.831 342.638 -137.507C342.638 -139.755 342.35 -143.27 342.033 -147.39C340.506 -168.308 337.625 -207.291 352.982 -213.659C369.981 -220.602 402.597 -180.726 413.488 -167.559L415.332 -165.311C447.025 -127.337 485.461 -69.1642 488.976 -7.76485C490.194 14.953 486.653 37.6747 478.581 58.9448C470.508 80.215 458.082 99.5645 442.099 115.754C413.286 144.74 376.809 160.558 338.604 160.558ZM357.275 -213.486C355.912 -213.51 354.559 -213.256 353.299 -212.737C338.633 -206.772 341.485 -168.25 343.012 -147.563C343.329 -143.299 343.56 -139.928 343.618 -137.623C343.618 -131.86 343.963 -126.098 344.223 -119.989C345.548 -89.477 347.104 -54.8732 329.586 -29.9792C322.7 -20.183 311.031 -10.7613 299.736 -1.6566C293.599 3.29915 287.779 7.99557 282.967 12.5479C255.221 38.8537 229.203 55.4497 201.111 64.7561C199.36 65.1297 197.742 65.9694 196.428 67.1866C195.115 68.4037 194.154 69.9532 193.649 71.6711C190.767 83.7147 212.463 105.036 219.58 112.009L220.3 112.729C249.401 141.541 288.384 157.619 333.072 159.434C373.035 161.047 411.442 145.258 441.234 114.976C457.119 98.8776 469.468 79.6399 477.49 58.4944C485.513 37.3489 489.033 14.7614 487.824 -7.82246C484.309 -68.9337 445.959 -126.904 414.41 -164.764L412.537 -167.011C387.211 -197.898 368.8 -213.486 357.275 -213.486Z"/>
</mask>
<path d="M338.604 160.558C336.731 160.558 334.859 160.558 332.842 160.558C288.125 158.627 248.825 142.406 219.551 113.593L218.975 112.729C211.772 105.641 189.845 83.9164 192.756 71.4406C193.303 69.5607 194.347 67.8627 195.776 66.5245C197.206 65.1863 198.969 64.257 200.881 63.8341C228.858 54.5565 254.76 38.047 282.391 11.9717C287.232 7.39052 293.052 2.69409 299.218 -2.43452C310.454 -11.4816 322.066 -20.8457 328.866 -30.5267C346.153 -55.1613 344.655 -89.5922 343.272 -119.845C343.012 -126.011 342.753 -131.831 342.638 -137.507C342.638 -139.755 342.35 -143.27 342.033 -147.39C340.506 -168.308 337.625 -207.291 352.982 -213.659C369.981 -220.602 402.597 -180.726 413.488 -167.559L415.332 -165.311C447.025 -127.337 485.461 -69.1642 488.976 -7.76485C490.194 14.953 486.653 37.6747 478.581 58.9448C470.508 80.215 458.082 99.5645 442.099 115.754C413.286 144.74 376.809 160.558 338.604 160.558ZM357.275 -213.486C355.912 -213.51 354.559 -213.256 353.299 -212.737C338.633 -206.772 341.485 -168.25 343.012 -147.563C343.329 -143.299 343.56 -139.928 343.618 -137.623C343.618 -131.86 343.963 -126.098 344.223 -119.989C345.548 -89.477 347.104 -54.8732 329.586 -29.9792C322.7 -20.183 311.031 -10.7613 299.736 -1.6566C293.599 3.29915 287.779 7.99557 282.967 12.5479C255.221 38.8537 229.203 55.4497 201.111 64.7561C199.36 65.1297 197.742 65.9694 196.428 67.1866C195.115 68.4037 194.154 69.9532 193.649 71.6711C190.767 83.7147 212.463 105.036 219.58 112.009L220.3 112.729C249.401 141.541 288.384 157.619 333.072 159.434C373.035 161.047 411.442 145.258 441.234 114.976C457.119 98.8776 469.468 79.6399 477.49 58.4944C485.513 37.3489 489.033 14.7614 487.824 -7.82246C484.309 -68.9337 445.959 -126.904 414.41 -164.764L412.537 -167.011C387.211 -197.898 368.8 -213.486 357.275 -213.486Z" fill="url(#paint10_linear_41_308)" stroke="url(#paint11_linear_41_308)" stroke-width="2" mask="url(#path-7-inside-7_41_308)"/>
<mask id="path-8-inside-8_41_308" fill="white">
<path d="M339.67 131.889C337.451 131.889 335.233 131.889 332.985 131.687C294.694 129.325 264.671 117.483 241.218 95.4413L239.23 93.5973C232.315 87.2298 221.942 77.6064 223.44 70.1152C224.103 67.0034 226.811 64.5832 231.565 62.9409C256.854 54.2984 281.093 42.8458 303.827 28.7981C352.981 -1.65666 349.697 -39.1129 345.115 -90.9753C344.683 -95.9886 344.222 -101.146 343.819 -106.476C343.646 -108.407 343.156 -111.807 342.522 -116.071C339.41 -137.45 332.899 -181.994 348.63 -188.102C358.917 -192.107 378.48 -168.308 385.827 -159.29L387.902 -156.812C423.543 -115.523 447.457 -65.3034 453.277 -18.9441C458.636 23.6119 444.835 68.3288 417.291 97.7175C407.427 108.481 395.433 117.078 382.071 122.96C368.709 128.843 354.27 131.883 339.67 131.889ZM351.195 -187.641C350.408 -187.655 349.625 -187.518 348.89 -187.238C333.763 -181.475 340.246 -137.248 343.3 -116.071C343.934 -111.778 344.424 -108.407 344.597 -106.419C345 -101.117 345.461 -95.931 345.893 -90.9177C350.474 -39.0552 353.788 -1.31093 304.23 29.4896C281.433 43.5557 257.138 55.0364 231.796 63.7188C227.359 65.2459 224.795 67.4644 224.189 70.2881C222.72 77.3183 233.381 87.1433 239.748 93.0211L241.765 94.8651C265.074 116.763 294.924 128.547 332.985 130.881C348.563 131.947 364.18 129.458 378.655 123.603C393.13 117.749 406.085 108.68 416.541 97.0836C443.942 67.8966 457.657 23.439 452.355 -18.9153C446.593 -65.0152 422.765 -115.12 387.153 -156.207L385.078 -158.713C378.48 -166.896 361.423 -187.641 351.224 -187.641H351.195Z"/>
</mask>
<path d="M339.67 131.889C337.451 131.889 335.233 131.889 332.985 131.687C294.694 129.325 264.671 117.483 241.218 95.4413L239.23 93.5973C232.315 87.2298 221.942 77.6064 223.44 70.1152C224.103 67.0034 226.811 64.5832 231.565 62.9409C256.854 54.2984 281.093 42.8458 303.827 28.7981C352.981 -1.65666 349.697 -39.1129 345.115 -90.9753C344.683 -95.9886 344.222 -101.146 343.819 -106.476C343.646 -108.407 343.156 -111.807 342.522 -116.071C339.41 -137.45 332.899 -181.994 348.63 -188.102C358.917 -192.107 378.48 -168.308 385.827 -159.29L387.902 -156.812C423.543 -115.523 447.457 -65.3034 453.277 -18.9441C458.636 23.6119 444.835 68.3288 417.291 97.7175C407.427 108.481 395.433 117.078 382.071 122.96C368.709 128.843 354.27 131.883 339.67 131.889ZM351.195 -187.641C350.408 -187.655 349.625 -187.518 348.89 -187.238C333.763 -181.475 340.246 -137.248 343.3 -116.071C343.934 -111.778 344.424 -108.407 344.597 -106.419C345 -101.117 345.461 -95.931 345.893 -90.9177C350.474 -39.0552 353.788 -1.31093 304.23 29.4896C281.433 43.5557 257.138 55.0364 231.796 63.7188C227.359 65.2459 224.795 67.4644 224.189 70.2881C222.72 77.3183 233.381 87.1433 239.748 93.0211L241.765 94.8651C265.074 116.763 294.924 128.547 332.985 130.881C348.563 131.947 364.18 129.458 378.655 123.603C393.13 117.749 406.085 108.68 416.541 97.0836C443.942 67.8966 457.657 23.439 452.355 -18.9153C446.593 -65.0152 422.765 -115.12 387.153 -156.207L385.078 -158.713C378.48 -166.896 361.423 -187.641 351.224 -187.641H351.195Z" fill="url(#paint12_linear_41_308)" stroke="url(#paint13_linear_41_308)" stroke-width="2" mask="url(#path-8-inside-8_41_308)"/>
<mask id="path-9-inside-9_41_308" fill="white">
<path d="M334.513 103.048H333.043C329.442 103.048 258.477 84.0027 255.74 69.6829C255.163 66.8017 257.382 64.2086 262.338 62.1341C269.577 59.3291 276.976 56.9527 284.494 55.0174C297.662 51.3294 311.29 47.4685 321.461 41.0722C336.443 31.6505 345.058 16.8409 347.853 -4.13457C350.273 -22.4881 347.853 -43.2043 345.807 -61.4426C345.173 -66.9457 344.597 -72.132 344.107 -77.1742C343.819 -80.5164 343.185 -84.9535 342.465 -90.0822C339.584 -110.453 335.32 -141.224 345.346 -146.727C349.899 -149.205 356.641 -146.526 365.947 -138.516C394.011 -114.285 411.5 -64.8424 417.954 -29.8353C424.869 7.62093 415.072 48.9956 392.714 75.2438C385.709 83.9348 376.844 90.9441 366.771 95.7559C356.699 100.568 345.676 103.059 334.513 103.048ZM348.919 -147.016C347.774 -147.029 346.643 -146.751 345.634 -146.209C335.925 -140.907 340.189 -110.395 343.013 -90.1974C343.733 -85.0688 344.338 -80.6317 344.655 -77.2606C345.116 -72.2184 345.721 -67.0322 346.355 -61.5578C348.429 -43.2619 350.821 -22.5169 348.372 -3.93289C345.49 17.2443 336.847 32.1979 321.72 41.7348C311.463 48.1888 297.806 52.0209 284.581 55.7377C277.085 57.6769 269.707 60.0434 262.482 62.8256C257.843 64.7848 255.768 67.0898 256.258 69.6829C257.382 75.4454 270.492 82.9079 294.175 91.2635C306.845 95.8545 319.799 99.6176 332.957 102.529H334.426C345.507 102.542 356.449 100.068 366.447 95.2914C376.445 90.5144 385.244 83.5553 392.195 74.9268C414.352 48.8227 424.206 7.76498 417.291 -29.6336C410.866 -64.5255 393.434 -113.852 365.429 -137.94C358.686 -144.019 353.126 -147.016 349.005 -147.016H348.919Z"/>
</mask>
<path d="M334.513 103.048H333.043C329.442 103.048 258.477 84.0027 255.74 69.6829C255.163 66.8017 257.382 64.2086 262.338 62.1341C269.577 59.3291 276.976 56.9527 284.494 55.0174C297.662 51.3294 311.29 47.4685 321.461 41.0722C336.443 31.6505 345.058 16.8409 347.853 -4.13457C350.273 -22.4881 347.853 -43.2043 345.807 -61.4426C345.173 -66.9457 344.597 -72.132 344.107 -77.1742C343.819 -80.5164 343.185 -84.9535 342.465 -90.0822C339.584 -110.453 335.32 -141.224 345.346 -146.727C349.899 -149.205 356.641 -146.526 365.947 -138.516C394.011 -114.285 411.5 -64.8424 417.954 -29.8353C424.869 7.62093 415.072 48.9956 392.714 75.2438C385.709 83.9348 376.844 90.9441 366.771 95.7559C356.699 100.568 345.676 103.059 334.513 103.048ZM348.919 -147.016C347.774 -147.029 346.643 -146.751 345.634 -146.209C335.925 -140.907 340.189 -110.395 343.013 -90.1974C343.733 -85.0688 344.338 -80.6317 344.655 -77.2606C345.116 -72.2184 345.721 -67.0322 346.355 -61.5578C348.429 -43.2619 350.821 -22.5169 348.372 -3.93289C345.49 17.2443 336.847 32.1979 321.72 41.7348C311.463 48.1888 297.806 52.0209 284.581 55.7377C277.085 57.6769 269.707 60.0434 262.482 62.8256C257.843 64.7848 255.768 67.0898 256.258 69.6829C257.382 75.4454 270.492 82.9079 294.175 91.2635C306.845 95.8545 319.799 99.6176 332.957 102.529H334.426C345.507 102.542 356.449 100.068 366.447 95.2914C376.445 90.5144 385.244 83.5553 392.195 74.9268C414.352 48.8227 424.206 7.76498 417.291 -29.6336C410.866 -64.5255 393.434 -113.852 365.429 -137.94C358.686 -144.019 353.126 -147.016 349.005 -147.016H348.919Z" fill="url(#paint14_linear_41_308)" stroke="url(#paint15_linear_41_308)" stroke-width="2" mask="url(#path-9-inside-9_41_308)"/>
<mask id="path-10-inside-10_41_308" fill="white">
<path d="M313.221 78.3267C302.675 78.3267 292.879 75.7336 285.359 67.2627L285.215 67.0611H285.388C286.137 66.4848 286.944 65.7933 287.693 65.1306C289.065 63.8439 290.583 62.7222 292.216 61.7884C329.672 44.7026 345.865 9.11922 343.387 -50.1768C343.387 -51.531 343.07 -53.9801 342.696 -57.063C341.025 -71.0371 337.97 -97.0259 345.865 -103.48C346.916 -104.27 348.156 -104.769 349.462 -104.926C350.767 -105.083 352.091 -104.892 353.299 -104.373C371.22 -98.6106 380.21 -59.0799 384.531 -40.1789C384.906 -38.5654 385.223 -37.2977 385.511 -35.9435C388.679 -21.5852 389.138 -6.7618 386.865 7.76501C384.828 22.6293 379.652 36.8902 371.681 49.6007C362.086 64.2086 349.034 73.371 333.937 76.0506C327.111 77.4106 320.179 78.1722 313.221 78.3267ZM285.878 67.1187C297.979 80.6605 316.188 78.6437 333.821 75.5896C348.775 72.9388 361.741 63.8629 371.278 49.3414C386.001 26.9253 391.677 -8.28353 385.079 -35.9723C384.791 -37.1824 384.474 -38.623 384.099 -40.2077C379.806 -59.0511 370.845 -98.2648 353.155 -104.085C352.02 -104.582 350.775 -104.768 349.545 -104.627C348.315 -104.485 347.145 -104.02 346.153 -103.278C338.431 -96.9683 341.63 -70.1439 343.272 -57.1783C343.647 -54.0665 343.935 -51.6175 343.992 -50.2633C345.145 -22.2864 342.148 0.0144653 334.83 17.9646C331.04 27.7512 325.356 36.6933 318.103 44.2779C310.849 51.8625 302.17 57.9404 292.562 62.1629C290.961 63.0578 289.48 64.1517 288.154 65.4187C287.289 65.9374 286.569 66.5712 285.878 67.1187Z"/>
</mask>
<path d="M313.221 78.3267C302.675 78.3267 292.879 75.7336 285.359 67.2627L285.215 67.0611H285.388C286.137 66.4848 286.944 65.7933 287.693 65.1306C289.065 63.8439 290.583 62.7222 292.216 61.7884C329.672 44.7026 345.865 9.11922 343.387 -50.1768C343.387 -51.531 343.07 -53.9801 342.696 -57.063C341.025 -71.0371 337.97 -97.0259 345.865 -103.48C346.916 -104.27 348.156 -104.769 349.462 -104.926C350.767 -105.083 352.091 -104.892 353.299 -104.373C371.22 -98.6106 380.21 -59.0799 384.531 -40.1789C384.906 -38.5654 385.223 -37.2977 385.511 -35.9435C388.679 -21.5852 389.138 -6.7618 386.865 7.76501C384.828 22.6293 379.652 36.8902 371.681 49.6007C362.086 64.2086 349.034 73.371 333.937 76.0506C327.111 77.4106 320.179 78.1722 313.221 78.3267ZM285.878 67.1187C297.979 80.6605 316.188 78.6437 333.821 75.5896C348.775 72.9388 361.741 63.8629 371.278 49.3414C386.001 26.9253 391.677 -8.28353 385.079 -35.9723C384.791 -37.1824 384.474 -38.623 384.099 -40.2077C379.806 -59.0511 370.845 -98.2648 353.155 -104.085C352.02 -104.582 350.775 -104.768 349.545 -104.627C348.315 -104.485 347.145 -104.02 346.153 -103.278C338.431 -96.9683 341.63 -70.1439 343.272 -57.1783C343.647 -54.0665 343.935 -51.6175 343.992 -50.2633C345.145 -22.2864 342.148 0.0144653 334.83 17.9646C331.04 27.7512 325.356 36.6933 318.103 44.2779C310.849 51.8625 302.17 57.9404 292.562 62.1629C290.961 63.0578 289.48 64.1517 288.154 65.4187C287.289 65.9374 286.569 66.5712 285.878 67.1187Z" fill="url(#paint16_linear_41_308)" stroke="url(#paint17_linear_41_308)" stroke-width="2" mask="url(#path-10-inside-10_41_308)"/>
<mask id="path-11-inside-11_41_308" fill="white">
<path d="M315.843 60.7222C315.373 60.7437 314.904 60.6753 314.46 60.5205C314.244 60.4495 314.052 60.3205 313.905 60.1478C313.757 59.975 313.66 59.7651 313.624 59.5409C313.624 58.446 314.748 56.8325 317.168 54.9597C343.964 34.4164 342.897 -11.5395 341.918 -25.139C341.198 -35.4538 341.169 -48.6499 347.68 -59.1377V-59.3105V-59.1665C354.624 -52.2803 358.687 -42.5993 360.156 -29.6049C361.756 -15.1415 360.78 -0.509224 357.275 13.6138C353.126 29.8352 345.491 42.6568 335.233 50.6954C326.849 57.5528 319.444 60.7222 315.843 60.7222ZM347.824 -58.8495C341.457 -48.4482 341.486 -35.3962 342.062 -25.1678C343.115 -11.0514 342.144 3.14302 339.181 16.9849C335.147 34.2723 327.656 47.1515 317.312 55.1902C315.007 56.9765 313.739 58.5324 313.883 59.512C313.911 59.6827 313.984 59.8427 314.096 59.9747C314.208 60.1067 314.353 60.2058 314.517 60.2612C316.793 61.1832 324.774 58.7917 335.32 50.5226C358.37 32.5724 362.951 -3.81775 360.07 -29.5761C358.629 -42.4264 354.624 -52.021 347.824 -58.8495Z"/>
</mask>
<path d="M315.843 60.7222C315.373 60.7437 314.904 60.6753 314.46 60.5205C314.244 60.4495 314.052 60.3205 313.905 60.1478C313.757 59.975 313.66 59.7651 313.624 59.5409C313.624 58.446 314.748 56.8325 317.168 54.9597C343.964 34.4164 342.897 -11.5395 341.918 -25.139C341.198 -35.4538 341.169 -48.6499 347.68 -59.1377V-59.3105V-59.1665C354.624 -52.2803 358.687 -42.5993 360.156 -29.6049C361.756 -15.1415 360.78 -0.509224 357.275 13.6138C353.126 29.8352 345.491 42.6568 335.233 50.6954C326.849 57.5528 319.444 60.7222 315.843 60.7222ZM347.824 -58.8495C341.457 -48.4482 341.486 -35.3962 342.062 -25.1678C343.115 -11.0514 342.144 3.14302 339.181 16.9849C335.147 34.2723 327.656 47.1515 317.312 55.1902C315.007 56.9765 313.739 58.5324 313.883 59.512C313.911 59.6827 313.984 59.8427 314.096 59.9747C314.208 60.1067 314.353 60.2058 314.517 60.2612C316.793 61.1832 324.774 58.7917 335.32 50.5226C358.37 32.5724 362.951 -3.81775 360.07 -29.5761C358.629 -42.4264 354.624 -52.021 347.824 -58.8495Z" stroke="url(#paint18_linear_41_308)" stroke-width="2" mask="url(#path-11-inside-11_41_308)"/>
<mask id="path-12-inside-12_41_308" fill="white">
<path d="M331.949 34.013C331.516 33.8402 331.66 32.7165 332.323 30.6996C333.994 25.5134 337.653 11.6258 340.074 -0.994077C341.37 -7.64975 342.724 -11.4242 343.848 -11.4242C344.914 -11.4242 345.26 -7.99552 345.375 -5.20071C345.462 0.330886 344.783 5.84789 343.358 11.1936C342.108 16.5307 340.171 21.6831 337.596 26.5218C334.859 31.1894 332.755 34.013 331.949 34.013ZM343.733 -11.3378C342.696 -11.3378 341.313 -7.47688 340.074 -0.994077C337.625 11.597 333.994 25.5134 332.294 30.6996C331.43 33.3792 331.689 33.8402 331.862 33.8978C332.496 33.8978 334.398 31.6504 337.337 26.4354C342.429 16.6456 345.096 5.77655 345.116 -5.25833C344.943 -9.09039 344.424 -11.3378 343.675 -11.3954L343.733 -11.3378Z"/>
</mask>
<path d="M331.949 34.013C331.516 33.8402 331.66 32.7165 332.323 30.6996C333.994 25.5134 337.653 11.6258 340.074 -0.994077C341.37 -7.64975 342.724 -11.4242 343.848 -11.4242C344.914 -11.4242 345.26 -7.99552 345.375 -5.20071C345.462 0.330886 344.783 5.84789 343.358 11.1936C342.108 16.5307 340.171 21.6831 337.596 26.5218C334.859 31.1894 332.755 34.013 331.949 34.013ZM343.733 -11.3378C342.696 -11.3378 341.313 -7.47688 340.074 -0.994077C337.625 11.597 333.994 25.5134 332.294 30.6996C331.43 33.3792 331.689 33.8402 331.862 33.8978C332.496 33.8978 334.398 31.6504 337.337 26.4354C342.429 16.6456 345.096 5.77655 345.116 -5.25833C344.943 -9.09039 344.424 -11.3378 343.675 -11.3954L343.733 -11.3378Z" stroke="url(#paint19_linear_41_308)" stroke-width="2" mask="url(#path-12-inside-12_41_308)"/>
<defs>
<linearGradient id="paint0_linear_41_308" x1="0" y1="0.0144062" x2="666" y2="0.0144062" gradientUnits="userSpaceOnUse">
<stop stop-color="#EEFF01"/>
<stop offset="0.5" stop-color="#FF80E6"/>
<stop offset="1" stop-color="#EA27C3"/>
</linearGradient>
<linearGradient id="paint1_linear_41_308" x1="87.5" y1="-151" x2="642.5" y2="250.5" gradientUnits="userSpaceOnUse">
<stop stop-color="#EEFF01"/>
<stop offset="0.494792" stop-color="#EA27C3"/>
<stop offset="1" stop-color="#9E03A3"/>
</linearGradient>
<linearGradient id="paint2_linear_41_308" x1="6688.57" y1="70043" x2="134000" y2="70043" gradientUnits="userSpaceOnUse">
<stop stop-color="#EEFF01"/>
<stop offset="0.494792" stop-color="#FF80E6"/>
<stop offset="1" stop-color="#EA27C3"/>
</linearGradient>
<linearGradient id="paint3_linear_41_308" x1="87.5" y1="-153.5" x2="617" y2="247.5" gradientUnits="userSpaceOnUse">
<stop stop-color="#EEFF01"/>
<stop offset="0.552083" stop-color="#EA27C3"/>
<stop offset="1" stop-color="#9E03A3"/>
</linearGradient>
<linearGradient id="paint4_linear_41_308" x1="12297.3" y1="63551.5" x2="114882" y2="63551.5" gradientUnits="userSpaceOnUse">
<stop stop-color="#EEFF01"/>
<stop offset="0.5" stop-color="#FF80E6"/>
<stop offset="1" stop-color="#EA27C3"/>
</linearGradient>
<linearGradient id="paint5_linear_41_308" x1="93.5" y1="-159.5" x2="608" y2="194.5" gradientUnits="userSpaceOnUse">
<stop stop-color="#EEFF01"/>
<stop offset="0.494792" stop-color="#EA27C3"/>
<stop offset="1" stop-color="#9E03A3"/>
</linearGradient>
<linearGradient id="paint6_linear_41_308" x1="16606.3" y1="57249.6" x2="96821.5" y2="57249.6" gradientUnits="userSpaceOnUse">
<stop stop-color="#EEFF01"/>
<stop offset="0.494792" stop-color="#FF80E6"/>
<stop offset="1" stop-color="#EA27C3"/>
</linearGradient>
<linearGradient id="paint7_linear_41_308" x1="99" y1="-160.5" x2="614" y2="228" gradientUnits="userSpaceOnUse">
<stop stop-color="#EEFF01"/>
<stop offset="0.536458" stop-color="#EA27C3"/>
<stop offset="1" stop-color="#9E03A3"/>
</linearGradient>
<linearGradient id="paint8_linear_41_308" x1="99.5" y1="-173" x2="623" y2="180.5" gradientUnits="userSpaceOnUse">
<stop stop-color="#EEFF01"/>
<stop offset="0.520833" stop-color="#EA27C3"/>
<stop offset="1" stop-color="#9E03A3"/>
</linearGradient>
<linearGradient id="paint9_linear_41_308" x1="87.5" y1="-150" x2="619.5" y2="220.5" gradientUnits="userSpaceOnUse">
<stop stop-color="#EEFF01"/>
<stop offset="0.505208" stop-color="#FF80E6"/>
<stop offset="1" stop-color="#EA27C3"/>
</linearGradient>
<linearGradient id="paint10_linear_41_308" x1="20001.5" y1="39620.3" x2="50551.7" y2="39620.3" gradientUnits="userSpaceOnUse">
<stop stop-color="#EEFF01"/>
<stop offset="0.510417" stop-color="#FF80E6"/>
<stop offset="1" stop-color="#EA27C3"/>
</linearGradient>
<linearGradient id="paint11_linear_41_308" x1="107.5" y1="-174" x2="579.5" y2="223" gradientUnits="userSpaceOnUse">
<stop stop-color="#EEFF01"/>
<stop offset="0.515625" stop-color="#FF80E6"/>
<stop offset="1" stop-color="#EA27C3"/>
</linearGradient>
<linearGradient id="paint12_linear_41_308" x1="18133" y1="33701.3" x2="36675.9" y2="33701.3" gradientUnits="userSpaceOnUse">
<stop stop-color="#EEFF01"/>
<stop offset="0.510417" stop-color="#FF80E6"/>
<stop offset="1" stop-color="#EA27C3"/>
</linearGradient>
<linearGradient id="paint13_linear_41_308" x1="75" y1="-152.5" x2="600" y2="196.5" gradientUnits="userSpaceOnUse">
<stop stop-color="#EEFF01"/>
<stop offset="0.536458" stop-color="#FF80E6"/>
<stop offset="1" stop-color="#EA27C3"/>
</linearGradient>
<linearGradient id="paint14_linear_41_308" x1="14850.6" y1="26881.7" x2="24244.5" y2="26881.7" gradientUnits="userSpaceOnUse">
<stop stop-color="#EEFF01"/>
<stop offset="0.526042" stop-color="#FF80E6"/>
<stop offset="1" stop-color="#EA27C3"/>
</linearGradient>
<linearGradient id="paint15_linear_41_308" x1="96.0003" y1="-148" x2="632" y2="147" gradientUnits="userSpaceOnUse">
<stop stop-color="#EEFF01"/>
<stop offset="0.53125" stop-color="#FF80E6"/>
<stop offset="1" stop-color="#EA27C3"/>
</linearGradient>
<linearGradient id="paint16_linear_41_308" x1="10488.1" y1="20229.2" x2="14173.9" y2="20229.2" gradientUnits="userSpaceOnUse">
<stop stop-color="#EEFF01"/>
<stop offset="0.479167" stop-color="#FF80E6"/>
<stop offset="1" stop-color="#EA27C3"/>
</linearGradient>
<linearGradient id="paint17_linear_41_308" x1="103" y1="-170" x2="603.5" y2="200" gradientUnits="userSpaceOnUse">
<stop stop-color="#EEFF01"/>
<stop offset="0.536458" stop-color="#FF80E6"/>
<stop offset="1" stop-color="#EA27C3"/>
</linearGradient>
<linearGradient id="paint18_linear_41_308" x1="104" y1="-172" x2="632.5" y2="156.5" gradientUnits="userSpaceOnUse">
<stop stop-color="#EEFF01"/>
<stop offset="0.515625" stop-color="#FF80E6"/>
<stop offset="1" stop-color="#EA27C3"/>
</linearGradient>
<linearGradient id="paint19_linear_41_308" x1="122" y1="-185.5" x2="594" y2="207" gradientUnits="userSpaceOnUse">
<stop stop-color="#EEFF01"/>
<stop offset="0.515625" stop-color="#FF80E6"/>
<stop offset="1" stop-color="#EA27C3"/>
</linearGradient>
</defs>
</svg>
