<svg width="24" height="24" viewBox="0 0 24 24" fill="none" xmlns="http://www.w3.org/2000/svg">
<path d="M3.5065 3.5328C-1.16883 8.21202 -1.16883 15.8235 3.5065 20.5028C5.59482 22.5928 8.27534 23.7469 11.0182 23.9654C12.3273 24.059 13.6677 23.9654 14.9454 23.6533C16.9713 23.1542 18.9039 22.0936 20.4935 20.5027C25.1688 15.8235 25.1688 8.21199 20.4935 3.53277C15.787 -1.17759 8.18178 -1.17759 3.50645 3.53277L3.5065 3.5328ZM9.95846 16.6658L6.03107 12.7352L6.9038 11.8617L9.9583 14.9187L17.0648 7.80632L17.9375 8.67977L9.95846 16.6658Z" fill="url(#paint0_linear_103_234)"/>
<defs>
<linearGradient id="paint0_linear_103_234" x1="-5.5" y1="-2.5" x2="22" y2="29.5" gradientUnits="userSpaceOnUse">
<stop stop-color="#EEFF01"/>
<stop offset="1" stop-color="#EA27C3"/>
</linearGradient>
</defs>
</svg>
