<svg width="1920" height="1000" viewBox="0 0 1920 1000" fill="none" xmlns="http://www.w3.org/2000/svg">
<g filter="url(#filter0_f_3_66)">
<path d="M1712.2 42C1769.5 42 1778.57 85.4283 1790.44 103.5C1869.78 254.971 1857.12 256 1887.98 256C1958.75 256 1959.61 245.5 1959.61 279.581V1000L-21.8704 1000V504.82C-56.9452 408.5 29.9259 490.5 77.8649 421L129.545 342.353C174.97 268.516 172.176 274.945 203.876 272.896H276.831C318.126 272.896 325.307 264.431 343.592 233.475L386.951 160.89C451.647 58.8948 452.877 42.758 529.42 42L1712.2 42Z" stroke="#44DDFF" stroke-opacity="0.5" stroke-width="4"/>
</g>
<g filter="url(#filter1_f_3_66)">
<path d="M1712.2 42C1769 42 1778.57 85.4283 1790.44 103.5C1869.78 254.971 1857.12 256 1887.98 256C1958.75 256 1959.61 245.5 1959.61 279.581V1000L-21.8704 1000V504.82C-56.9452 408.5 29.9259 490.5 77.8649 421L129.545 342.353C174.97 268.516 172.176 274.945 203.876 272.896H276.831C318.126 272.896 325.307 264.431 343.592 233.475L386.951 160.89C451.647 58.8948 452.877 42.758 529.42 42L1712.2 42Z" stroke="#44DDFF" stroke-width="4"/>
</g>
<path d="M1712.2 42C1773.5 42 1778.57 85.4283 1790.44 103.5C1869.78 254.971 1857.12 256 1887.98 256C1958.75 256 2014 247.919 2014 282L1959.61 1000L-21.8704 1000V504.82C-56.9451 408.5 29.9259 490.5 77.8649 421L129.545 342.353C174.97 268.516 172.176 274.945 203.876 272.896H276.831C318.126 272.896 325.307 264.431 343.592 233.475L386.951 160.89C451.647 58.8948 452.877 42.758 529.42 42L1712.2 42Z" fill="url(#paint0_linear_3_66)"/>
<defs>
<filter id="filter0_f_3_66" x="-51.9999" y="20" width="2033.61" height="1002" filterUnits="userSpaceOnUse" color-interpolation-filters="sRGB">
<feFlood flood-opacity="0" result="BackgroundImageFix"/>
<feBlend mode="normal" in="SourceGraphic" in2="BackgroundImageFix" result="shape"/>
<feGaussianBlur stdDeviation="10" result="effect1_foregroundBlur_3_66"/>
</filter>
<filter id="filter1_f_3_66" x="-71.9999" y="0" width="2073.61" height="1042" filterUnits="userSpaceOnUse" color-interpolation-filters="sRGB">
<feFlood flood-opacity="0" result="BackgroundImageFix"/>
<feBlend mode="normal" in="SourceGraphic" in2="BackgroundImageFix" result="shape"/>
<feGaussianBlur stdDeviation="20" result="effect1_foregroundBlur_3_66"/>
</filter>
<linearGradient id="paint0_linear_3_66" x1="1640.38" y1="741" x2="190.284" y2="256.277" gradientUnits="userSpaceOnUse">
<stop stop-color="#0C1C2E"/>
<stop offset="1" stop-color="#05101C"/>
</linearGradient>
</defs>
</svg>
