<svg width="1920" height="998" viewBox="0 0 1920 998" fill="none" xmlns="http://www.w3.org/2000/svg">
<g filter="url(#filter0_f_2_2)">
<path d="M1709.2 42C1766.5 42 1775.57 85.3376 1787.44 103.372C1866.78 254.526 1854.12 255.553 1884.98 255.553C1955.75 255.553 1956.61 245.075 1956.61 279.085V998L-24.8704 998V503.854C-59.9452 407.735 26.9259 489.564 74.8649 420.209L126.545 341.726C171.97 268.043 169.176 274.459 200.876 272.414H273.831C315.126 272.414 322.307 263.967 340.592 233.075L383.951 160.641C448.647 58.8596 449.877 42.7565 526.42 42L1709.2 42Z" stroke="#44DDFF" stroke-opacity="0.5" stroke-width="4"/>
</g>
<g filter="url(#filter1_f_2_2)">
<path d="M1709.2 42C1766 42 1775.57 85.3376 1787.44 103.372C1866.78 254.526 1854.12 255.553 1884.98 255.553C1955.75 255.553 1956.61 245.075 1956.61 279.085V998L-24.8704 998V503.854C-59.9452 407.735 26.9259 489.564 74.8649 420.209L126.545 341.726C171.97 268.043 169.176 274.459 200.876 272.414H273.831C315.126 272.414 322.307 263.967 340.592 233.075L383.951 160.641C448.647 58.8596 449.877 42.7565 526.42 42L1709.2 42Z" stroke="#44DDFF" stroke-width="4"/>
</g>
<path d="M1709.2 42C1770.5 42 1775.57 85.3376 1787.44 103.372C1866.78 254.526 1854.12 255.553 1884.98 255.553C1955.75 255.553 2011 247.489 2011 281.499L1956.61 998L-24.8704 998V503.854C-59.9451 407.735 26.9259 489.564 74.8649 420.209L126.545 341.726C171.97 268.043 169.176 274.459 200.876 272.414H273.831C315.126 272.414 322.307 263.967 340.592 233.075L383.951 160.641C448.647 58.8596 449.877 42.7565 526.42 42L1709.2 42Z" fill="url(#paint0_linear_2_2)"/>
<defs>
<filter id="filter0_f_2_2" x="-54.9999" y="20" width="2033.61" height="1000" filterUnits="userSpaceOnUse" color-interpolation-filters="sRGB">
<feFlood flood-opacity="0" result="BackgroundImageFix"/>
<feBlend mode="normal" in="SourceGraphic" in2="BackgroundImageFix" result="shape"/>
<feGaussianBlur stdDeviation="10" result="effect1_foregroundBlur_2_2"/>
</filter>
<filter id="filter1_f_2_2" x="-74.9999" y="3.05176e-05" width="2073.61" height="1040" filterUnits="userSpaceOnUse" color-interpolation-filters="sRGB">
<feFlood flood-opacity="0" result="BackgroundImageFix"/>
<feBlend mode="normal" in="SourceGraphic" in2="BackgroundImageFix" result="shape"/>
<feGaussianBlur stdDeviation="20" result="effect1_foregroundBlur_2_2"/>
</filter>
<linearGradient id="paint0_linear_2_2" x1="1637.38" y1="739.541" x2="187.894" y2="254.009" gradientUnits="userSpaceOnUse">
<stop stop-color="#0C1C2E"/>
<stop offset="1" stop-color="#05101C"/>
</linearGradient>
</defs>
</svg>
