<svg width="94" height="55" viewBox="0 0 94 55" fill="none" xmlns="http://www.w3.org/2000/svg">
<g filter="url(#filter0_f_4_85)">
<mask id="path-1-outside-1_4_85" maskUnits="userSpaceOnUse" x="29.8438" y="30.0825" width="34" height="29" fill="black">
<rect fill="white" x="29.8438" y="30.0825" width="34" height="29"/>
<path d="M45.222 33.0727C45.9942 31.7525 47.9024 31.7525 48.6747 33.0727L60.7762 53.7614C61.5561 55.0947 60.5945 56.7712 59.0499 56.7712H34.8468C33.3021 56.7712 32.3405 55.0947 33.1204 53.7614L45.222 33.0727Z"/>
</mask>
<path d="M33.1204 53.7614L34.8468 54.7712L33.1204 53.7614ZM45.222 33.0727L43.4956 32.0629L45.222 33.0727ZM46.9483 34.0825L59.0499 54.7712L62.5026 52.7516L50.401 32.0629L46.9483 34.0825ZM59.0499 54.7712H34.8468V58.7712H59.0499V54.7712ZM34.8468 54.7712L46.9483 34.0825L43.4956 32.0629L31.3941 52.7516L34.8468 54.7712ZM34.8468 54.7712L34.8468 54.7712L31.3941 52.7516C29.8343 55.4182 31.7575 58.7712 34.8468 58.7712V54.7712ZM59.0499 54.7712L59.0499 54.7712V58.7712C62.1392 58.7712 64.0624 55.4182 62.5026 52.7516L59.0499 54.7712ZM50.401 32.0629C48.8565 29.4224 45.0402 29.4224 43.4956 32.0629L46.9483 34.0825L46.9483 34.0825L50.401 32.0629Z" fill="#44DDFF" fill-opacity="0.4" mask="url(#path-1-outside-1_4_85)"/>
</g>
<g filter="url(#filter1_f_4_85)">
<mask id="path-3-outside-2_4_85" maskUnits="userSpaceOnUse" x="29.8438" y="30.0825" width="34" height="29" fill="black">
<rect fill="white" x="29.8438" y="30.0825" width="34" height="29"/>
<path d="M45.222 33.0727C45.9942 31.7525 47.9024 31.7525 48.6747 33.0727L60.7762 53.7614C61.5561 55.0947 60.5945 56.7712 59.0499 56.7712H34.8468C33.3021 56.7712 32.3405 55.0947 33.1204 53.7614L45.222 33.0727Z"/>
</mask>
<path d="M33.1204 53.7614L34.8468 54.7712L33.1204 53.7614ZM45.222 33.0727L43.4956 32.0629L45.222 33.0727ZM46.9483 34.0825L59.0499 54.7712L62.5026 52.7516L50.401 32.0629L46.9483 34.0825ZM59.0499 54.7712H34.8468V58.7712H59.0499V54.7712ZM34.8468 54.7712L46.9483 34.0825L43.4956 32.0629L31.3941 52.7516L34.8468 54.7712ZM34.8468 54.7712L34.8468 54.7712L31.3941 52.7516C29.8343 55.4182 31.7575 58.7712 34.8468 58.7712V54.7712ZM59.0499 54.7712L59.0499 54.7712V58.7712C62.1392 58.7712 64.0624 55.4182 62.5026 52.7516L59.0499 54.7712ZM50.401 32.0629C48.8565 29.4224 45.0402 29.4224 43.4956 32.0629L46.9483 34.0825L46.9483 34.0825L50.401 32.0629Z" fill="#44DDFF" fill-opacity="0.7" mask="url(#path-3-outside-2_4_85)"/>
</g>
<mask id="path-5-outside-3_4_85" maskUnits="userSpaceOnUse" x="29.8438" y="30.0825" width="34" height="29" fill="black">
<rect fill="white" x="29.8438" y="30.0825" width="34" height="29"/>
<path d="M45.222 33.0727C45.9942 31.7525 47.9024 31.7525 48.6747 33.0727L60.7762 53.7614C61.5561 55.0947 60.5945 56.7712 59.0499 56.7712H34.8468C33.3021 56.7712 32.3405 55.0947 33.1204 53.7614L45.222 33.0727Z"/>
</mask>
<path d="M33.1204 53.7614L34.8468 54.7712L33.1204 53.7614ZM45.222 33.0727L43.4956 32.0629L45.222 33.0727ZM46.9483 34.0825L59.0499 54.7712L62.5026 52.7516L50.401 32.0629L46.9483 34.0825ZM59.0499 54.7712H34.8468V58.7712H59.0499V54.7712ZM34.8468 54.7712L46.9483 34.0825L43.4956 32.0629L31.3941 52.7516L34.8468 54.7712ZM34.8468 54.7712L34.8468 54.7712L31.3941 52.7516C29.8343 55.4182 31.7575 58.7712 34.8468 58.7712V54.7712ZM59.0499 54.7712L59.0499 54.7712V58.7712C62.1392 58.7712 64.0624 55.4182 62.5026 52.7516L59.0499 54.7712ZM50.401 32.0629C48.8565 29.4224 45.0402 29.4224 43.4956 32.0629L46.9483 34.0825L46.9483 34.0825L50.401 32.0629Z" fill="#44DDFF" mask="url(#path-5-outside-3_4_85)"/>
<path d="M45.222 33.0727C45.9942 31.7525 47.9024 31.7525 48.6747 33.0727L60.7762 53.7614C61.5561 55.0947 60.5945 56.7712 59.0499 56.7712H34.8468C33.3021 56.7712 32.3405 55.0947 33.1204 53.7614L45.222 33.0727Z" fill="#0A1B34" fill-opacity="0.95"/>
<defs>
<filter id="filter0_f_4_85" x="15.8407" y="15.0825" width="62.2152" height="58.6887" filterUnits="userSpaceOnUse" color-interpolation-filters="sRGB">
<feFlood flood-opacity="0" result="BackgroundImageFix"/>
<feBlend mode="normal" in="SourceGraphic" in2="BackgroundImageFix" result="shape"/>
<feGaussianBlur stdDeviation="7.5" result="effect1_foregroundBlur_4_85"/>
</filter>
<filter id="filter1_f_4_85" x="0.840698" y="0.0825195" width="92.2152" height="88.6887" filterUnits="userSpaceOnUse" color-interpolation-filters="sRGB">
<feFlood flood-opacity="0" result="BackgroundImageFix"/>
<feBlend mode="normal" in="SourceGraphic" in2="BackgroundImageFix" result="shape"/>
<feGaussianBlur stdDeviation="15" result="effect1_foregroundBlur_4_85"/>
</filter>
</defs>
</svg>
