<svg version="1.2" xmlns="http://www.w3.org/2000/svg" viewBox="0 0 1920 2246" width="1920" height="2246">
	<title>BG-svg</title>
	<defs>
		<filter x="-50%" y="-50%" width="200%" height="200%" id="f1"> <feGaussianBlur stdDeviation="15"/> </filter>
		<filter x="-50%" y="-50%" width="200%" height="200%" id="f2"> <feGaussianBlur stdDeviation="25"/> </filter>
	</defs>
	<style>
		.s0 { filter: url(#f1);fill: none;stroke: #44ddff;stroke-opacity: .8;stroke-width: 4 } 
		.s1 { filter: url(#f2);fill: none;stroke: #44ddff;stroke-width: 4 } 
	</style>
	<g id="Layer">
		<path id="Layer" class="s0" d="m-67.9 1151.3l0.9 1.8q0.1-0.1 0.1-0.1 12-6.3 24.2-12.7c38-19.9 76.3-40 111.7-64.1 34.4-23.5 55.8-53.1 63.4-85.9 7.6-32.8 1.2-68.8-19.5-105-24.4-40.5-52-78.9-82.6-114.9-41.9-51.6-76.8-106.1-89.9-172-20.6-104 14.6-190.9 83.6-266.8 63.2-69.6 143.1-113.9 229.4-149.4 191-78.9 390.7-118.4 596.1-132.3 132.2-8.9 264.8-9.2 397.1-0.8 95 5.6 189.9 11.9 284.6 21.3 106.8 10.5 212.5 30.6 315.8 60.1 84.1 24.2 167.2 51.3 241.4 99.4 36.5 22.9 69 51.5 96.5 84.7 36.2 44.8 54.9 92.4 56.3 140.5 1.3 48.1-14.6 96.8-48 143.8-32 44.8-74.1 79.1-116.4 113.7-11.8 9.5-23.7 19-35.6 28.6-39 31.2-78.1 62.6-115.5 95.8-39.1 33.8-68.8 77.1-86.4 125.7-19.9 54.9-18.5 115.2 3.9 169 21.7 54 47.7 106.3 74.3 157.9 36.8 71.9 66.9 145.1 72.4 226.5 8.4 124.5-37.1 228.1-122.2 315.9l1.5 1.5-1.5-1.4c-78.5 81.2-173.9 137.7-276.4 182.8-222.1 97.6-455.9 147.6-696.9 166.5-101.6 8.2-203.7 7.9-305.3-0.9-57.4-4.6-114-12-170.7-19.5-20.9-2.8-41.9-5.5-62.9-8.1-139.9-31.8-275.5-74.8-404-138.6-103.2-51.4-202-109.5-285.9-189.8zm-266.4 673.2h-0.1m0.1 0h-0.1m0 0c-42-38.7-75.9-85.4-100-137.2-45.4-102.4-31.3-198.8 28.6-290.9m71.4 428.1l-71.4-428.1m0 0c43.1-66.3 102-116.5 169.7-155.7z"/>
	</g>
	<g id="Layer">
		<path id="Layer" class="s1" d="m-67.9 1151.3l0.9 1.8q0.1-0.1 0.1-0.1 12-6.3 24.2-12.7c38-19.9 76.3-40 111.7-64.1 34.4-23.5 55.8-53.1 63.4-85.9 7.6-32.8 1.2-68.8-19.5-105-24.4-40.5-52-78.9-82.6-114.9-41.9-51.6-76.8-106.1-89.9-172-20.6-104 14.6-190.9 83.6-266.8 63.2-69.6 143.1-113.9 229.4-149.4 191-78.9 390.7-118.4 596.1-132.3 132.2-8.9 264.8-9.2 397.1-0.8 95 5.6 189.9 11.9 284.6 21.3 106.8 10.5 212.5 30.6 315.8 60.1 84.1 24.2 167.2 51.3 241.4 99.4 36.5 22.9 69 51.5 96.5 84.7 36.2 44.8 54.9 92.4 56.3 140.5 1.3 48.1-14.6 96.8-48 143.8-32 44.8-74.1 79.1-116.4 113.7-11.8 9.5-23.7 19-35.6 28.6-39 31.2-78.1 62.6-115.5 95.8-39.1 33.8-68.8 77.1-86.4 125.7-19.9 54.9-18.5 115.2 3.9 169 21.7 54 47.7 106.3 74.3 157.9 36.8 71.9 66.9 145.1 72.4 226.5 8.4 124.5-37.1 228.1-122.2 315.9l1.5 1.5-1.5-1.4c-78.5 81.2-173.9 137.7-276.4 182.8-222.1 97.6-455.9 147.6-696.9 166.5-101.6 8.2-203.7 7.9-305.3-0.9-57.4-4.6-114-12-170.7-19.5-20.9-2.8-41.9-5.5-62.9-8.1-139.9-31.8-275.5-74.8-404-138.6-103.2-51.4-202-109.5-285.9-189.8zm-266.4 673.2h-0.1m0.1 0h-0.1m0 0c-42-38.7-75.9-85.4-100-137.2-45.4-102.4-31.3-198.8 28.6-290.9m71.4 428.1l-71.4-428.1m0 0c43.1-66.3 102-116.5 169.7-155.7z"/>
	</g>
</svg>