<svg width="2848" height="2723" viewBox="0 0 2848 2723" fill="none" xmlns="http://www.w3.org/2000/svg">
<g filter="url(#filter0_f_2_2)">
<path d="M968.404 2429C947.461 2426.24 926.52 2423.47 905.545 2420.86C765.565 2389.1 629.978 2346.09 501.54 2282.29C398.289 2230.94 299.51 2172.76 215.647 2092.51L215.634 2092.5L215.62 2092.48C173.621 2053.73 139.644 2007.1 115.62 1955.25C70.2078 1852.87 84.3059 1756.49 144.205 1664.41L144.206 1664.4C187.28 1598.07 246.223 1547.89 313.87 1508.69C346.874 1489.6 380.96 1472.64 415.123 1455.63C437.829 1444.33 460.57 1433.02 483.049 1421.05C491.096 1416.78 499.186 1412.54 507.288 1408.29C545.295 1388.37 583.578 1368.31 618.953 1344.24L618.958 1344.24C653.38 1320.66 674.823 1291.14 682.392 1258.3C689.96 1225.45 683.594 1189.55 662.889 1153.33L662.877 1153.31L662.866 1153.29C638.506 1112.83 610.892 1074.42 580.295 1038.44C538.374 986.782 503.462 932.276 490.36 866.446C469.804 762.437 505.015 675.529 573.992 599.611C637.23 530.017 717.082 485.656 803.428 450.19L803.432 450.188C994.435 371.313 1194.12 331.811 1399.51 317.906C1531.71 308.981 1664.34 308.709 1796.57 317.089L1796.58 317.09C1891.63 322.736 1986.54 328.961 2081.19 338.421L2081.19 338.422C2188.05 348.876 2293.75 368.974 2396.99 398.47C2481.13 422.655 2564.23 449.772 2638.39 497.93L2638.4 497.938L2638.41 497.946C2674.88 520.848 2707.45 549.44 2734.88 582.636C2771.15 627.438 2789.83 675.036 2791.18 723.092C2792.53 771.15 2776.55 819.85 2743.19 866.861C2711.18 911.735 2669.14 946.031 2626.77 980.566C2614.96 990.126 2603.09 999.64 2591.22 1009.16C2552.19 1040.45 2513.1 1071.79 2475.67 1104.95C2436.61 1138.81 2406.87 1182.1 2389.28 1230.71C2369.4 1285.55 2370.8 1345.84 2393.2 1399.7C2414.9 1453.64 2440.95 1505.95 2467.48 1557.63C2504.26 1629.47 2534.45 1702.68 2539.95 1784.08C2548.35 1908.56 2502.85 2012.15 2417.74 2100.06L2419.18 2101.45L2417.74 2100.06C2339.19 2181.28 2243.84 2237.78 2141.29 2282.86C1919.16 2380.51 1685.39 2430.47 1444.45 2449.39L1444.44 2449.39C1342.81 2457.61 1240.67 2457.3 1139.09 2448.46L1139.09 2448.46L1139.08 2448.46C1081.72 2443.95 1025.06 2436.48 968.404 2429Z" stroke="#44DDFF" stroke-opacity="0.8" stroke-width="4"/>
</g>
<g filter="url(#filter1_f_2_2)">
<path d="M968.404 2429C947.461 2426.24 926.52 2423.47 905.545 2420.86C765.565 2389.1 629.978 2346.09 501.54 2282.29C398.289 2230.94 299.51 2172.76 215.647 2092.51L215.634 2092.5L215.62 2092.48C173.621 2053.73 139.644 2007.1 115.62 1955.25C70.2078 1852.87 84.3059 1756.49 144.205 1664.41L144.206 1664.4C187.28 1598.07 246.223 1547.89 313.87 1508.69C346.874 1489.6 380.96 1472.64 415.123 1455.63C437.829 1444.33 460.57 1433.02 483.049 1421.05C491.096 1416.78 499.186 1412.54 507.288 1408.29C545.295 1388.37 583.578 1368.31 618.953 1344.24L618.958 1344.24C653.38 1320.66 674.823 1291.14 682.392 1258.3C689.96 1225.45 683.594 1189.55 662.889 1153.33L662.877 1153.31L662.866 1153.29C638.506 1112.83 610.892 1074.42 580.295 1038.44C538.374 986.782 503.462 932.276 490.36 866.446C469.804 762.437 505.015 675.529 573.992 599.611C637.23 530.017 717.082 485.656 803.428 450.19L803.432 450.188C994.435 371.313 1194.12 331.811 1399.51 317.906C1531.71 308.981 1664.34 308.709 1796.57 317.089L1796.58 317.09C1891.63 322.736 1986.54 328.961 2081.19 338.421L2081.19 338.422C2188.05 348.876 2293.75 368.974 2396.99 398.47C2481.13 422.655 2564.23 449.772 2638.39 497.93L2638.4 497.938L2638.41 497.946C2674.88 520.848 2707.45 549.44 2734.88 582.636C2771.15 627.438 2789.83 675.036 2791.18 723.092C2792.53 771.15 2776.55 819.85 2743.19 866.861C2711.18 911.735 2669.14 946.031 2626.77 980.566C2614.96 990.126 2603.09 999.64 2591.22 1009.16C2552.19 1040.45 2513.1 1071.79 2475.67 1104.95C2436.61 1138.81 2406.87 1182.1 2389.28 1230.71C2369.4 1285.55 2370.8 1345.84 2393.2 1399.7C2414.9 1453.64 2440.95 1505.95 2467.48 1557.63C2504.26 1629.47 2534.45 1702.68 2539.95 1784.08C2548.35 1908.56 2502.85 2012.15 2417.74 2100.06L2419.18 2101.45L2417.74 2100.06C2339.19 2181.28 2243.84 2237.78 2141.29 2282.86C1919.16 2380.51 1685.39 2430.47 1444.45 2449.39L1444.44 2449.39C1342.81 2457.61 1240.67 2457.3 1139.09 2448.46L1139.09 2448.46L1139.08 2448.46C1081.72 2443.95 1025.06 2436.48 968.404 2429Z" stroke="#44DDFF" stroke-width="4"/>
</g>
<path d="M905.199 2422.83C765.079 2391.04 629.299 2347.98 500.651 2284.08C397.327 2232.7 298.341 2174.41 214.264 2093.95C172.069 2055.02 137.934 2008.17 113.799 1956.07C68.0676 1852.99 82.3084 1755.89 142.528 1663.32C185.812 1596.66 245.015 1546.28 312.868 1506.96C367.805 1475.18 426.015 1449.15 482.112 1419.28C527.978 1394.94 575.029 1371.7 617.828 1342.59C686.02 1295.89 702.167 1226.07 661.152 1154.32C636.845 1113.94 609.289 1075.62 578.758 1039.72C536.751 987.959 501.596 933.145 488.398 866.836C467.69 762.059 503.22 674.53 572.511 598.266C636.034 528.359 716.193 483.859 802.668 448.34C993.912 369.365 1193.81 329.827 1399.38 315.91C1531.66 306.98 1664.38 306.707 1796.7 315.093C1891.76 320.74 1986.7 326.967 2081.39 336.431C2188.37 346.897 2294.18 367.018 2397.54 396.548C2481.7 420.738 2565.05 447.92 2639.47 496.252C2676.13 519.271 2708.86 548.007 2736.43 581.372C2809.44 671.549 2811.95 773.415 2744.82 868.022C2712.62 913.153 2670.36 947.611 2628.03 982.121C2577.34 1023.14 2525.77 1063.24 2476.99 1106.46C2438.18 1140.09 2408.63 1183.1 2391.16 1231.39C2371.45 1285.76 2372.83 1345.55 2395.05 1398.94C2416.72 1452.8 2442.73 1505.04 2469.26 1556.71C2506.08 1628.63 2536.42 1702.13 2541.95 1783.94C2550.39 1909.07 2504.62 2013.19 2419.18 2101.45C2340.39 2182.92 2244.78 2239.55 2142.09 2284.69C1919.71 2382.45 1685.72 2432.45 1444.6 2451.38C1342.86 2459.61 1240.61 2459.3 1138.92 2450.45C1060.27 2444.27 982.878 2432.51 905.199 2422.83Z" fill="url(#paint0_linear_2_2)"/>
<defs>
<filter id="filter0_f_2_2" x="56.8124" y="279.002" width="2766.44" height="2208.33" filterUnits="userSpaceOnUse" color-interpolation-filters="sRGB">
<feFlood flood-opacity="0" result="BackgroundImageFix"/>
<feBlend mode="normal" in="SourceGraphic" in2="BackgroundImageFix" result="shape"/>
<feGaussianBlur stdDeviation="15" result="effect1_foregroundBlur_2_2"/>
</filter>
<filter id="filter1_f_2_2" x="36.8124" y="259.002" width="2806.44" height="2248.33" filterUnits="userSpaceOnUse" color-interpolation-filters="sRGB">
<feFlood flood-opacity="0" result="BackgroundImageFix"/>
<feBlend mode="normal" in="SourceGraphic" in2="BackgroundImageFix" result="shape"/>
<feGaussianBlur stdDeviation="25" result="effect1_foregroundBlur_2_2"/>
</filter>
<linearGradient id="paint0_linear_2_2" x1="602" y1="520" x2="2419.71" y2="2655.32" gradientUnits="userSpaceOnUse">
<stop stop-color="#0C1C2E"/>
<stop offset="1"/>
</linearGradient>
</defs>
</svg>
