<svg width="630" height="666" viewBox="0 0 630 666" fill="none" xmlns="http://www.w3.org/2000/svg">
<mask id="path-1-inside-1_148_323" fill="white">
<path d="M333.014 666C245.309 666 162.041 630.993 98.5098 567.605C34.9783 504.218 0 420.662 0 333.014C0 299.045 3.31343 250.121 32.2123 217.592C43.7373 204.482 57.5961 193.965 70.9075 183.795C86.6103 171.78 102.86 159.362 115.682 142.622C125.104 130.319 133.114 117.497 140.864 105.165C158.469 77.1598 174.863 50.7387 205.721 31.4344C238.942 10.6894 281.757 0 333.014 0H333.648C420.979 0 503.93 34.7766 567.26 97.9624C630.59 161.148 666 244.906 666 332.986C666 421.065 630.993 504.045 567.605 567.605C504.218 631.166 420.662 666 333.014 666ZM333.648 2.04568H333.014C282.132 2.04568 239.691 12.6199 206.816 33.1631C176.332 52.237 159.938 78.4563 142.593 106.203C134.814 118.621 126.775 131.471 117.296 143.861C104.301 160.831 87.9644 173.336 72.0312 185.408C58.9215 195.521 45.2356 205.98 33.7394 218.975C5.30149 250.957 2.04568 299.39 2.04568 333.014C2.04568 512.401 153.657 663.983 333.014 663.983C512.372 663.983 663.954 512.401 663.954 333.014C663.954 245.569 629.12 162.618 565.819 99.4606C502.518 36.3037 420.431 2.04568 333.648 2.04568Z"/>
</mask>
<path d="M333.014 666C245.309 666 162.041 630.993 98.5098 567.605C34.9783 504.218 0 420.662 0 333.014C0 299.045 3.31343 250.121 32.2123 217.592C43.7373 204.482 57.5961 193.965 70.9075 183.795C86.6103 171.78 102.86 159.362 115.682 142.622C125.104 130.319 133.114 117.497 140.864 105.165C158.469 77.1598 174.863 50.7387 205.721 31.4344C238.942 10.6894 281.757 0 333.014 0H333.648C420.979 0 503.93 34.7766 567.26 97.9624C630.59 161.148 666 244.906 666 332.986C666 421.065 630.993 504.045 567.605 567.605C504.218 631.166 420.662 666 333.014 666ZM333.648 2.04568H333.014C282.132 2.04568 239.691 12.6199 206.816 33.1631C176.332 52.237 159.938 78.4563 142.593 106.203C134.814 118.621 126.775 131.471 117.296 143.861C104.301 160.831 87.9644 173.336 72.0312 185.408C58.9215 195.521 45.2356 205.98 33.7394 218.975C5.30149 250.957 2.04568 299.39 2.04568 333.014C2.04568 512.401 153.657 663.983 333.014 663.983C512.372 663.983 663.954 512.401 663.954 333.014C663.954 245.569 629.12 162.618 565.819 99.4606C502.518 36.3037 420.431 2.04568 333.648 2.04568Z" fill="url(#paint0_linear_148_323)" stroke="url(#paint1_linear_148_323)" stroke-width="2" mask="url(#path-1-inside-1_148_323)"/>
<mask id="path-2-inside-2_148_323" fill="white">
<path d="M333.014 637.245C250.956 637.245 166.565 599.789 107.268 536.69C54.5705 480.736 27.8901 411.298 32.0968 341.197C34.978 294.031 62.9261 270.174 92.6029 244.906C111.994 228.368 132.076 211.224 145.618 186.647C150.746 177.37 155.414 168.063 160.024 159.074C175.727 127.985 190.565 98.5674 219.839 74.5667C252.224 47.9439 292.1 38.3206 333.504 30.0226C410.635 14.6079 473.216 49.3846 512.141 81.28C550.258 113.175 581.206 152.763 602.958 197.452C625.489 243.004 637.389 289.882 637.389 333.014C637.389 413.142 605.436 489.236 547.408 547.264C489.379 605.292 413.142 637.245 333.014 637.245ZM371.104 28.121C358.525 28.1192 345.978 29.374 333.648 31.8666C292.504 40.0781 252.973 49.6727 220.818 76.0073C192.006 99.8352 177.11 129.022 161.494 159.938C156.941 168.927 152.245 178.234 147.087 187.54C133.488 212.434 113.29 229.664 93.7554 246.347C64.4243 271.327 36.7644 294.924 33.9696 341.428C29.7918 411.01 56.2992 479.929 108.623 535.537C167.573 598.118 251.446 635.488 333.014 635.488C412.623 635.488 488.256 603.794 545.938 546.169C603.621 488.544 635.257 412.854 635.257 333.245C635.257 246.001 584.057 143.083 510.701 82.9511C478.719 56.4148 430.4 28.121 371.104 28.121Z"/>
</mask>
<path d="M333.014 637.245C250.956 637.245 166.565 599.789 107.268 536.69C54.5705 480.736 27.8901 411.298 32.0968 341.197C34.978 294.031 62.9261 270.174 92.6029 244.906C111.994 228.368 132.076 211.224 145.618 186.647C150.746 177.37 155.414 168.063 160.024 159.074C175.727 127.985 190.565 98.5674 219.839 74.5667C252.224 47.9439 292.1 38.3206 333.504 30.0226C410.635 14.6079 473.216 49.3846 512.141 81.28C550.258 113.175 581.206 152.763 602.958 197.452C625.489 243.004 637.389 289.882 637.389 333.014C637.389 413.142 605.436 489.236 547.408 547.264C489.379 605.292 413.142 637.245 333.014 637.245ZM371.104 28.121C358.525 28.1192 345.978 29.374 333.648 31.8666C292.504 40.0781 252.973 49.6727 220.818 76.0073C192.006 99.8352 177.11 129.022 161.494 159.938C156.941 168.927 152.245 178.234 147.087 187.54C133.488 212.434 113.29 229.664 93.7554 246.347C64.4243 271.327 36.7644 294.924 33.9696 341.428C29.7918 411.01 56.2992 479.929 108.623 535.537C167.573 598.118 251.446 635.488 333.014 635.488C412.623 635.488 488.256 603.794 545.938 546.169C603.621 488.544 635.257 412.854 635.257 333.245C635.257 246.001 584.057 143.083 510.701 82.9511C478.719 56.4148 430.4 28.121 371.104 28.121Z" fill="url(#paint2_linear_148_323)" stroke="url(#paint3_linear_148_323)" stroke-width="2" mask="url(#path-2-inside-2_148_323)"/>
<mask id="path-3-inside-3_148_323" fill="white">
<path d="M334.541 608.49H332.985C254.385 607.943 156.163 558.674 104.503 493.702C70.5903 451.059 58.0569 404.585 68.2854 359.32C73.6733 335.406 88.2812 325.84 106.779 313.71L113.579 309.215C145.272 287.837 159.851 263.116 174.085 227.302C188.059 192.381 206.412 152.706 236.608 123.577C255.048 105.771 278.04 93.4101 300.283 81.4818C311.808 75.3735 323.506 69.0348 334.484 62.0622C364.42 43.0748 399.946 44.5154 440.11 66.3552C467.021 80.9055 495.574 104.301 527.556 137.81C579.735 192.554 608.49 261.877 608.49 333.015C608.49 404.153 578.324 475.406 525.77 527.758C473.216 580.11 405.506 608.49 334.541 608.49ZM379.806 50.4796C364.069 50.4013 348.647 54.8848 335.406 63.3876C324.371 70.389 312.557 76.7277 301.119 82.8648C278.962 94.7355 256.085 107.038 237.731 124.672C207.853 153.715 189.586 193.044 175.756 227.936C161.35 263.922 146.655 288.989 114.501 310.598L107.701 315.122C89.5201 327.022 75.1715 336.443 69.9277 359.666C59.8433 404.441 72.2327 450.397 105.828 492.636C157.201 557.262 254.846 606.358 333.014 606.791C404.066 607.252 472.121 578.727 524.559 526.577C576.998 474.426 606.79 404.066 606.79 333.015C606.79 261.963 578.208 193.418 526.346 138.963C494.508 105.598 466.041 82.2885 439.332 67.767C418.126 56.2421 398.217 50.4796 379.806 50.4796Z"/>
</mask>
<path d="M334.541 608.49H332.985C254.385 607.943 156.163 558.674 104.503 493.702C70.5903 451.059 58.0569 404.585 68.2854 359.32C73.6733 335.406 88.2812 325.84 106.779 313.71L113.579 309.215C145.272 287.837 159.851 263.116 174.085 227.302C188.059 192.381 206.412 152.706 236.608 123.577C255.048 105.771 278.04 93.4101 300.283 81.4818C311.808 75.3735 323.506 69.0348 334.484 62.0622C364.42 43.0748 399.946 44.5154 440.11 66.3552C467.021 80.9055 495.574 104.301 527.556 137.81C579.735 192.554 608.49 261.877 608.49 333.015C608.49 404.153 578.324 475.406 525.77 527.758C473.216 580.11 405.506 608.49 334.541 608.49ZM379.806 50.4796C364.069 50.4013 348.647 54.8848 335.406 63.3876C324.371 70.389 312.557 76.7277 301.119 82.8648C278.962 94.7355 256.085 107.038 237.731 124.672C207.853 153.715 189.586 193.044 175.756 227.936C161.35 263.922 146.655 288.989 114.501 310.598L107.701 315.122C89.5201 327.022 75.1715 336.443 69.9277 359.666C59.8433 404.441 72.2327 450.397 105.828 492.636C157.201 557.262 254.846 606.358 333.014 606.791C404.066 607.252 472.121 578.727 524.559 526.577C576.998 474.426 606.79 404.066 606.79 333.015C606.79 261.963 578.208 193.418 526.346 138.963C494.508 105.598 466.041 82.2885 439.332 67.767C418.126 56.2421 398.217 50.4796 379.806 50.4796Z" fill="url(#paint4_linear_148_323)" stroke="url(#paint5_linear_148_323)" stroke-width="2" mask="url(#path-3-inside-3_148_323)"/>
<mask id="path-4-inside-4_148_323" fill="white">
<path d="M332.755 579.736C267.482 579.187 204.981 553.273 158.469 507.474C150.055 499.061 77.0446 423.918 105.338 379.547C112.081 369.001 122.626 364.507 133.834 359.724C140.184 357.274 146.282 354.215 152.043 350.59C173.797 336.184 183.363 310.599 192.611 285.993C195.493 278.184 198.547 270.117 201.889 262.741C214.278 235.254 232.056 200.074 259.514 171.895C269.368 161.84 279.279 153.484 288.845 145.417C306.132 130.838 322.498 117.094 336.097 95.3118C346.326 78.9463 359.58 69.9568 375.542 68.6026C407.812 65.7214 452.068 94.7355 503.498 152.159C553.948 208.574 579.563 269.397 579.563 332.986C579.563 397.238 553.372 458.752 505.86 506.177C459.127 552.825 396.056 579.62 332.986 579.707L332.755 579.736ZM380.065 69.928C378.625 69.928 377.213 69.9856 375.83 70.1009C360.386 71.4263 347.507 80.1852 337.567 96.0321C323.823 117.987 307.4 131.846 289.998 146.483C280.461 154.521 270.578 162.848 260.782 172.875C239.403 194.715 221.683 222.605 203.358 263.288C200.045 270.607 197.164 278.3 194.11 286.338C184.774 311.175 175.122 336.875 152.965 351.685C147.119 355.341 140.945 358.446 134.525 360.963C123.548 365.918 113.175 370.211 106.606 380.325C84.1325 415.562 129.282 476.126 159.506 506.35C205.721 551.833 267.801 577.578 332.64 578.151H332.899C465.811 578.007 578.093 465.782 578.093 332.957C578.093 269.771 552.623 209.265 502.432 153.167C453.652 98.5964 411.442 69.928 380.065 69.928Z"/>
</mask>
<path d="M332.755 579.736C267.482 579.187 204.981 553.273 158.469 507.474C150.055 499.061 77.0446 423.918 105.338 379.547C112.081 369.001 122.626 364.507 133.834 359.724C140.184 357.274 146.282 354.215 152.043 350.59C173.797 336.184 183.363 310.599 192.611 285.993C195.493 278.184 198.547 270.117 201.889 262.741C214.278 235.254 232.056 200.074 259.514 171.895C269.368 161.84 279.279 153.484 288.845 145.417C306.132 130.838 322.498 117.094 336.097 95.3118C346.326 78.9463 359.58 69.9568 375.542 68.6026C407.812 65.7214 452.068 94.7355 503.498 152.159C553.948 208.574 579.563 269.397 579.563 332.986C579.563 397.238 553.372 458.752 505.86 506.177C459.127 552.825 396.056 579.62 332.986 579.707L332.755 579.736ZM380.065 69.928C378.625 69.928 377.213 69.9856 375.83 70.1009C360.386 71.4263 347.507 80.1852 337.567 96.0321C323.823 117.987 307.4 131.846 289.998 146.483C280.461 154.521 270.578 162.848 260.782 172.875C239.403 194.715 221.683 222.605 203.358 263.288C200.045 270.607 197.164 278.3 194.11 286.338C184.774 311.175 175.122 336.875 152.965 351.685C147.119 355.341 140.945 358.446 134.525 360.963C123.548 365.918 113.175 370.211 106.606 380.325C84.1325 415.562 129.282 476.126 159.506 506.35C205.721 551.833 267.801 577.578 332.64 578.151H332.899C465.811 578.007 578.093 465.782 578.093 332.957C578.093 269.771 552.623 209.265 502.432 153.167C453.652 98.5964 411.442 69.928 380.065 69.928Z" fill="url(#paint6_linear_148_323)" stroke="url(#paint7_linear_148_323)" stroke-width="2" mask="url(#path-4-inside-4_148_323)"/>
<mask id="path-5-inside-5_148_323" fill="white">
<path d="M337.106 551.009H332.87C272.681 549.597 219.464 527.469 178.954 486.959C178.435 486.441 126.4 434.002 130.895 406.716C131.304 404.02 132.387 401.471 134.044 399.305C135.701 397.139 137.879 395.427 140.374 394.327C186.82 371.277 202.523 343.416 228.511 297.114L229.808 294.809C243.379 270.693 260.292 242.946 282.852 219.522C313.739 187.569 327.425 170.541 338.345 129.137C344.654 105.309 355.171 91.681 369.635 88.2235C394.212 82.6051 429.882 106.865 475.694 160.255C525.827 218.773 550.433 275.245 550.836 332.957C551.269 389.343 527.009 445.815 484.308 487.852C443.539 528.161 390.092 551.009 337.106 551.009ZM377.04 88.7422C374.695 88.7383 372.357 88.9895 370.067 89.4913C356.122 92.6895 345.922 106.116 339.756 129.425C328.75 171.059 315.006 188.289 283.918 220.415C261.473 243.667 244.618 271.384 231.105 295.328L229.808 297.633C203.675 344.165 187.886 372.257 141.094 395.393C138.803 396.435 136.81 398.037 135.3 400.051C133.789 402.065 132.81 404.426 132.451 406.918C128.071 433.541 179.646 485.461 180.164 485.98C220.502 526.317 273.344 548.243 333.158 549.626C387.095 550.865 441.897 528.017 483.646 486.959C526.087 445.181 550.174 388.997 549.77 333.014C549.338 275.649 524.876 219.435 474.858 161.177C433.57 113.06 400.724 88.7422 377.04 88.7422Z"/>
</mask>
<path d="M337.106 551.009H332.87C272.681 549.597 219.464 527.469 178.954 486.959C178.435 486.441 126.4 434.002 130.895 406.716C131.304 404.02 132.387 401.471 134.044 399.305C135.701 397.139 137.879 395.427 140.374 394.327C186.82 371.277 202.523 343.416 228.511 297.114L229.808 294.809C243.379 270.693 260.292 242.946 282.852 219.522C313.739 187.569 327.425 170.541 338.345 129.137C344.654 105.309 355.171 91.681 369.635 88.2235C394.212 82.6051 429.882 106.865 475.694 160.255C525.827 218.773 550.433 275.245 550.836 332.957C551.269 389.343 527.009 445.815 484.308 487.852C443.539 528.161 390.092 551.009 337.106 551.009ZM377.04 88.7422C374.695 88.7383 372.357 88.9895 370.067 89.4913C356.122 92.6895 345.922 106.116 339.756 129.425C328.75 171.059 315.006 188.289 283.918 220.415C261.473 243.667 244.618 271.384 231.105 295.328L229.808 297.633C203.675 344.165 187.886 372.257 141.094 395.393C138.803 396.435 136.81 398.037 135.3 400.051C133.789 402.065 132.81 404.426 132.451 406.918C128.071 433.541 179.646 485.461 180.164 485.98C220.502 526.317 273.344 548.243 333.158 549.626C387.095 550.865 441.897 528.017 483.646 486.959C526.087 445.181 550.174 388.997 549.77 333.014C549.338 275.649 524.876 219.435 474.858 161.177C433.57 113.06 400.724 88.7422 377.04 88.7422Z" stroke="url(#paint8_linear_148_323)" stroke-width="2" mask="url(#path-5-inside-5_148_323)"/>
<mask id="path-6-inside-6_148_323" fill="white">
<path d="M337.884 522.284C336.242 522.284 334.599 522.284 332.986 522.284C279.683 520.641 234.735 501.913 199.44 466.647C192.583 459.789 158.526 424.638 162.33 406.486C162.797 404.383 163.81 402.439 165.266 400.851C166.723 399.263 168.572 398.086 170.628 397.439C207.392 383.033 234.966 351.541 257.065 322.527C265.709 311.319 275.447 300.687 284.955 290.43C294.464 280.172 304.26 269.569 312.615 258.534C334.138 230.183 336.789 202.955 340.102 168.467L340.679 162.704C340.996 159.419 341.226 155.731 341.457 151.813C342.753 129.973 344.568 99.9505 368.627 100.527C393.233 100.844 426.425 141.181 442.473 160.457C443.626 161.811 444.663 163.079 445.614 164.231C496.641 225.342 521.563 280.316 521.765 332.265C521.967 382.63 500.386 432.619 462.527 469.441C427.836 503.181 382.658 522.284 337.884 522.284ZM368.108 101.622C345.606 101.622 343.963 129.426 342.609 151.813C342.379 155.731 342.148 159.448 341.831 162.762L341.284 168.524C337.913 203.099 335.262 230.557 313.537 259.197C305.153 270.261 295.328 280.864 285.82 291.15C276.312 301.436 266.515 312.01 257.987 323.161C235.801 352.29 208.084 383.984 171.06 398.448C169.187 399.027 167.499 400.088 166.164 401.524C164.83 402.959 163.895 404.72 163.453 406.63C159.794 424.206 193.476 458.954 200.276 465.725C235.34 500.789 280.028 519.402 333.015 521.045C379.115 522.456 425.992 503.354 461.72 468.606C499.349 431.985 520.814 382.313 520.613 332.294C520.411 280.605 495.575 225.861 444.721 164.951L441.58 161.177C425.704 141.988 392.599 102.054 368.598 101.622H368.108Z"/>
</mask>
<path d="M337.884 522.284C336.242 522.284 334.599 522.284 332.986 522.284C279.683 520.641 234.735 501.913 199.44 466.647C192.583 459.789 158.526 424.638 162.33 406.486C162.797 404.383 163.81 402.439 165.266 400.851C166.723 399.263 168.572 398.086 170.628 397.439C207.392 383.033 234.966 351.541 257.065 322.527C265.709 311.319 275.447 300.687 284.955 290.43C294.464 280.172 304.26 269.569 312.615 258.534C334.138 230.183 336.789 202.955 340.102 168.467L340.679 162.704C340.996 159.419 341.226 155.731 341.457 151.813C342.753 129.973 344.568 99.9505 368.627 100.527C393.233 100.844 426.425 141.181 442.473 160.457C443.626 161.811 444.663 163.079 445.614 164.231C496.641 225.342 521.563 280.316 521.765 332.265C521.967 382.63 500.386 432.619 462.527 469.441C427.836 503.181 382.658 522.284 337.884 522.284ZM368.108 101.622C345.606 101.622 343.963 129.426 342.609 151.813C342.379 155.731 342.148 159.448 341.831 162.762L341.284 168.524C337.913 203.099 335.262 230.557 313.537 259.197C305.153 270.261 295.328 280.864 285.82 291.15C276.312 301.436 266.515 312.01 257.987 323.161C235.801 352.29 208.084 383.984 171.06 398.448C169.187 399.027 167.499 400.088 166.164 401.524C164.83 402.959 163.895 404.72 163.453 406.63C159.794 424.206 193.476 458.954 200.276 465.725C235.34 500.789 280.028 519.402 333.015 521.045C379.115 522.456 425.992 503.354 461.72 468.606C499.349 431.985 520.814 382.313 520.613 332.294C520.411 280.605 495.575 225.861 444.721 164.951L441.58 161.177C425.704 141.988 392.599 102.054 368.598 101.622H368.108Z" stroke="url(#paint9_linear_148_323)" stroke-width="2" mask="url(#path-6-inside-6_148_323)"/>
<mask id="path-7-inside-7_148_323" fill="white">
<path d="M338.604 493.558C336.731 493.558 334.859 493.558 332.842 493.558C288.125 491.627 248.825 475.406 219.551 446.593L218.975 445.729C211.772 438.641 189.845 416.916 192.756 404.441C193.303 402.561 194.347 400.863 195.776 399.525C197.206 398.186 198.969 397.257 200.881 396.834C228.858 387.556 254.76 371.047 282.391 344.972C287.232 340.391 293.052 335.694 299.218 330.565C310.454 321.518 322.066 312.154 328.866 302.473C346.153 277.839 344.655 243.408 343.272 213.155C343.012 206.989 342.753 201.169 342.638 195.493C342.638 193.245 342.35 189.73 342.033 185.61C340.506 164.692 337.625 125.709 352.982 119.341C369.981 112.398 402.597 152.274 413.488 165.441L415.332 167.689C447.025 205.663 485.461 263.836 488.976 325.235C490.194 347.953 486.653 370.675 478.581 391.945C470.508 413.215 458.082 432.565 442.099 448.754C413.286 477.74 376.809 493.558 338.604 493.558ZM357.275 119.514C355.912 119.49 354.559 119.744 353.299 120.263C338.633 126.228 341.485 164.75 343.012 185.437C343.329 189.701 343.56 193.072 343.618 195.377C343.618 201.14 343.963 206.902 344.223 213.011C345.548 243.523 347.104 278.127 329.586 303.021C322.7 312.817 311.031 322.239 299.736 331.343C293.599 336.299 287.779 340.996 282.967 345.548C255.221 371.854 229.203 388.45 201.111 397.756C199.36 398.13 197.742 398.969 196.428 400.187C195.115 401.404 194.154 402.953 193.649 404.671C190.767 416.715 212.463 438.036 219.58 445.009L220.3 445.729C249.401 474.541 288.384 490.619 333.072 492.434C373.035 494.047 411.442 478.258 441.234 447.976C457.119 431.878 469.468 412.64 477.49 391.494C485.513 370.349 489.033 347.761 487.824 325.178C484.309 264.066 445.959 206.096 414.41 168.236L412.537 165.989C387.211 135.102 368.8 119.514 357.275 119.514Z"/>
</mask>
<path d="M338.604 493.558C336.731 493.558 334.859 493.558 332.842 493.558C288.125 491.627 248.825 475.406 219.551 446.593L218.975 445.729C211.772 438.641 189.845 416.916 192.756 404.441C193.303 402.561 194.347 400.863 195.776 399.525C197.206 398.186 198.969 397.257 200.881 396.834C228.858 387.556 254.76 371.047 282.391 344.972C287.232 340.391 293.052 335.694 299.218 330.565C310.454 321.518 322.066 312.154 328.866 302.473C346.153 277.839 344.655 243.408 343.272 213.155C343.012 206.989 342.753 201.169 342.638 195.493C342.638 193.245 342.35 189.73 342.033 185.61C340.506 164.692 337.625 125.709 352.982 119.341C369.981 112.398 402.597 152.274 413.488 165.441L415.332 167.689C447.025 205.663 485.461 263.836 488.976 325.235C490.194 347.953 486.653 370.675 478.581 391.945C470.508 413.215 458.082 432.565 442.099 448.754C413.286 477.74 376.809 493.558 338.604 493.558ZM357.275 119.514C355.912 119.49 354.559 119.744 353.299 120.263C338.633 126.228 341.485 164.75 343.012 185.437C343.329 189.701 343.56 193.072 343.618 195.377C343.618 201.14 343.963 206.902 344.223 213.011C345.548 243.523 347.104 278.127 329.586 303.021C322.7 312.817 311.031 322.239 299.736 331.343C293.599 336.299 287.779 340.996 282.967 345.548C255.221 371.854 229.203 388.45 201.111 397.756C199.36 398.13 197.742 398.969 196.428 400.187C195.115 401.404 194.154 402.953 193.649 404.671C190.767 416.715 212.463 438.036 219.58 445.009L220.3 445.729C249.401 474.541 288.384 490.619 333.072 492.434C373.035 494.047 411.442 478.258 441.234 447.976C457.119 431.878 469.468 412.64 477.49 391.494C485.513 370.349 489.033 347.761 487.824 325.178C484.309 264.066 445.959 206.096 414.41 168.236L412.537 165.989C387.211 135.102 368.8 119.514 357.275 119.514Z" fill="url(#paint10_linear_148_323)" stroke="url(#paint11_linear_148_323)" stroke-width="2" mask="url(#path-7-inside-7_148_323)"/>
<mask id="path-8-inside-8_148_323" fill="white">
<path d="M339.67 464.889C337.451 464.889 335.233 464.889 332.985 464.687C294.694 462.325 264.671 450.483 241.218 428.441L239.23 426.597C232.315 420.23 221.942 410.606 223.44 403.115C224.103 400.003 226.811 397.583 231.565 395.941C256.854 387.298 281.093 375.846 303.827 361.798C352.981 331.343 349.697 293.887 345.115 242.025C344.683 237.011 344.222 231.854 343.819 226.524C343.646 224.593 343.156 221.193 342.522 216.929C339.41 195.55 332.899 151.006 348.63 144.898C358.917 140.893 378.48 164.692 385.827 173.71L387.902 176.188C423.543 217.477 447.457 267.697 453.277 314.056C458.636 356.612 444.835 401.329 417.291 430.718C407.427 441.481 395.433 450.078 382.071 455.96C368.709 461.843 354.27 464.883 339.67 464.889V464.889ZM351.195 145.359C350.408 145.345 349.625 145.482 348.89 145.762C333.763 151.525 340.246 195.752 343.3 216.929C343.934 221.222 344.424 224.593 344.597 226.581C345 231.883 345.461 237.069 345.893 242.082C350.474 293.945 353.788 331.689 304.23 362.49C281.433 376.556 257.138 388.036 231.796 396.719C227.359 398.246 224.795 400.464 224.189 403.288C222.72 410.318 233.381 420.143 239.748 426.021L241.765 427.865C265.074 449.763 294.924 461.547 332.985 463.881C348.563 464.947 364.18 462.458 378.655 456.603C393.13 450.748 406.085 441.68 416.541 430.084C443.942 400.897 457.657 356.439 452.355 314.085C446.593 267.985 422.765 217.88 387.153 176.793L385.078 174.287C378.48 166.104 361.423 145.359 351.224 145.359H351.195Z"/>
</mask>
<path d="M339.67 464.889C337.451 464.889 335.233 464.889 332.985 464.687C294.694 462.325 264.671 450.483 241.218 428.441L239.23 426.597C232.315 420.23 221.942 410.606 223.44 403.115C224.103 400.003 226.811 397.583 231.565 395.941C256.854 387.298 281.093 375.846 303.827 361.798C352.981 331.343 349.697 293.887 345.115 242.025C344.683 237.011 344.222 231.854 343.819 226.524C343.646 224.593 343.156 221.193 342.522 216.929C339.41 195.55 332.899 151.006 348.63 144.898C358.917 140.893 378.48 164.692 385.827 173.71L387.902 176.188C423.543 217.477 447.457 267.697 453.277 314.056C458.636 356.612 444.835 401.329 417.291 430.718C407.427 441.481 395.433 450.078 382.071 455.96C368.709 461.843 354.27 464.883 339.67 464.889V464.889ZM351.195 145.359C350.408 145.345 349.625 145.482 348.89 145.762C333.763 151.525 340.246 195.752 343.3 216.929C343.934 221.222 344.424 224.593 344.597 226.581C345 231.883 345.461 237.069 345.893 242.082C350.474 293.945 353.788 331.689 304.23 362.49C281.433 376.556 257.138 388.036 231.796 396.719C227.359 398.246 224.795 400.464 224.189 403.288C222.72 410.318 233.381 420.143 239.748 426.021L241.765 427.865C265.074 449.763 294.924 461.547 332.985 463.881C348.563 464.947 364.18 462.458 378.655 456.603C393.13 450.748 406.085 441.68 416.541 430.084C443.942 400.897 457.657 356.439 452.355 314.085C446.593 267.985 422.765 217.88 387.153 176.793L385.078 174.287C378.48 166.104 361.423 145.359 351.224 145.359H351.195Z" fill="url(#paint12_linear_148_323)" stroke="url(#paint13_linear_148_323)" stroke-width="2" mask="url(#path-8-inside-8_148_323)"/>
<mask id="path-9-inside-9_148_323" fill="white">
<path d="M334.513 436.048H333.043C329.442 436.048 258.477 417.003 255.74 402.683C255.163 399.802 257.382 397.209 262.338 395.134C269.577 392.329 276.976 389.953 284.494 388.017C297.662 384.329 311.29 380.469 321.461 374.072C336.443 364.651 345.058 349.841 347.853 328.865C350.273 310.512 347.853 289.796 345.807 271.557C345.173 266.054 344.597 260.868 344.107 255.826C343.819 252.484 343.185 248.046 342.465 242.918C339.584 222.547 335.32 191.776 345.346 186.273C349.899 183.795 356.641 186.474 365.947 194.484C394.011 218.715 411.5 268.158 417.954 303.165C424.869 340.621 415.072 381.996 392.714 408.244C385.709 416.935 376.844 423.944 366.771 428.756C356.699 433.568 345.676 436.059 334.513 436.048V436.048ZM348.919 185.984C347.774 185.971 346.643 186.249 345.634 186.791C335.925 192.093 340.189 222.605 343.013 242.803C343.733 247.931 344.338 252.368 344.655 255.739C345.116 260.782 345.721 265.968 346.355 271.442C348.429 289.738 350.821 310.483 348.372 329.067C345.49 350.244 336.847 365.198 321.72 374.735C311.463 381.189 297.806 385.021 284.581 388.738C277.085 390.677 269.707 393.043 262.482 395.826C257.843 397.785 255.768 400.09 256.258 402.683C257.382 408.445 270.492 415.908 294.175 424.263C306.845 428.854 319.799 432.618 332.957 435.529H334.426C345.507 435.542 356.449 433.068 366.447 428.291C376.445 423.514 385.244 416.555 392.195 407.927C414.352 381.823 424.206 340.765 417.291 303.366C410.866 268.475 393.434 219.148 365.429 195.06C358.686 188.981 353.126 185.984 349.005 185.984H348.919Z"/>
</mask>
<path d="M334.513 436.048H333.043C329.442 436.048 258.477 417.003 255.74 402.683C255.163 399.802 257.382 397.209 262.338 395.134C269.577 392.329 276.976 389.953 284.494 388.017C297.662 384.329 311.29 380.469 321.461 374.072C336.443 364.651 345.058 349.841 347.853 328.865C350.273 310.512 347.853 289.796 345.807 271.557C345.173 266.054 344.597 260.868 344.107 255.826C343.819 252.484 343.185 248.046 342.465 242.918C339.584 222.547 335.32 191.776 345.346 186.273C349.899 183.795 356.641 186.474 365.947 194.484C394.011 218.715 411.5 268.158 417.954 303.165C424.869 340.621 415.072 381.996 392.714 408.244C385.709 416.935 376.844 423.944 366.771 428.756C356.699 433.568 345.676 436.059 334.513 436.048V436.048ZM348.919 185.984C347.774 185.971 346.643 186.249 345.634 186.791C335.925 192.093 340.189 222.605 343.013 242.803C343.733 247.931 344.338 252.368 344.655 255.739C345.116 260.782 345.721 265.968 346.355 271.442C348.429 289.738 350.821 310.483 348.372 329.067C345.49 350.244 336.847 365.198 321.72 374.735C311.463 381.189 297.806 385.021 284.581 388.738C277.085 390.677 269.707 393.043 262.482 395.826C257.843 397.785 255.768 400.09 256.258 402.683C257.382 408.445 270.492 415.908 294.175 424.263C306.845 428.854 319.799 432.618 332.957 435.529H334.426C345.507 435.542 356.449 433.068 366.447 428.291C376.445 423.514 385.244 416.555 392.195 407.927C414.352 381.823 424.206 340.765 417.291 303.366C410.866 268.475 393.434 219.148 365.429 195.06C358.686 188.981 353.126 185.984 349.005 185.984H348.919Z" fill="url(#paint14_linear_148_323)" stroke="url(#paint15_linear_148_323)" stroke-width="2" mask="url(#path-9-inside-9_148_323)"/>
<mask id="path-10-inside-10_148_323" fill="white">
<path d="M313.221 411.327C302.675 411.327 292.879 408.734 285.359 400.263L285.215 400.061H285.388C286.137 399.485 286.944 398.793 287.693 398.131C289.065 396.844 290.583 395.722 292.216 394.788C329.672 377.703 345.865 342.119 343.387 282.823C343.387 281.469 343.07 279.02 342.696 275.937C341.025 261.963 337.97 235.974 345.865 229.52C346.916 228.73 348.156 228.231 349.462 228.074C350.767 227.917 352.091 228.108 353.299 228.627C371.22 234.389 380.21 273.92 384.531 292.821C384.906 294.435 385.223 295.702 385.511 297.057C388.679 311.415 389.138 326.238 386.865 340.765C384.828 355.629 379.652 369.89 371.681 382.601C362.086 397.209 349.034 406.371 333.937 409.051C327.111 410.411 320.179 411.172 313.221 411.327V411.327ZM285.878 400.119C297.979 413.661 316.188 411.644 333.821 408.59C348.775 405.939 361.741 396.863 371.278 382.341C386.001 359.925 391.677 324.716 385.079 297.028C384.791 295.818 384.474 294.377 384.099 292.792C379.806 273.949 370.845 234.735 353.155 228.915C352.02 228.418 350.775 228.232 349.545 228.373C348.315 228.515 347.145 228.98 346.153 229.722C338.431 236.032 341.63 262.856 343.272 275.822C343.647 278.933 343.935 281.383 343.992 282.737C345.145 310.714 342.148 333.014 334.83 350.965C331.04 360.751 325.356 369.693 318.103 377.278C310.849 384.863 302.17 390.94 292.562 395.163C290.961 396.058 289.48 397.152 288.154 398.419C287.289 398.937 286.569 399.571 285.878 400.119Z"/>
</mask>
<path d="M313.221 411.327C302.675 411.327 292.879 408.734 285.359 400.263L285.215 400.061H285.388C286.137 399.485 286.944 398.793 287.693 398.131C289.065 396.844 290.583 395.722 292.216 394.788C329.672 377.703 345.865 342.119 343.387 282.823C343.387 281.469 343.07 279.02 342.696 275.937C341.025 261.963 337.97 235.974 345.865 229.52C346.916 228.73 348.156 228.231 349.462 228.074C350.767 227.917 352.091 228.108 353.299 228.627C371.22 234.389 380.21 273.92 384.531 292.821C384.906 294.435 385.223 295.702 385.511 297.057C388.679 311.415 389.138 326.238 386.865 340.765C384.828 355.629 379.652 369.89 371.681 382.601C362.086 397.209 349.034 406.371 333.937 409.051C327.111 410.411 320.179 411.172 313.221 411.327V411.327ZM285.878 400.119C297.979 413.661 316.188 411.644 333.821 408.59C348.775 405.939 361.741 396.863 371.278 382.341C386.001 359.925 391.677 324.716 385.079 297.028C384.791 295.818 384.474 294.377 384.099 292.792C379.806 273.949 370.845 234.735 353.155 228.915C352.02 228.418 350.775 228.232 349.545 228.373C348.315 228.515 347.145 228.98 346.153 229.722C338.431 236.032 341.63 262.856 343.272 275.822C343.647 278.933 343.935 281.383 343.992 282.737C345.145 310.714 342.148 333.014 334.83 350.965C331.04 360.751 325.356 369.693 318.103 377.278C310.849 384.863 302.17 390.94 292.562 395.163C290.961 396.058 289.48 397.152 288.154 398.419C287.289 398.937 286.569 399.571 285.878 400.119Z" fill="url(#paint16_linear_148_323)" stroke="url(#paint17_linear_148_323)" stroke-width="2" mask="url(#path-10-inside-10_148_323)"/>
<mask id="path-11-inside-11_148_323" fill="white">
<path d="M315.843 393.722C315.373 393.744 314.904 393.675 314.46 393.52C314.244 393.449 314.052 393.321 313.905 393.148C313.757 392.975 313.66 392.765 313.624 392.541C313.624 391.446 314.748 389.832 317.168 387.96C343.964 367.416 342.897 321.461 341.918 307.861C341.198 297.546 341.169 284.35 347.68 273.862V273.689V273.834C354.624 280.72 358.687 290.401 360.156 303.395C361.756 317.858 360.78 332.491 357.275 346.614C353.126 362.835 345.491 375.657 335.233 383.695C326.849 390.553 319.444 393.722 315.843 393.722ZM347.824 274.15C341.457 284.552 341.486 297.604 342.062 307.832C343.115 321.949 342.144 336.143 339.181 349.985C335.147 367.272 327.656 380.151 317.312 388.19C315.007 389.977 313.739 391.532 313.883 392.512C313.911 392.683 313.984 392.843 314.096 392.975C314.208 393.107 314.353 393.206 314.517 393.261C316.793 394.183 324.774 391.792 335.32 383.523C358.37 365.572 362.951 329.182 360.07 303.424C358.629 290.574 354.624 280.979 347.824 274.15Z"/>
</mask>
<path d="M315.843 393.722C315.373 393.744 314.904 393.675 314.46 393.52C314.244 393.449 314.052 393.321 313.905 393.148C313.757 392.975 313.66 392.765 313.624 392.541C313.624 391.446 314.748 389.832 317.168 387.96C343.964 367.416 342.897 321.461 341.918 307.861C341.198 297.546 341.169 284.35 347.68 273.862V273.689V273.834C354.624 280.72 358.687 290.401 360.156 303.395C361.756 317.858 360.78 332.491 357.275 346.614C353.126 362.835 345.491 375.657 335.233 383.695C326.849 390.553 319.444 393.722 315.843 393.722ZM347.824 274.15C341.457 284.552 341.486 297.604 342.062 307.832C343.115 321.949 342.144 336.143 339.181 349.985C335.147 367.272 327.656 380.151 317.312 388.19C315.007 389.977 313.739 391.532 313.883 392.512C313.911 392.683 313.984 392.843 314.096 392.975C314.208 393.107 314.353 393.206 314.517 393.261C316.793 394.183 324.774 391.792 335.32 383.523C358.37 365.572 362.951 329.182 360.07 303.424C358.629 290.574 354.624 280.979 347.824 274.15Z" stroke="url(#paint18_linear_148_323)" stroke-width="2" mask="url(#path-11-inside-11_148_323)"/>
<mask id="path-12-inside-12_148_323" fill="white">
<path d="M331.949 367.013C331.516 366.84 331.66 365.716 332.323 363.7C333.994 358.513 337.653 344.626 340.074 332.006C341.37 325.35 342.724 321.576 343.848 321.576C344.914 321.576 345.26 325.004 345.375 327.799C345.462 333.331 344.783 338.848 343.358 344.194C342.108 349.531 340.171 354.683 337.596 359.522C334.859 364.189 332.755 367.013 331.949 367.013ZM343.733 321.662C342.696 321.662 341.313 325.523 340.074 332.006C337.625 344.597 333.994 358.513 332.294 363.7C331.43 366.379 331.689 366.84 331.862 366.898C332.496 366.898 334.398 364.65 337.337 359.435C342.429 349.646 345.096 338.777 345.116 327.742C344.943 323.91 344.424 321.662 343.675 321.605L343.733 321.662Z"/>
</mask>
<path d="M331.949 367.013C331.516 366.84 331.66 365.716 332.323 363.7C333.994 358.513 337.653 344.626 340.074 332.006C341.37 325.35 342.724 321.576 343.848 321.576C344.914 321.576 345.26 325.004 345.375 327.799C345.462 333.331 344.783 338.848 343.358 344.194C342.108 349.531 340.171 354.683 337.596 359.522C334.859 364.189 332.755 367.013 331.949 367.013ZM343.733 321.662C342.696 321.662 341.313 325.523 340.074 332.006C337.625 344.597 333.994 358.513 332.294 363.7C331.43 366.379 331.689 366.84 331.862 366.898C332.496 366.898 334.398 364.65 337.337 359.435C342.429 349.646 345.096 338.777 345.116 327.742C344.943 323.91 344.424 321.662 343.675 321.605L343.733 321.662Z" stroke="url(#paint19_linear_148_323)" stroke-width="2" mask="url(#path-12-inside-12_148_323)"/>
<defs>
<linearGradient id="paint0_linear_148_323" x1="0" y1="333.014" x2="666" y2="333.014" gradientUnits="userSpaceOnUse">
<stop stop-color="#EEFF01"/>
<stop offset="0.5" stop-color="#FF80E6"/>
<stop offset="1" stop-color="#EA27C3"/>
</linearGradient>
<linearGradient id="paint1_linear_148_323" x1="87.5" y1="182" x2="642.5" y2="583.5" gradientUnits="userSpaceOnUse">
<stop stop-color="#EEFF01"/>
<stop offset="0.494792" stop-color="#EA27C3"/>
<stop offset="1" stop-color="#9E03A3"/>
</linearGradient>
<linearGradient id="paint2_linear_148_323" x1="6688.57" y1="70376" x2="134000" y2="70376" gradientUnits="userSpaceOnUse">
<stop stop-color="#EEFF01"/>
<stop offset="0.494792" stop-color="#FF80E6"/>
<stop offset="1" stop-color="#EA27C3"/>
</linearGradient>
<linearGradient id="paint3_linear_148_323" x1="87.5" y1="179.5" x2="617" y2="580.5" gradientUnits="userSpaceOnUse">
<stop stop-color="#EEFF01"/>
<stop offset="0.552083" stop-color="#EA27C3"/>
<stop offset="1" stop-color="#9E03A3"/>
</linearGradient>
<linearGradient id="paint4_linear_148_323" x1="12297.3" y1="63884.5" x2="114882" y2="63884.5" gradientUnits="userSpaceOnUse">
<stop stop-color="#EEFF01"/>
<stop offset="0.5" stop-color="#FF80E6"/>
<stop offset="1" stop-color="#EA27C3"/>
</linearGradient>
<linearGradient id="paint5_linear_148_323" x1="93.5" y1="173.5" x2="608" y2="527.5" gradientUnits="userSpaceOnUse">
<stop stop-color="#EEFF01"/>
<stop offset="0.494792" stop-color="#EA27C3"/>
<stop offset="1" stop-color="#9E03A3"/>
</linearGradient>
<linearGradient id="paint6_linear_148_323" x1="16606.3" y1="57582.6" x2="96821.5" y2="57582.6" gradientUnits="userSpaceOnUse">
<stop stop-color="#EEFF01"/>
<stop offset="0.494792" stop-color="#FF80E6"/>
<stop offset="1" stop-color="#EA27C3"/>
</linearGradient>
<linearGradient id="paint7_linear_148_323" x1="99" y1="172.5" x2="614" y2="561" gradientUnits="userSpaceOnUse">
<stop stop-color="#EEFF01"/>
<stop offset="0.536458" stop-color="#EA27C3"/>
<stop offset="1" stop-color="#9E03A3"/>
</linearGradient>
<linearGradient id="paint8_linear_148_323" x1="99.5" y1="160" x2="623" y2="513.5" gradientUnits="userSpaceOnUse">
<stop stop-color="#EEFF01"/>
<stop offset="0.520833" stop-color="#EA27C3"/>
<stop offset="1" stop-color="#9E03A3"/>
</linearGradient>
<linearGradient id="paint9_linear_148_323" x1="87.5" y1="183" x2="619.5" y2="553.5" gradientUnits="userSpaceOnUse">
<stop stop-color="#EEFF01"/>
<stop offset="0.505208" stop-color="#FF80E6"/>
<stop offset="1" stop-color="#EA27C3"/>
</linearGradient>
<linearGradient id="paint10_linear_148_323" x1="20001.5" y1="39953.3" x2="50551.7" y2="39953.3" gradientUnits="userSpaceOnUse">
<stop stop-color="#EEFF01"/>
<stop offset="0.510417" stop-color="#FF80E6"/>
<stop offset="1" stop-color="#EA27C3"/>
</linearGradient>
<linearGradient id="paint11_linear_148_323" x1="107.5" y1="159" x2="579.5" y2="556" gradientUnits="userSpaceOnUse">
<stop stop-color="#EEFF01"/>
<stop offset="0.515625" stop-color="#FF80E6"/>
<stop offset="1" stop-color="#EA27C3"/>
</linearGradient>
<linearGradient id="paint12_linear_148_323" x1="18133" y1="34034.3" x2="36675.9" y2="34034.3" gradientUnits="userSpaceOnUse">
<stop stop-color="#EEFF01"/>
<stop offset="0.510417" stop-color="#FF80E6"/>
<stop offset="1" stop-color="#EA27C3"/>
</linearGradient>
<linearGradient id="paint13_linear_148_323" x1="75" y1="180.5" x2="600" y2="529.5" gradientUnits="userSpaceOnUse">
<stop stop-color="#EEFF01"/>
<stop offset="0.536458" stop-color="#FF80E6"/>
<stop offset="1" stop-color="#EA27C3"/>
</linearGradient>
<linearGradient id="paint14_linear_148_323" x1="14850.6" y1="27214.7" x2="24244.5" y2="27214.7" gradientUnits="userSpaceOnUse">
<stop stop-color="#EEFF01"/>
<stop offset="0.526042" stop-color="#FF80E6"/>
<stop offset="1" stop-color="#EA27C3"/>
</linearGradient>
<linearGradient id="paint15_linear_148_323" x1="96.0003" y1="185" x2="632" y2="480" gradientUnits="userSpaceOnUse">
<stop stop-color="#EEFF01"/>
<stop offset="0.53125" stop-color="#FF80E6"/>
<stop offset="1" stop-color="#EA27C3"/>
</linearGradient>
<linearGradient id="paint16_linear_148_323" x1="10488.1" y1="20562.2" x2="14173.9" y2="20562.2" gradientUnits="userSpaceOnUse">
<stop stop-color="#EEFF01"/>
<stop offset="0.479167" stop-color="#FF80E6"/>
<stop offset="1" stop-color="#EA27C3"/>
</linearGradient>
<linearGradient id="paint17_linear_148_323" x1="103" y1="163" x2="603.5" y2="533" gradientUnits="userSpaceOnUse">
<stop stop-color="#EEFF01"/>
<stop offset="0.536458" stop-color="#FF80E6"/>
<stop offset="1" stop-color="#EA27C3"/>
</linearGradient>
<linearGradient id="paint18_linear_148_323" x1="104" y1="161" x2="632.5" y2="489.5" gradientUnits="userSpaceOnUse">
<stop stop-color="#EEFF01"/>
<stop offset="0.515625" stop-color="#FF80E6"/>
<stop offset="1" stop-color="#EA27C3"/>
</linearGradient>
<linearGradient id="paint19_linear_148_323" x1="122" y1="147.5" x2="594" y2="540" gradientUnits="userSpaceOnUse">
<stop stop-color="#EEFF01"/>
<stop offset="0.515625" stop-color="#FF80E6"/>
<stop offset="1" stop-color="#EA27C3"/>
</linearGradient>
</defs>
</svg>
