<svg width="1918" height="2159" viewBox="0 0 1918 2159" fill="none" xmlns="http://www.w3.org/2000/svg">
<path d="M58.8747 1043.63L58.8759 1043.63C92.4296 1019.95 113.293 990.504 120.77 957.942C128.246 925.38 122.321 889.764 102.408 853.777L102.403 853.767C83.1042 820.674 46.8786 777.628 18.1083 743.44C11.765 735.902 5.78407 728.795 0.426923 722.32L0.426886 511.5C0.426871 427.767 -6.07342 389.211 -9.96524 366.126C-10.2393 364.501 -10.5004 362.952 -10.7454 361.469C-12.6067 350.207 -13.5215 342.852 -12.1416 334.787C-10.7602 326.714 -7.07189 317.891 0.369456 303.733C8.47009 288.32 22.4545 272.951 40.2328 257.995C58.0067 243.043 79.547 228.526 102.729 214.809C149.094 187.375 201.987 163.167 244.364 145.113L244.365 145.112C431.773 64.8434 627.444 24.0961 828.527 9.02783C957.931 -0.643639 1087.72 -1.62941 1217.07 6.07679L1217.07 6.07692C1310.01 11.2345 1402.82 16.9749 1495.37 25.9657L1495.37 25.9658C1599.92 35.8938 1749.89 63.4765 1850.79 92.5526C1883.65 102.023 1899.82 108.726 1907.92 128.168C1911.99 137.931 1914.04 150.941 1915.07 169.202C1916.09 187.457 1916.09 210.905 1916.09 241.524L1916.09 414.562L1916.09 537.062L1916.09 612.024C1916.09 630.653 1916.34 646.923 1916.55 661.275C1916.67 669.459 1916.78 677.02 1916.84 684.04C1916.98 703.386 1916.68 718.633 1914.88 731.579C1913.09 744.516 1909.8 755.145 1903.99 765.252C1898.18 775.363 1889.83 784.978 1877.87 795.866C1839.67 829.889 1810.5 873.29 1793.12 921.932C1773.51 976.724 1774.55 1036.85 1796.04 1090.44C1816.95 1144.4 1842.11 1196.71 1867.78 1248.43C1903.36 1320.32 1911.13 1393.98 1916.09 1476.06C1916.09 1595.02 1899.87 1706.01 1815.96 1794.9C1738.53 1877.03 1644.78 1934.35 1544.13 1980.2C1326.17 2079.48 1097.1 2130.92 861.225 2151.21C761.7 2160.01 661.722 2160.25 562.341 2151.92L562.337 2151.92C506.226 2147.7 450.791 2140.49 395.408 2133.29C374.922 2130.63 354.444 2127.96 333.941 2125.45C197.21 2094.33 125.684 2073.05 0.426908 2009.73L0.426885 1751.5L0.426902 1574.74L0.426889 1408.74L0.426892 1223.24L0.426886 1090.55C22.7116 1078.31 26.931 1073.89 30.7708 1068.83C31.0403 1068.47 31.3074 1068.12 31.5784 1067.76C33.2194 1065.56 35.0064 1063.17 38.3727 1059.88C42.3003 1056.05 48.3829 1050.98 58.8747 1043.63Z" fill="url(#paint0_linear_1_13)" stroke="black"/>
<defs>
<linearGradient id="paint0_linear_1_13" x1="70.8813" y1="147.79" x2="1894.15" y2="2231.51" gradientUnits="userSpaceOnUse">
<stop stop-color="#0C1C2E"/>
<stop offset="1"/>
</linearGradient>
</defs>
</svg>
