<svg width="2708" height="2149" viewBox="0 0 2708 2149" fill="none" xmlns="http://www.w3.org/2000/svg">
<path d="M819.199 2113.83C679.079 2082.04 543.299 2038.98 414.651 1975.08C311.327 1923.7 212.341 1865.41 128.264 1784.95C86.0686 1746.02 51.9338 1699.17 27.7992 1647.07C-17.9324 1543.99 -3.69155 1446.89 56.5283 1354.32C99.8118 1287.66 159.015 1237.28 226.868 1197.96C281.805 1166.18 340.015 1140.15 396.112 1110.28C441.978 1085.94 489.029 1062.7 531.828 1033.59C600.02 986.887 616.167 917.072 575.152 845.319C550.845 804.944 523.289 766.617 492.758 730.719C450.751 678.959 415.596 624.145 402.398 557.836C381.69 453.059 417.22 365.53 486.511 289.266C550.034 219.359 630.193 174.859 716.668 139.34C907.912 60.3649 1107.81 20.8273 1313.38 6.91032C1445.66 -2.01993 1578.38 -2.29288 1710.7 6.09325C1805.76 11.7398 1900.7 17.9668 1995.39 27.4314C2102.37 37.8971 2208.18 58.0178 2311.54 87.5476C2395.7 111.738 2479.05 138.92 2553.47 187.252C2590.13 210.271 2622.86 239.007 2650.43 272.372C2723.44 362.549 2725.95 464.415 2658.82 559.022C2626.62 604.153 2584.36 638.611 2542.03 673.121C2491.34 714.14 2439.77 754.244 2390.99 797.457C2352.18 831.09 2322.63 874.102 2305.16 922.394C2285.45 976.764 2286.83 1036.55 2309.05 1089.94C2330.72 1143.8 2356.73 1196.04 2383.26 1247.71C2420.08 1319.63 2450.42 1393.13 2455.95 1474.94C2464.39 1600.07 2418.62 1704.19 2333.18 1792.45C2254.39 1873.92 2158.78 1930.55 2056.09 1975.69C1833.71 2073.45 1599.72 2123.45 1358.6 2142.38C1256.86 2150.61 1154.61 2150.3 1052.92 2141.45C974.273 2135.27 896.878 2123.51 819.199 2113.83Z" fill="url(#paint0_linear_1_2)"/>
<defs>
<linearGradient id="paint0_linear_1_2" x1="516" y1="211" x2="2333.71" y2="2346.32" gradientUnits="userSpaceOnUse">
<stop stop-color="#0C1C2E"/>
<stop offset="1"/>
</linearGradient>
</defs>
</svg>
