<svg width="619" height="509" viewBox="0 0 619 509" fill="none" xmlns="http://www.w3.org/2000/svg">
<g clip-path="url(#clip0_38_137)">
<path d="M494.044 52.93C492.704 57.89 494.244 65.7 494.824 70.33C495.444 75.28 486.864 79.71 481.954 79.99C482.075 78.3515 481.615 76.7229 480.654 75.39C480.643 76.9751 480.316 78.5421 479.694 80H438.724C433.564 70.29 429.174 57.02 433.914 43.3C434.155 40.5445 435.203 37.9214 436.929 35.7598C438.655 33.5982 440.98 31.9945 443.614 31.15L465.954 24C474.764 24 485.574 25.25 490.444 31.81C492.6 34.8302 494.043 38.2993 494.667 41.957C495.29 45.6148 495.078 49.3663 494.044 52.93Z" fill="#2F2E41"/>
<path d="M533.271 482.01C534.002 482.037 534.722 481.838 535.336 481.441C535.95 481.045 536.427 480.469 536.702 479.792C536.978 479.115 537.038 478.37 536.876 477.658C536.714 476.945 536.337 476.3 535.795 475.809C535.702 475.452 535.635 475.197 535.542 474.84C536.224 473.059 537.422 471.522 538.983 470.426C540.543 469.33 542.396 468.725 544.303 468.689C546.21 468.653 548.084 469.187 549.685 470.223C551.286 471.259 552.542 472.75 553.291 474.504C557.608 484.35 563.172 494.532 560.557 505.446C578.151 467.219 571.594 419.939 544.747 387.646C537.373 383.675 531.36 376.553 529.732 368.232C533.374 369.428 537.872 366.432 535.107 362.634C533.91 361.183 532.701 359.745 531.504 358.295C545.154 343.477 561.805 366.402 546.815 386.369C551.839 392.547 556.204 399.233 559.839 406.319C558.943 398.767 559.853 391.11 562.494 383.978C565.176 377.329 570.269 371.702 574.746 365.934C580.189 358.905 591.559 362.015 592.385 370.861C587.316 372.581 586.725 379.932 592.551 380.882C591.184 397.365 580.569 412.602 565.819 419.966C571.438 435.269 573.73 451.593 572.544 467.851C574.979 448.84 595.315 444.039 609.488 436.357C610.39 435.767 611.443 435.452 612.52 435.45C613.597 435.449 614.651 435.761 615.554 436.348C616.457 436.935 617.17 437.773 617.605 438.758C618.04 439.743 618.179 440.834 618.004 441.897C616.046 442.715 614.174 443.726 612.415 444.914C611.591 445.48 610.962 446.286 610.614 447.223C610.267 448.16 610.217 449.181 610.473 450.148C610.729 451.114 611.277 451.977 612.042 452.619C612.808 453.262 613.754 453.651 614.749 453.735C607.738 471.575 589.288 483.685 570.221 483.799C568.464 491.779 565.884 499.554 562.52 507L534.221 507.27C534.117 506.956 534.022 506.632 533.928 506.319C536.549 506.458 539.177 506.277 541.754 505.778C534.746 497.639 529.346 493.504 533.271 482.011L533.271 482.01Z" fill="url(#paint0_linear_38_137)"/>
<path d="M474.867 487.701H463.829L458.576 445.127H474.867V487.701Z" fill="#FFB6B6"/>
<path d="M480.692 506.825H472.777L471.364 499.352L467.745 506.825H446.751C445.745 506.825 444.765 506.504 443.954 505.907C443.144 505.311 442.545 504.471 442.246 503.511C441.946 502.55 441.962 501.519 442.29 500.567C442.618 499.616 443.242 498.794 444.07 498.223L460.835 486.644V479.089L478.469 480.141L480.692 506.825Z" fill="#2F2E41"/>
<path d="M492.193 410.591L484.443 418.451L450.438 392.302L461.875 380.702L492.193 410.591Z" fill="#FFB6B6"/>
<path d="M509.901 419.869L504.344 425.506L498.03 421.266L500.811 429.089L486.072 444.039C485.366 444.756 484.449 445.228 483.455 445.386C482.461 445.545 481.443 445.381 480.548 444.92C479.654 444.459 478.93 443.724 478.483 442.822C478.036 441.921 477.889 440.9 478.063 439.909L481.589 419.841L476.208 414.537L489.338 402.719L509.901 419.869Z" fill="#2F2E41"/>
<path d="M403.898 180.267L437.285 127.148C438.693 124.894 439.157 122.176 438.579 119.582C438.001 116.987 436.426 114.724 434.194 113.281C433.039 112.534 431.744 112.031 430.388 111.801C429.033 111.571 427.644 111.619 426.308 111.943C424.972 112.268 423.715 112.86 422.616 113.686C421.516 114.511 420.596 115.552 419.911 116.745L386.922 172.986L365.436 206.315C363.649 206.002 361.809 206.248 360.165 207.018C358.522 207.788 357.156 209.046 356.253 210.619C355.349 212.193 354.952 214.007 355.115 215.814C355.278 217.621 355.993 219.334 357.164 220.721C358.335 222.107 359.904 223.1 361.658 223.564C363.413 224.027 365.267 223.94 366.97 223.313C368.673 222.686 370.141 221.549 371.176 220.059C372.211 218.568 372.761 216.795 372.753 214.98L403.898 180.267Z" fill="#FFB6B6"/>
<path d="M435.363 141.04L438.177 140.509C437.798 139.819 437.64 139.028 437.724 138.245C437.807 137.461 438.129 136.722 438.646 136.127C439.162 135.532 439.848 135.11 440.612 134.916C441.376 134.723 442.181 134.768 442.918 135.046C439.526 131.509 441.174 125.685 443.355 121.297C444.932 118.125 446.705 114.991 447.477 111.534C448.648 106.286 447.138 99.9343 440.138 98.6777C437.277 98.23 434.35 98.8227 431.888 100.348C427.489 102.948 426.499 101.816 423.724 106L422.142 108.94C420.111 112.122 417.687 115.036 414.926 117.612C412.953 119.578 411.362 121.893 410.235 124.441C410.088 124.756 409.869 125.033 409.596 125.25C408.514 126.087 407.042 126.129 405.686 126.307C403.976 126.532 402.02 127.256 402.064 129.377C402.089 129.884 402.218 130.38 402.444 130.835C402.67 131.29 402.987 131.693 403.376 132.019C410.596 138.337 419.045 143.094 428.192 145.991C430.224 146.633 432.507 147.165 434.419 146.223C436.33 145.281 437.15 142.2 435.363 141.04Z" fill="#EA27C3"/>
<path d="M477.724 242L412.724 241L410.724 226L416.724 192H467.724L477.724 242Z" fill="#FFB6B6"/>
<path d="M338.724 282H85.7241C79.6262 281.993 73.7801 279.568 69.4682 275.256C65.1564 270.944 62.731 265.098 62.7241 259V114C62.7311 107.902 65.1565 102.056 69.4683 97.7442C73.7802 93.4324 79.6263 91.0069 85.7241 91H338.724C344.822 91.0069 350.668 93.4324 354.98 97.7442C359.292 102.056 361.717 107.902 361.724 114V259C361.717 265.098 359.292 270.944 354.98 275.256C350.668 279.568 344.822 281.993 338.724 282Z" fill="white"/>
<path d="M338.724 282H85.7241C79.6262 281.993 73.7801 279.568 69.4682 275.256C65.1564 270.944 62.731 265.098 62.7241 259V114C62.7311 107.902 65.1565 102.056 69.4683 97.7442C73.7802 93.4324 79.6263 91.0069 85.7241 91H338.724C344.822 91.0069 350.668 93.4324 354.98 97.7442C359.292 102.056 361.717 107.902 361.724 114V259C361.717 265.098 359.292 270.944 354.98 275.256C350.668 279.568 344.822 281.993 338.724 282ZM85.7241 93C80.1565 93.0062 74.8187 95.2207 70.8818 99.1577C66.9449 103.095 64.7304 108.432 64.7241 114V259C64.7304 264.568 66.945 269.905 70.8819 273.842C74.8188 277.779 80.1565 279.994 85.7241 280H338.724C344.292 279.994 349.629 277.779 353.566 273.842C357.503 269.905 359.718 264.568 359.724 259V114C359.718 108.432 357.503 103.095 353.566 99.1577C349.63 95.2207 344.292 93.0062 338.724 93H85.7241Z" fill="#E6E6E6"/>
<path d="M359.725 196.339H63.7236C63.4584 196.339 63.204 196.234 63.0165 196.046C62.829 195.859 62.7236 195.605 62.7236 195.339C62.7236 195.074 62.829 194.82 63.0165 194.632C63.204 194.445 63.4584 194.339 63.7236 194.339H359.725C359.991 194.339 360.245 194.445 360.432 194.632C360.62 194.82 360.725 195.074 360.725 195.339C360.725 195.605 360.62 195.859 360.432 196.046C360.245 196.234 359.991 196.339 359.725 196.339Z" fill="#E6E6E6"/>
<path d="M337.724 47C342.695 47 346.724 42.9706 346.724 38C346.724 33.0294 342.695 29 337.724 29C332.754 29 328.724 33.0294 328.724 38C328.724 42.9706 332.754 47 337.724 47Z" fill="#F2F2F2"/>
<path d="M9 190.3C13.9706 190.3 18 186.271 18 181.3C18 176.329 13.9706 172.3 9 172.3C4.02944 172.3 0 176.329 0 181.3C0 186.271 4.02944 190.3 9 190.3Z" fill="#F2F2F2"/>
<path d="M194 344.3C198.971 344.3 203 340.271 203 335.3C203 330.329 198.971 326.3 194 326.3C189.029 326.3 185 330.329 185 335.3C185 340.271 189.029 344.3 194 344.3Z" fill="#F2F2F2"/>
<path d="M139.646 240.3H108.401C108.136 240.3 107.882 240.195 107.694 240.007C107.507 239.82 107.401 239.565 107.401 239.3C107.401 239.035 107.507 238.78 107.694 238.593C107.882 238.405 108.136 238.3 108.401 238.3H139.646C139.911 238.3 140.165 238.405 140.353 238.593C140.54 238.78 140.646 239.035 140.646 239.3C140.646 239.565 140.54 239.82 140.353 240.007C140.165 240.195 139.911 240.3 139.646 240.3Z" fill="#CCCCCC"/>
<path d="M139.646 256.3H108.401C108.136 256.3 107.882 256.195 107.694 256.007C107.507 255.82 107.401 255.565 107.401 255.3C107.401 255.035 107.507 254.78 107.694 254.593C107.882 254.405 108.136 254.3 108.401 254.3H139.646C139.911 254.3 140.165 254.405 140.353 254.593C140.54 254.78 140.646 255.035 140.646 255.3C140.646 255.565 140.54 255.82 140.353 256.007C140.165 256.195 139.911 256.3 139.646 256.3Z" fill="#CCCCCC"/>
<path d="M310.646 240.3H279.401C279.136 240.3 278.882 240.195 278.694 240.007C278.507 239.82 278.401 239.565 278.401 239.3C278.401 239.035 278.507 238.78 278.694 238.593C278.882 238.405 279.136 238.3 279.401 238.3H310.646C310.911 238.3 311.165 238.405 311.353 238.593C311.54 238.78 311.646 239.035 311.646 239.3C311.646 239.565 311.54 239.82 311.353 240.007C311.165 240.195 310.911 240.3 310.646 240.3Z" fill="#CCCCCC"/>
<path d="M310.646 256.3H279.401C279.136 256.3 278.882 256.195 278.694 256.007C278.507 255.82 278.401 255.565 278.401 255.3C278.401 255.035 278.507 254.78 278.694 254.593C278.882 254.405 279.136 254.3 279.401 254.3H310.646C310.911 254.3 311.165 254.405 311.353 254.593C311.54 254.78 311.646 255.035 311.646 255.3C311.646 255.565 311.54 255.82 311.353 256.007C311.165 256.195 310.911 256.3 310.646 256.3Z" fill="#CCCCCC"/>
<path d="M253.646 240.3H222.401C222.136 240.3 221.882 240.195 221.694 240.007C221.507 239.82 221.401 239.565 221.401 239.3C221.401 239.035 221.507 238.78 221.694 238.593C221.882 238.405 222.136 238.3 222.401 238.3H253.646C253.911 238.3 254.165 238.405 254.353 238.593C254.54 238.78 254.646 239.035 254.646 239.3C254.646 239.565 254.54 239.82 254.353 240.007C254.165 240.195 253.911 240.3 253.646 240.3Z" fill="#CCCCCC"/>
<path d="M253.646 256.3H222.401C222.136 256.3 221.882 256.195 221.694 256.007C221.507 255.82 221.401 255.565 221.401 255.3C221.401 255.035 221.507 254.78 221.694 254.593C221.882 254.405 222.136 254.3 222.401 254.3H253.646C253.911 254.3 254.165 254.405 254.353 254.593C254.54 254.78 254.646 255.035 254.646 255.3C254.646 255.565 254.54 255.82 254.353 256.007C254.165 256.195 253.911 256.3 253.646 256.3Z" fill="#CCCCCC"/>
<path d="M196.646 240.3H165.401C165.136 240.3 164.882 240.195 164.694 240.007C164.507 239.82 164.401 239.565 164.401 239.3C164.401 239.035 164.507 238.78 164.694 238.593C164.882 238.405 165.136 238.3 165.401 238.3H196.646C196.911 238.3 197.165 238.405 197.353 238.593C197.54 238.78 197.646 239.035 197.646 239.3C197.646 239.565 197.54 239.82 197.353 240.007C197.165 240.195 196.911 240.3 196.646 240.3Z" fill="#CCCCCC"/>
<path d="M196.646 256.3H165.401C165.136 256.3 164.882 256.195 164.694 256.007C164.507 255.82 164.401 255.565 164.401 255.3C164.401 255.035 164.507 254.78 164.694 254.593C164.882 254.405 165.136 254.3 165.401 254.3H196.646C196.911 254.3 197.165 254.405 197.353 254.593C197.54 254.78 197.646 255.035 197.646 255.3C197.646 255.565 197.54 255.82 197.353 256.007C197.165 256.195 196.911 256.3 196.646 256.3Z" fill="#CCCCCC"/>
<path d="M410.724 225L408.724 252L370.991 319.592C369.179 322.601 368.384 326.115 368.724 329.611C369.064 333.108 370.521 336.402 372.879 339.006L432.051 392.623C432.051 392.623 443.684 393.004 442.704 398.502C441.724 404 447.941 403.739 447.941 403.739L454.938 408.794L458.724 380C446.002 351.594 427.137 342.929 410.724 329.825C410.724 329.825 417.645 327.767 416.185 325.384C414.724 323 419.31 322.842 419.31 322.842C419.31 322.842 422.353 322.431 422.539 320.216C422.724 318 425.675 317.665 425.675 317.665L442.23 301L485.724 299C485.724 299 504.13 252.89 473.724 223L410.724 225Z" fill="#2F2E41"/>
<path d="M442.327 288.478L456.724 460L477.929 458.716L485.724 299L442.327 288.478Z" fill="#2F2E41"/>
<path d="M443.361 83.8957L467.634 82.6453L478.909 100.46C478.909 100.46 500.122 104.007 498.651 129.004C497.181 154 472.842 175.935 472.842 175.935L473.882 188.953L472.075 194.116L472.307 197.015L474.772 200.085L475.025 203.26L472.842 208.284L473.724 215C473.724 215 451.762 219.36 440.243 210.68C428.724 202 411.724 207 411.724 207L411.084 198.727L414.415 194.26L412.555 188.434L415.352 182.83L416.811 165.03C416.811 165.03 400.854 141.057 419.172 123.001L426.524 110.502L434.75 100.466L443.361 83.8957Z" fill="#EA27C3"/>
<path d="M502.883 192.305L501.097 129.59C501.013 126.933 499.888 124.416 497.965 122.581C496.042 120.746 493.474 119.741 490.816 119.783C489.441 119.804 488.085 120.106 486.831 120.669C485.576 121.231 484.449 122.044 483.519 123.056C482.588 124.068 481.873 125.26 481.418 126.557C480.963 127.855 480.777 129.232 480.872 130.604L484.724 195.692L485.398 235.34C483.739 236.075 482.346 237.302 481.409 238.856C480.471 240.41 480.035 242.214 480.159 244.025C480.283 245.835 480.961 247.563 482.101 248.975C483.242 250.386 484.789 251.412 486.533 251.914C488.277 252.415 490.133 252.368 491.849 251.778C493.565 251.188 495.058 250.084 496.124 248.615C497.191 247.147 497.78 245.387 497.811 243.572C497.842 241.758 497.314 239.978 496.298 238.474L502.883 192.305Z" fill="#FFB6B6"/>
<path d="M507.223 142.205C507.682 141.74 507.975 141.136 508.057 140.487C508.14 139.838 508.007 139.181 507.68 138.615C507.289 137.909 507.128 137.098 507.22 136.297C507.24 136.142 507.269 135.988 507.309 135.837C507.57 134.934 507.609 133.981 507.423 133.059C507.236 132.137 506.83 131.274 506.239 130.542C504.258 128.163 503.302 124.562 502.888 121.352C502.436 117.839 502.166 114.248 500.885 110.946C499.038 106.182 494.623 101.936 488.598 103.968C486.048 104.872 483.888 106.627 482.482 108.938C479.477 113.729 479.445 119.523 479.467 125.066L478.386 122.876C478.515 128.929 477.421 134.947 475.168 140.567C476.511 140.306 477.461 142.111 477.027 143.408C476.593 144.706 475.393 145.559 474.365 146.461C473.069 147.599 471.845 149.288 473.061 151.027C473.364 151.434 473.747 151.775 474.188 152.027C474.628 152.28 475.116 152.438 475.621 152.493C485.136 153.73 494.803 152.986 504.016 150.307C506.062 149.711 508.255 148.884 509.32 147.038C510.385 145.192 509.354 142.176 507.223 142.205Z" fill="#EA27C3"/>
<path d="M456.724 79C469.427 79 479.724 68.7025 479.724 56C479.724 43.2975 469.427 33 456.724 33C444.022 33 433.724 43.2975 433.724 56C433.724 68.7025 444.022 79 456.724 79Z" fill="#FFB6B6"/>
<path d="M218.315 53.6378C233.127 53.6378 245.134 41.6306 245.134 26.8189C245.134 12.0072 233.127 0 218.315 0C203.503 0 191.496 12.0072 191.496 26.8189C191.496 41.6306 203.503 53.6378 218.315 53.6378Z" fill="#EA27C3"/>
<path d="M217.372 37.5771C217.012 37.5771 216.657 37.4932 216.335 37.3322C216.013 37.1712 215.733 36.9375 215.517 36.6495L209.83 29.0675C209.647 28.8239 209.514 28.5466 209.438 28.2514C209.362 27.9562 209.344 27.649 209.387 27.3472C209.43 27.0453 209.532 26.755 209.687 26.4926C209.842 26.2302 210.048 26.001 210.292 25.8181C210.536 25.6353 210.813 25.5022 211.108 25.4267C211.404 25.3512 211.711 25.3347 212.013 25.3781C212.315 25.4215 212.605 25.524 212.867 25.6797C213.129 25.8354 213.358 26.0412 213.54 26.2854L217.26 31.2453L226.815 16.9131C227.157 16.4027 227.687 16.0488 228.29 15.9289C228.892 15.809 229.517 15.933 230.028 16.2737C230.539 16.6144 230.894 17.1439 231.015 17.746C231.136 18.3481 231.013 18.9737 230.674 19.4853L219.301 36.5445C219.095 36.8531 218.819 37.1078 218.494 37.2873C218.17 37.4668 217.807 37.5659 217.436 37.5763L217.372 37.5771Z" fill="white"/>
<path d="M269.671 103.424H154.777C151.978 103.424 149.294 102.313 147.315 100.333C145.336 98.3544 144.224 95.6701 144.224 92.8712C144.224 90.0723 145.336 87.3881 147.315 85.409C149.294 83.4299 151.978 82.318 154.777 82.318H269.671C271.058 82.3166 272.431 82.5886 273.713 83.1184C274.994 83.6481 276.159 84.4252 277.14 85.4053C278.121 86.3854 278.899 87.5493 279.43 88.8303C279.961 90.1113 280.234 91.4845 280.234 92.8712C280.234 94.258 279.961 95.6311 279.43 96.9121C278.899 98.1932 278.121 99.357 277.14 100.337C276.159 101.317 274.994 102.094 273.713 102.624C272.431 103.154 271.058 103.426 269.671 103.424Z" fill="#EA27C3"/>
<path d="M617.34 508.371L361.982 508.679C361.668 508.677 361.366 508.551 361.145 508.328C360.923 508.104 360.798 507.803 360.798 507.488C360.798 507.173 360.923 506.872 361.145 506.649C361.366 506.425 361.668 506.299 361.982 506.297L617.34 505.99C617.654 505.992 617.956 506.118 618.178 506.341C618.4 506.564 618.524 506.866 618.524 507.181C618.524 507.495 618.4 507.797 618.178 508.021C617.956 508.244 617.654 508.37 617.34 508.371Z" fill="#CACACA"/>
<path d="M485.724 50V55H465.824C466.026 54.0348 466.027 53.0382 465.825 52.0728C465.624 51.1074 465.225 50.194 464.654 49.39C464.638 51.3469 464.151 53.2711 463.234 55C451.727 58.4026 442.069 58.3374 434.155 55C432.98 55 431.853 54.5332 431.022 53.7022C430.191 52.8713 429.724 51.7443 429.724 50.5692C429.724 35.2393 441.808 22.322 457.134 22.0061C460.86 21.9272 464.565 22.593 468.03 23.9644C471.495 25.3358 474.652 27.3853 477.314 29.9926C479.977 32.6 482.093 35.7127 483.537 39.1483C484.981 42.5839 485.725 46.2733 485.724 50V50Z" fill="#2F2E41"/>
<path d="M221.724 136H181.724C180.663 136 179.646 135.579 178.896 134.828C178.146 134.078 177.724 133.061 177.724 132C177.724 130.939 178.146 129.922 178.896 129.172C179.646 128.421 180.663 128 181.724 128H221.724C222.785 128 223.802 128.421 224.553 129.172C225.303 129.922 225.724 130.939 225.724 132C225.724 133.061 225.303 134.078 224.553 134.828C223.802 135.579 222.785 136 221.724 136Z" fill="#CCCCCC"/>
<path d="M231.724 221.3H191.724C190.663 221.3 189.646 220.879 188.896 220.128C188.146 219.378 187.724 218.361 187.724 217.3C187.724 216.239 188.146 215.222 188.896 214.472C189.646 213.721 190.663 213.3 191.724 213.3H231.724C232.785 213.3 233.802 213.721 234.553 214.472C235.303 215.222 235.724 216.239 235.724 217.3C235.724 218.361 235.303 219.378 234.553 220.128C233.802 220.879 232.785 221.3 231.724 221.3Z" fill="#CCCCCC"/>
<path d="M307.724 158H180.724C179.663 158 178.646 157.579 177.896 156.828C177.146 156.078 176.724 155.061 176.724 154C176.724 152.939 177.146 151.922 177.896 151.172C178.646 150.421 179.663 150 180.724 150H307.724C308.785 150 309.802 150.421 310.553 151.172C311.303 151.922 311.724 152.939 311.724 154C311.724 155.061 311.303 156.078 310.553 156.828C309.802 157.579 308.785 158 307.724 158Z" fill="#CCCCCC"/>
<path d="M134.22 169.819C149.032 169.819 161.039 157.812 161.039 143C161.039 128.188 149.032 116.181 134.22 116.181C119.409 116.181 107.401 128.188 107.401 143C107.401 157.812 119.409 169.819 134.22 169.819Z" fill="#E6E6E6"/>
</g>
<defs>
<linearGradient id="paint0_linear_38_137" x1="485" y1="311.5" x2="606.5" y2="538.5" gradientUnits="userSpaceOnUse">
<stop stop-color="#EEFF01"/>
<stop offset="1" stop-color="#EA27C3"/>
</linearGradient>
<clipPath id="clip0_38_137">
<rect width="618.524" height="508.679" fill="white"/>
</clipPath>
</defs>
</svg>
