<svg width="424" height="473" viewBox="0 0 424 473" fill="none" xmlns="http://www.w3.org/2000/svg">
<mask id="path-1-inside-1_205_177" fill="white">
<path d="M187.51 473C125.221 473 66.0834 448.138 20.9627 403.119C-24.158 358.101 -49 298.758 -49 236.51C-49 212.384 -46.6468 177.638 -26.1225 154.536C-17.9373 145.225 -8.09465 137.756 1.35921 130.533C12.5115 122 24.0526 113.18 33.1586 101.291C39.8499 92.5537 45.5386 83.4477 51.0431 74.6896C63.546 54.7997 75.1894 36.0352 97.1051 22.325C120.699 7.59174 151.107 0 187.51 0H187.96C249.983 0 308.896 24.6987 353.874 69.5739C398.851 114.449 424 173.935 424 236.49C424 299.045 399.138 357.978 354.119 403.119C309.101 448.26 249.758 473 187.51 473ZM187.96 1.45287H187.51C151.373 1.45287 121.231 8.96275 97.8827 23.5528C76.233 37.0992 64.5896 55.7205 52.2709 75.4263C46.7459 84.2458 41.0368 93.3722 34.3045 102.171C25.0757 114.224 13.4732 123.105 2.15726 131.679C-7.15336 138.861 -16.8732 146.289 -25.0379 155.518C-45.2348 178.232 -47.5471 212.63 -47.5471 236.51C-47.5471 363.912 60.1287 471.568 187.51 471.568C314.892 471.568 422.547 363.912 422.547 236.51C422.547 174.405 397.808 115.493 352.851 70.6379C307.894 25.7833 249.595 1.45287 187.96 1.45287Z"/>
</mask>
<path d="M187.51 473C125.221 473 66.0834 448.138 20.9627 403.119C-24.158 358.101 -49 298.758 -49 236.51C-49 212.384 -46.6468 177.638 -26.1225 154.536C-17.9373 145.225 -8.09465 137.756 1.35921 130.533C12.5115 122 24.0526 113.18 33.1586 101.291C39.8499 92.5537 45.5386 83.4477 51.0431 74.6896C63.546 54.7997 75.1894 36.0352 97.1051 22.325C120.699 7.59174 151.107 0 187.51 0H187.96C249.983 0 308.896 24.6987 353.874 69.5739C398.851 114.449 424 173.935 424 236.49C424 299.045 399.138 357.978 354.119 403.119C309.101 448.26 249.758 473 187.51 473ZM187.96 1.45287H187.51C151.373 1.45287 121.231 8.96275 97.8827 23.5528C76.233 37.0992 64.5896 55.7205 52.2709 75.4263C46.7459 84.2458 41.0368 93.3722 34.3045 102.171C25.0757 114.224 13.4732 123.105 2.15726 131.679C-7.15336 138.861 -16.8732 146.289 -25.0379 155.518C-45.2348 178.232 -47.5471 212.63 -47.5471 236.51C-47.5471 363.912 60.1287 471.568 187.51 471.568C314.892 471.568 422.547 363.912 422.547 236.51C422.547 174.405 397.808 115.493 352.851 70.6379C307.894 25.7833 249.595 1.45287 187.96 1.45287Z" fill="url(#paint0_linear_205_177)" stroke="url(#paint1_linear_205_177)" stroke-width="2" mask="url(#path-1-inside-1_205_177)"/>
<mask id="path-2-inside-2_205_177" fill="white">
<path d="M187.51 452.578C129.232 452.578 69.2959 425.976 27.1832 381.162C-10.2434 341.423 -29.1921 292.108 -26.2045 242.322C-24.1582 208.824 -4.30917 191.881 16.7676 173.935C30.5392 162.189 44.8018 150.013 54.4194 132.559C58.0618 125.97 61.3768 119.36 64.6508 112.976C75.8031 90.8962 86.3415 70.0035 107.132 52.9579C130.132 34.0502 158.453 27.2156 187.858 21.3223C242.637 10.3746 287.083 35.0734 314.728 57.7258C341.799 80.3779 363.779 108.494 379.227 140.232C395.229 172.584 403.68 205.877 403.68 236.51C403.68 293.418 380.987 347.46 339.775 388.672C298.562 429.885 244.417 452.578 187.51 452.578ZM214.562 19.9717C205.628 19.9705 196.717 20.8617 187.96 22.6319C158.739 28.4638 130.664 35.278 107.828 53.9811C87.3646 70.9039 76.7853 91.6328 65.6944 113.59C62.4613 119.974 59.1258 126.583 55.463 133.193C45.8045 150.873 31.46 163.11 17.5861 174.958C-3.24509 192.699 -22.8895 209.458 -24.8744 242.485C-27.8415 291.903 -9.01563 340.851 28.145 380.344C70.0121 424.789 129.58 451.33 187.51 451.33C244.049 451.33 297.764 428.821 338.731 387.895C379.698 346.969 402.166 293.213 402.166 236.674C402.166 174.712 365.803 101.619 313.705 58.9126C290.991 40.0663 256.675 19.9717 214.562 19.9717Z"/>
</mask>
<path d="M187.51 452.578C129.232 452.578 69.2959 425.976 27.1832 381.162C-10.2434 341.423 -29.1921 292.108 -26.2045 242.322C-24.1582 208.824 -4.30917 191.881 16.7676 173.935C30.5392 162.189 44.8018 150.013 54.4194 132.559C58.0618 125.97 61.3768 119.36 64.6508 112.976C75.8031 90.8962 86.3415 70.0035 107.132 52.9579C130.132 34.0502 158.453 27.2156 187.858 21.3223C242.637 10.3746 287.083 35.0734 314.728 57.7258C341.799 80.3779 363.779 108.494 379.227 140.232C395.229 172.584 403.68 205.877 403.68 236.51C403.68 293.418 380.987 347.46 339.775 388.672C298.562 429.885 244.417 452.578 187.51 452.578ZM214.562 19.9717C205.628 19.9705 196.717 20.8617 187.96 22.6319C158.739 28.4638 130.664 35.278 107.828 53.9811C87.3646 70.9039 76.7853 91.6328 65.6944 113.59C62.4613 119.974 59.1258 126.583 55.463 133.193C45.8045 150.873 31.46 163.11 17.5861 174.958C-3.24509 192.699 -22.8895 209.458 -24.8744 242.485C-27.8415 291.903 -9.01563 340.851 28.145 380.344C70.0121 424.789 129.58 451.33 187.51 451.33C244.049 451.33 297.764 428.821 338.731 387.895C379.698 346.969 402.166 293.213 402.166 236.674C402.166 174.712 365.803 101.619 313.705 58.9126C290.991 40.0663 256.675 19.9717 214.562 19.9717Z" fill="url(#paint2_linear_205_177)" stroke="url(#paint3_linear_205_177)" stroke-width="2" mask="url(#path-2-inside-2_205_177)"/>
<mask id="path-3-inside-3_205_177" fill="white">
<path d="M188.595 432.156H187.49C131.667 431.767 61.9095 396.776 25.2195 350.632C1.13464 320.347 -7.76672 287.34 -0.502394 255.193C3.32417 238.209 13.6989 231.415 26.836 222.8L31.6653 219.608C54.1745 204.424 64.5287 186.867 74.6374 161.432C84.5619 136.631 97.5968 108.453 119.042 87.7655C132.138 75.1194 148.468 66.3408 164.265 57.8692C172.45 53.531 180.758 49.0292 188.554 44.0772C209.815 30.5921 235.046 31.6153 263.571 47.1261C282.684 57.4599 302.962 74.0758 325.676 97.8741C362.735 136.754 383.157 185.987 383.157 236.51C383.157 287.033 361.732 337.638 324.408 374.819C287.083 412 238.995 432.156 188.595 432.156ZM220.743 35.8511C209.566 35.7955 198.614 38.9797 189.209 45.0185C181.372 49.9909 172.982 54.4928 164.858 58.8514C149.122 67.2821 132.875 76.0198 119.84 88.5431C98.6199 109.17 85.6464 137.102 75.8242 161.882C65.5928 187.44 55.1567 205.243 32.3201 220.59L27.4909 223.803C14.5788 232.254 4.38824 238.945 0.663991 255.438C-6.49803 287.238 2.30102 319.876 26.1608 349.875C62.6461 395.773 131.995 430.642 187.511 430.949C237.972 431.276 286.306 411.018 323.548 373.98C360.791 336.942 381.949 286.972 381.949 236.51C381.949 186.049 361.65 137.368 324.817 98.6926C302.205 74.9966 281.988 58.4421 263.019 48.1288C247.958 39.9437 233.818 35.8511 220.743 35.8511Z"/>
</mask>
<path d="M188.595 432.156H187.49C131.667 431.767 61.9095 396.776 25.2195 350.632C1.13464 320.347 -7.76672 287.34 -0.502394 255.193C3.32417 238.209 13.6989 231.415 26.836 222.8L31.6653 219.608C54.1745 204.424 64.5287 186.867 74.6374 161.432C84.5619 136.631 97.5968 108.453 119.042 87.7655C132.138 75.1194 148.468 66.3408 164.265 57.8692C172.45 53.531 180.758 49.0292 188.554 44.0772C209.815 30.5921 235.046 31.6153 263.571 47.1261C282.684 57.4599 302.962 74.0758 325.676 97.8741C362.735 136.754 383.157 185.987 383.157 236.51C383.157 287.033 361.732 337.638 324.408 374.819C287.083 412 238.995 432.156 188.595 432.156ZM220.743 35.8511C209.566 35.7955 198.614 38.9797 189.209 45.0185C181.372 49.9909 172.982 54.4928 164.858 58.8514C149.122 67.2821 132.875 76.0198 119.84 88.5431C98.6199 109.17 85.6464 137.102 75.8242 161.882C65.5928 187.44 55.1567 205.243 32.3201 220.59L27.4909 223.803C14.5788 232.254 4.38824 238.945 0.663991 255.438C-6.49803 287.238 2.30102 319.876 26.1608 349.875C62.6461 395.773 131.995 430.642 187.511 430.949C237.972 431.276 286.306 411.018 323.548 373.98C360.791 336.942 381.949 286.972 381.949 236.51C381.949 186.049 361.65 137.368 324.817 98.6926C302.205 74.9966 281.988 58.4421 263.019 48.1288C247.958 39.9437 233.818 35.8511 220.743 35.8511Z" fill="url(#paint4_linear_205_177)" stroke="url(#paint5_linear_205_177)" stroke-width="2" mask="url(#path-3-inside-3_205_177)"/>
<mask id="path-4-inside-4_205_177" fill="white">
<path d="M187.326 411.734C140.968 411.344 96.5794 392.94 63.5461 360.413C57.5709 354.438 5.71793 301.071 25.8125 269.558C30.6008 262.069 38.0902 258.876 46.0503 255.48C50.5603 253.739 54.8913 251.567 58.9829 248.993C74.4324 238.761 81.2261 220.59 87.7946 203.115C89.8409 197.57 92.01 191.84 94.3837 186.601C103.183 167.08 115.808 142.095 135.31 122.082C142.308 114.94 149.347 109.006 156.141 103.276C168.418 92.9222 180.041 83.1614 189.7 67.6915C196.964 56.0686 206.377 49.6841 217.714 48.7224C240.632 46.6761 272.063 67.2822 308.589 108.065C344.42 148.131 362.611 191.328 362.611 236.49C362.611 282.122 344.011 325.811 310.267 359.492C277.077 392.622 232.283 411.652 187.49 411.714L187.326 411.734ZM220.926 49.6637C219.903 49.6637 218.9 49.7046 217.918 49.7864C206.95 50.7277 197.803 56.9485 190.744 68.2031C180.983 83.7958 169.319 93.6384 156.959 104.034C150.186 109.743 143.167 115.657 136.21 122.778C121.026 138.288 108.442 158.097 95.4273 186.99C93.0741 192.188 91.0278 197.651 88.8587 203.361C82.2287 221 75.3737 239.252 59.6377 249.77C55.4852 252.367 51.101 254.572 46.5414 256.359C38.7451 259.879 31.3784 262.928 26.7129 270.111C10.7518 295.137 42.8172 338.15 64.2828 359.615C97.1051 391.917 141.195 410.202 187.244 410.609H187.429C281.824 410.507 361.568 330.803 361.568 236.47C361.568 191.594 343.479 148.622 307.832 108.781C273.189 70.0242 243.21 49.6637 220.926 49.6637Z"/>
</mask>
<path d="M187.326 411.734C140.968 411.344 96.5794 392.94 63.5461 360.413C57.5709 354.438 5.71793 301.071 25.8125 269.558C30.6008 262.069 38.0902 258.876 46.0503 255.48C50.5603 253.739 54.8913 251.567 58.9829 248.993C74.4324 238.761 81.2261 220.59 87.7946 203.115C89.8409 197.57 92.01 191.84 94.3837 186.601C103.183 167.08 115.808 142.095 135.31 122.082C142.308 114.94 149.347 109.006 156.141 103.276C168.418 92.9222 180.041 83.1614 189.7 67.6915C196.964 56.0686 206.377 49.6841 217.714 48.7224C240.632 46.6761 272.063 67.2822 308.589 108.065C344.42 148.131 362.611 191.328 362.611 236.49C362.611 282.122 344.011 325.811 310.267 359.492C277.077 392.622 232.283 411.652 187.49 411.714L187.326 411.734ZM220.926 49.6637C219.903 49.6637 218.9 49.7046 217.918 49.7864C206.95 50.7277 197.803 56.9485 190.744 68.2031C180.983 83.7958 169.319 93.6384 156.959 104.034C150.186 109.743 143.167 115.657 136.21 122.778C121.026 138.288 108.442 158.097 95.4273 186.99C93.0741 192.188 91.0278 197.651 88.8587 203.361C82.2287 221 75.3737 239.252 59.6377 249.77C55.4852 252.367 51.101 254.572 46.5414 256.359C38.7451 259.879 31.3784 262.928 26.7129 270.111C10.7518 295.137 42.8172 338.15 64.2828 359.615C97.1051 391.917 141.195 410.202 187.244 410.609H187.429C281.824 410.507 361.568 330.803 361.568 236.47C361.568 191.594 343.479 148.622 307.832 108.781C273.189 70.0242 243.21 49.6637 220.926 49.6637Z" fill="url(#paint6_linear_205_177)" stroke="url(#paint7_linear_205_177)" stroke-width="2" mask="url(#path-4-inside-4_205_177)"/>
<mask id="path-5-inside-5_205_177" fill="white">
<path d="M190.416 391.332H187.408C144.661 390.33 106.866 374.614 78.0952 345.843C77.7268 345.475 40.7708 308.233 43.9631 288.854C44.2535 286.939 45.0228 285.129 46.1998 283.591C47.3767 282.052 48.923 280.836 50.6954 280.055C83.6816 263.685 94.8338 243.897 113.291 211.013L114.212 209.376C123.85 192.249 135.862 172.543 151.884 155.907C173.821 133.213 183.541 121.12 191.296 91.7146C195.777 74.7918 203.246 65.1129 213.519 62.6573C230.973 58.667 256.307 75.8968 288.843 113.815C324.448 155.375 341.923 195.482 342.21 236.469C342.517 276.515 325.287 316.622 294.961 346.478C266.006 375.105 228.047 391.332 190.416 391.332ZM218.778 63.0256C217.113 63.0229 215.452 63.2013 213.826 63.5577C203.922 65.8291 196.678 75.3648 192.299 91.9193C184.482 121.488 174.721 133.725 152.642 156.541C136.701 173.055 124.73 192.74 115.133 209.745L114.212 211.382C95.6523 244.429 84.4387 264.381 51.2069 280.812C49.5794 281.552 48.1642 282.69 47.0914 284.12C46.0187 285.551 45.3229 287.228 45.0681 288.997C41.9577 307.905 78.5863 344.779 78.9546 345.148C107.603 373.796 145.132 389.368 187.613 390.35C225.919 391.23 264.84 375.003 294.49 345.843C324.632 316.172 341.739 276.27 341.453 236.51C341.146 195.769 323.773 155.845 288.249 114.469C258.926 80.2963 235.598 63.0256 218.778 63.0256Z"/>
</mask>
<path d="M190.416 391.332H187.408C144.661 390.33 106.866 374.614 78.0952 345.843C77.7268 345.475 40.7708 308.233 43.9631 288.854C44.2535 286.939 45.0228 285.129 46.1998 283.591C47.3767 282.052 48.923 280.836 50.6954 280.055C83.6816 263.685 94.8338 243.897 113.291 211.013L114.212 209.376C123.85 192.249 135.862 172.543 151.884 155.907C173.821 133.213 183.541 121.12 191.296 91.7146C195.777 74.7918 203.246 65.1129 213.519 62.6573C230.973 58.667 256.307 75.8968 288.843 113.815C324.448 155.375 341.923 195.482 342.21 236.469C342.517 276.515 325.287 316.622 294.961 346.478C266.006 375.105 228.047 391.332 190.416 391.332ZM218.778 63.0256C217.113 63.0229 215.452 63.2013 213.826 63.5577C203.922 65.8291 196.678 75.3648 192.299 91.9193C184.482 121.488 174.721 133.725 152.642 156.541C136.701 173.055 124.73 192.74 115.133 209.745L114.212 211.382C95.6523 244.429 84.4387 264.381 51.2069 280.812C49.5794 281.552 48.1642 282.69 47.0914 284.12C46.0187 285.551 45.3229 287.228 45.0681 288.997C41.9577 307.905 78.5863 344.779 78.9546 345.148C107.603 373.796 145.132 389.368 187.613 390.35C225.919 391.23 264.84 375.003 294.49 345.843C324.632 316.172 341.739 276.27 341.453 236.51C341.146 195.769 323.773 155.845 288.249 114.469C258.926 80.2963 235.598 63.0256 218.778 63.0256Z" stroke="url(#paint8_linear_205_177)" stroke-width="2" mask="url(#path-5-inside-5_205_177)"/>
<mask id="path-6-inside-6_205_177" fill="white">
<path d="M190.968 370.931C189.802 370.931 188.636 370.931 187.49 370.931C149.633 369.765 117.711 356.464 92.6441 331.417C87.774 326.547 63.5868 301.582 66.2879 288.691C66.6197 287.197 67.339 285.816 68.3736 284.688C69.4081 283.56 70.7213 282.725 72.1812 282.265C98.2919 272.034 117.875 249.668 133.57 229.062C139.709 221.102 146.625 213.551 153.378 206.266C160.131 198.981 167.088 191.451 173.022 183.614C188.308 163.478 190.191 144.141 192.544 119.647L192.953 115.554C193.178 113.221 193.342 110.602 193.506 107.819C194.427 92.3082 195.716 70.9858 212.802 71.3951C230.278 71.6202 253.851 100.268 265.249 113.958C266.067 114.92 266.804 115.82 267.479 116.639C303.719 160.04 321.419 199.084 321.563 235.978C321.706 271.747 306.379 307.251 279.491 333.402C254.854 357.364 222.768 370.931 190.968 370.931ZM212.434 72.1727C196.452 72.1727 195.286 91.9194 194.324 107.819C194.161 110.602 193.997 113.242 193.772 115.595L193.383 119.688C190.989 144.243 189.106 163.744 173.677 184.084C167.723 191.942 160.745 199.472 153.992 206.778C147.239 214.083 140.282 221.593 134.225 229.512C118.468 250.2 98.783 272.709 72.4882 282.982C71.1581 283.393 69.9593 284.146 69.0114 285.166C68.0634 286.186 67.3995 287.436 67.086 288.793C64.4872 301.275 88.4083 325.954 93.2376 330.762C118.141 355.666 149.879 368.885 187.51 370.051C220.251 371.054 253.544 357.487 278.918 332.809C305.642 306.8 320.887 271.522 320.744 235.999C320.601 199.288 302.962 160.409 266.845 117.15L264.614 114.469C253.339 100.841 229.827 72.4796 212.782 72.1727H212.434Z"/>
</mask>
<path d="M190.968 370.931C189.802 370.931 188.636 370.931 187.49 370.931C149.633 369.765 117.711 356.464 92.6441 331.417C87.774 326.547 63.5868 301.582 66.2879 288.691C66.6197 287.197 67.339 285.816 68.3736 284.688C69.4081 283.56 70.7213 282.725 72.1812 282.265C98.2919 272.034 117.875 249.668 133.57 229.062C139.709 221.102 146.625 213.551 153.378 206.266C160.131 198.981 167.088 191.451 173.022 183.614C188.308 163.478 190.191 144.141 192.544 119.647L192.953 115.554C193.178 113.221 193.342 110.602 193.506 107.819C194.427 92.3082 195.716 70.9858 212.802 71.3951C230.278 71.6202 253.851 100.268 265.249 113.958C266.067 114.92 266.804 115.82 267.479 116.639C303.719 160.04 321.419 199.084 321.563 235.978C321.706 271.747 306.379 307.251 279.491 333.402C254.854 357.364 222.768 370.931 190.968 370.931ZM212.434 72.1727C196.452 72.1727 195.286 91.9194 194.324 107.819C194.161 110.602 193.997 113.242 193.772 115.595L193.383 119.688C190.989 144.243 189.106 163.744 173.677 184.084C167.723 191.942 160.745 199.472 153.992 206.778C147.239 214.083 140.282 221.593 134.225 229.512C118.468 250.2 98.783 272.709 72.4882 282.982C71.1581 283.393 69.9593 284.146 69.0114 285.166C68.0634 286.186 67.3995 287.436 67.086 288.793C64.4872 301.275 88.4083 325.954 93.2376 330.762C118.141 355.666 149.879 368.885 187.51 370.051C220.251 371.054 253.544 357.487 278.918 332.809C305.642 306.8 320.887 271.522 320.744 235.999C320.601 199.288 302.962 160.409 266.845 117.15L264.614 114.469C253.339 100.841 229.827 72.4796 212.782 72.1727H212.434Z" stroke="url(#paint9_linear_205_177)" stroke-width="2" mask="url(#path-6-inside-6_205_177)"/>
<mask id="path-7-inside-7_205_177" fill="white">
<path d="M191.48 350.53C190.15 350.53 188.82 350.53 187.387 350.53C155.629 349.159 127.717 337.638 106.927 317.175L106.518 316.561C101.402 311.527 85.8299 296.098 87.8967 287.238C88.2858 285.903 89.0268 284.697 90.0421 283.746C91.0573 282.796 92.3094 282.136 93.6672 281.836C113.537 275.247 131.933 263.521 151.557 245.002C154.995 241.749 159.128 238.413 163.507 234.771C171.488 228.346 179.734 221.695 184.563 214.82C196.841 197.324 195.777 172.871 194.795 151.385C194.611 147.006 194.427 142.872 194.345 138.841C194.345 137.245 194.14 134.748 193.915 131.822C192.83 116.966 190.784 89.2798 201.691 84.7575C213.764 79.8259 236.928 108.147 244.663 117.498L245.973 119.094C268.482 146.064 295.779 187.379 298.276 230.985C299.141 247.12 296.626 263.257 290.893 278.363C285.16 293.47 276.334 307.212 264.983 318.71C244.52 339.296 218.614 350.53 191.48 350.53ZM204.74 84.8803C203.772 84.8627 202.811 85.0438 201.916 85.4123C191.5 89.6481 193.526 117.007 194.611 131.699C194.836 134.728 195 137.122 195.04 138.759C195.04 142.852 195.286 146.944 195.47 151.282C196.411 172.953 197.516 197.529 185.075 215.208C180.184 222.166 171.897 228.857 163.875 235.324C159.517 238.843 155.383 242.179 151.966 245.412C132.26 264.094 113.782 275.881 93.8309 282.491C92.5871 282.756 91.438 283.352 90.5051 284.217C89.5722 285.081 88.8901 286.182 88.531 287.402C86.4847 295.955 101.893 311.098 106.948 316.05L107.459 316.561C128.127 337.024 155.813 348.442 187.551 349.732C215.933 350.878 243.21 339.664 264.369 318.157C275.65 306.724 284.421 293.061 290.118 278.043C295.816 263.026 298.316 246.984 297.457 230.944C294.961 187.543 267.725 146.371 245.318 119.483L243.988 117.887C226.001 95.9507 212.925 84.8803 204.74 84.8803Z"/>
</mask>
<path d="M191.48 350.53C190.15 350.53 188.82 350.53 187.387 350.53C155.629 349.159 127.717 337.638 106.927 317.175L106.518 316.561C101.402 311.527 85.8299 296.098 87.8967 287.238C88.2858 285.903 89.0268 284.697 90.0421 283.746C91.0573 282.796 92.3094 282.136 93.6672 281.836C113.537 275.247 131.933 263.521 151.557 245.002C154.995 241.749 159.128 238.413 163.507 234.771C171.488 228.346 179.734 221.695 184.563 214.82C196.841 197.324 195.777 172.871 194.795 151.385C194.611 147.006 194.427 142.872 194.345 138.841C194.345 137.245 194.14 134.748 193.915 131.822C192.83 116.966 190.784 89.2798 201.691 84.7575C213.764 79.8259 236.928 108.147 244.663 117.498L245.973 119.094C268.482 146.064 295.779 187.379 298.276 230.985C299.141 247.12 296.626 263.257 290.893 278.363C285.16 293.47 276.334 307.212 264.983 318.71C244.52 339.296 218.614 350.53 191.48 350.53ZM204.74 84.8803C203.772 84.8627 202.811 85.0438 201.916 85.4123C191.5 89.6481 193.526 117.007 194.611 131.699C194.836 134.728 195 137.122 195.04 138.759C195.04 142.852 195.286 146.944 195.47 151.282C196.411 172.953 197.516 197.529 185.075 215.208C180.184 222.166 171.897 228.857 163.875 235.324C159.517 238.843 155.383 242.179 151.966 245.412C132.26 264.094 113.782 275.881 93.8309 282.491C92.5871 282.756 91.438 283.352 90.5051 284.217C89.5722 285.081 88.8901 286.182 88.531 287.402C86.4847 295.955 101.893 311.098 106.948 316.05L107.459 316.561C128.127 337.024 155.813 348.442 187.551 349.732C215.933 350.878 243.21 339.664 264.369 318.157C275.65 306.724 284.421 293.061 290.118 278.043C295.816 263.026 298.316 246.984 297.457 230.944C294.961 187.543 267.725 146.371 245.318 119.483L243.988 117.887C226.001 95.9507 212.925 84.8803 204.74 84.8803Z" fill="url(#paint10_linear_205_177)" stroke="url(#paint11_linear_205_177)" stroke-width="2" mask="url(#path-7-inside-7_205_177)"/>
<mask id="path-8-inside-8_205_177" fill="white">
<path d="M192.237 330.169C190.661 330.169 189.086 330.169 187.49 330.026C160.294 328.348 138.972 319.938 122.315 304.284L120.903 302.974C115.992 298.452 108.626 291.617 109.69 286.297C110.16 284.087 112.084 282.368 115.46 281.201C133.42 275.063 150.635 266.93 166.781 256.953C201.691 235.324 199.358 208.722 196.104 171.889C195.797 168.328 195.47 164.665 195.184 160.88C195.061 159.509 194.713 157.094 194.263 154.065C192.053 138.882 187.428 107.246 198.601 102.908C205.906 100.064 219.8 116.966 225.018 123.371L226.492 125.131C251.804 154.454 268.789 190.121 272.922 223.046C276.728 253.27 266.927 285.028 247.364 305.9C240.359 313.545 231.841 319.65 222.351 323.828C212.861 328.006 202.606 330.165 192.237 330.169V330.169ZM200.422 103.236C199.863 103.226 199.307 103.323 198.785 103.522C188.042 107.615 192.646 139.025 194.815 154.065C195.265 157.114 195.613 159.509 195.736 160.92C196.023 164.686 196.35 168.369 196.657 171.929C199.911 208.763 202.264 235.569 167.068 257.444C150.876 267.434 133.622 275.588 115.624 281.754C112.473 282.838 110.651 284.414 110.222 286.419C109.178 291.412 116.749 298.39 121.272 302.565L122.704 303.874C139.258 319.426 160.458 327.795 187.49 329.453C198.553 330.21 209.644 328.443 219.925 324.285C230.205 320.126 239.406 313.686 246.832 305.45C266.292 284.721 276.033 253.147 272.267 223.066C268.175 190.326 251.252 154.741 225.96 125.561L224.486 123.78C219.8 117.969 207.686 103.236 200.443 103.236H200.422Z"/>
</mask>
<path d="M192.237 330.169C190.661 330.169 189.086 330.169 187.49 330.026C160.294 328.348 138.972 319.938 122.315 304.284L120.903 302.974C115.992 298.452 108.626 291.617 109.69 286.297C110.16 284.087 112.084 282.368 115.46 281.201C133.42 275.063 150.635 266.93 166.781 256.953C201.691 235.324 199.358 208.722 196.104 171.889C195.797 168.328 195.47 164.665 195.184 160.88C195.061 159.509 194.713 157.094 194.263 154.065C192.053 138.882 187.428 107.246 198.601 102.908C205.906 100.064 219.8 116.966 225.018 123.371L226.492 125.131C251.804 154.454 268.789 190.121 272.922 223.046C276.728 253.27 266.927 285.028 247.364 305.9C240.359 313.545 231.841 319.65 222.351 323.828C212.861 328.006 202.606 330.165 192.237 330.169V330.169ZM200.422 103.236C199.863 103.226 199.307 103.323 198.785 103.522C188.042 107.615 192.646 139.025 194.815 154.065C195.265 157.114 195.613 159.509 195.736 160.92C196.023 164.686 196.35 168.369 196.657 171.929C199.911 208.763 202.264 235.569 167.068 257.444C150.876 267.434 133.622 275.588 115.624 281.754C112.473 282.838 110.651 284.414 110.222 286.419C109.178 291.412 116.749 298.39 121.272 302.565L122.704 303.874C139.258 319.426 160.458 327.795 187.49 329.453C198.553 330.21 209.644 328.443 219.925 324.285C230.205 320.126 239.406 313.686 246.832 305.45C266.292 284.721 276.033 253.147 272.267 223.066C268.175 190.326 251.252 154.741 225.96 125.561L224.486 123.78C219.8 117.969 207.686 103.236 200.443 103.236H200.422Z" fill="url(#paint12_linear_205_177)" stroke="url(#paint13_linear_205_177)" stroke-width="2" mask="url(#path-8-inside-8_205_177)"/>
<mask id="path-9-inside-9_205_177" fill="white">
<path d="M188.574 309.685H187.531C184.973 309.685 134.573 296.16 132.629 285.989C132.22 283.943 133.795 282.101 137.315 280.628C142.456 278.636 147.711 276.948 153.051 275.574C162.402 272.955 172.081 270.213 179.305 265.67C189.945 258.978 196.064 248.46 198.049 233.563C199.768 220.529 198.049 205.816 196.596 192.863C196.146 188.954 195.736 185.271 195.388 181.69C195.184 179.316 194.734 176.165 194.222 172.523C192.176 158.055 189.147 136.201 196.268 132.293C199.502 130.533 204.29 132.436 210.899 138.125C230.83 155.334 243.251 190.448 247.835 215.311C252.746 241.912 245.789 271.297 229.909 289.939C224.934 296.111 218.638 301.089 211.485 304.507C204.331 307.924 196.502 309.694 188.574 309.685V309.685ZM198.806 132.088C197.992 132.079 197.19 132.276 196.473 132.661C189.577 136.426 192.606 158.096 194.611 172.441C195.122 176.083 195.552 179.234 195.777 181.629C196.105 185.21 196.534 188.893 196.985 192.781C198.458 205.775 200.156 220.508 198.417 233.707C196.371 248.747 190.232 259.367 179.489 266.14C172.204 270.724 162.505 273.446 153.112 276.085C147.789 277.463 142.548 279.143 137.417 281.119C134.123 282.511 132.649 284.148 132.997 285.989C133.795 290.082 143.106 295.382 159.926 301.316C168.924 304.577 178.125 307.249 187.469 309.317H188.513C196.382 309.326 204.154 307.57 211.254 304.177C218.355 300.784 224.604 295.842 229.541 289.714C245.277 271.174 252.275 242.015 247.364 215.454C242.801 190.673 230.421 155.641 210.531 138.534C205.743 134.216 201.793 132.088 198.867 132.088H198.806Z"/>
</mask>
<path d="M188.574 309.685H187.531C184.973 309.685 134.573 296.16 132.629 285.989C132.22 283.943 133.795 282.101 137.315 280.628C142.456 278.636 147.711 276.948 153.051 275.574C162.402 272.955 172.081 270.213 179.305 265.67C189.945 258.978 196.064 248.46 198.049 233.563C199.768 220.529 198.049 205.816 196.596 192.863C196.146 188.954 195.736 185.271 195.388 181.69C195.184 179.316 194.734 176.165 194.222 172.523C192.176 158.055 189.147 136.201 196.268 132.293C199.502 130.533 204.29 132.436 210.899 138.125C230.83 155.334 243.251 190.448 247.835 215.311C252.746 241.912 245.789 271.297 229.909 289.939C224.934 296.111 218.638 301.089 211.485 304.507C204.331 307.924 196.502 309.694 188.574 309.685V309.685ZM198.806 132.088C197.992 132.079 197.19 132.276 196.473 132.661C189.577 136.426 192.606 158.096 194.611 172.441C195.122 176.083 195.552 179.234 195.777 181.629C196.105 185.21 196.534 188.893 196.985 192.781C198.458 205.775 200.156 220.508 198.417 233.707C196.371 248.747 190.232 259.367 179.489 266.14C172.204 270.724 162.505 273.446 153.112 276.085C147.789 277.463 142.548 279.143 137.417 281.119C134.123 282.511 132.649 284.148 132.997 285.989C133.795 290.082 143.106 295.382 159.926 301.316C168.924 304.577 178.125 307.249 187.469 309.317H188.513C196.382 309.326 204.154 307.57 211.254 304.177C218.355 300.784 224.604 295.842 229.541 289.714C245.277 271.174 252.275 242.015 247.364 215.454C242.801 190.673 230.421 155.641 210.531 138.534C205.743 134.216 201.793 132.088 198.867 132.088H198.806Z" fill="url(#paint14_linear_205_177)" stroke="url(#paint15_linear_205_177)" stroke-width="2" mask="url(#path-9-inside-9_205_177)"/>
<mask id="path-10-inside-10_205_177" fill="white">
<path d="M173.452 292.128C165.963 292.128 159.006 290.287 153.665 284.271L153.562 284.127H153.685C154.217 283.718 154.79 283.227 155.322 282.756C156.297 281.843 157.375 281.046 158.535 280.383C185.137 268.248 196.637 242.977 194.877 200.864C194.877 199.902 194.652 198.163 194.386 195.973C193.199 186.049 191.03 167.591 196.637 163.008C197.383 162.446 198.264 162.092 199.191 161.98C200.118 161.869 201.058 162.004 201.916 162.373C214.644 166.466 221.029 194.541 224.098 207.965C224.364 209.11 224.589 210.011 224.794 210.973C227.044 221.17 227.37 231.698 225.756 242.015C224.309 252.572 220.633 262.7 214.972 271.727C208.158 282.102 198.888 288.609 188.165 290.512C183.317 291.478 178.394 292.019 173.452 292.128V292.128ZM154.033 284.168C162.628 293.786 175.56 292.354 188.083 290.184C198.704 288.302 207.912 281.856 214.685 271.543C225.142 255.623 229.173 230.617 224.487 210.952C224.282 210.093 224.057 209.07 223.791 207.944C220.742 194.561 214.378 166.711 201.814 162.578C201.009 162.225 200.124 162.092 199.25 162.193C198.377 162.294 197.546 162.624 196.842 163.151C191.357 167.632 193.629 186.683 194.795 195.891C195.061 198.101 195.266 199.841 195.307 200.803C196.125 220.672 193.997 236.51 188.8 249.259C186.108 256.209 182.071 262.56 176.92 267.947C171.768 273.333 165.604 277.65 158.781 280.649C157.644 281.284 156.592 282.061 155.65 282.961C155.036 283.329 154.524 283.78 154.033 284.168Z"/>
</mask>
<path d="M173.452 292.128C165.963 292.128 159.006 290.287 153.665 284.271L153.562 284.127H153.685C154.217 283.718 154.79 283.227 155.322 282.756C156.297 281.843 157.375 281.046 158.535 280.383C185.137 268.248 196.637 242.977 194.877 200.864C194.877 199.902 194.652 198.163 194.386 195.973C193.199 186.049 191.03 167.591 196.637 163.008C197.383 162.446 198.264 162.092 199.191 161.98C200.118 161.869 201.058 162.004 201.916 162.373C214.644 166.466 221.029 194.541 224.098 207.965C224.364 209.11 224.589 210.011 224.794 210.973C227.044 221.17 227.37 231.698 225.756 242.015C224.309 252.572 220.633 262.7 214.972 271.727C208.158 282.102 198.888 288.609 188.165 290.512C183.317 291.478 178.394 292.019 173.452 292.128V292.128ZM154.033 284.168C162.628 293.786 175.56 292.354 188.083 290.184C198.704 288.302 207.912 281.856 214.685 271.543C225.142 255.623 229.173 230.617 224.487 210.952C224.282 210.093 224.057 209.07 223.791 207.944C220.742 194.561 214.378 166.711 201.814 162.578C201.009 162.225 200.124 162.092 199.25 162.193C198.377 162.294 197.546 162.624 196.842 163.151C191.357 167.632 193.629 186.683 194.795 195.891C195.061 198.101 195.266 199.841 195.307 200.803C196.125 220.672 193.997 236.51 188.8 249.259C186.108 256.209 182.071 262.56 176.92 267.947C171.768 273.333 165.604 277.65 158.781 280.649C157.644 281.284 156.592 282.061 155.65 282.961C155.036 283.329 154.524 283.78 154.033 284.168Z" fill="url(#paint16_linear_205_177)" stroke="url(#paint17_linear_205_177)" stroke-width="2" mask="url(#path-10-inside-10_205_177)"/>
<mask id="path-11-inside-11_205_177" fill="white">
<path d="M175.314 279.626C174.98 279.641 174.647 279.592 174.332 279.482C174.179 279.432 174.042 279.34 173.938 279.218C173.833 279.095 173.764 278.946 173.738 278.787C173.738 278.009 174.536 276.863 176.255 275.533C195.286 260.943 194.529 228.305 193.833 218.646C193.321 211.32 193.301 201.948 197.925 194.5V194.377V194.479C202.857 199.37 205.742 206.246 206.786 215.474C207.922 225.746 207.229 236.138 204.74 246.169C201.793 257.689 196.37 266.795 189.085 272.504C183.131 277.375 177.872 279.626 175.314 279.626ZM198.028 194.704C193.505 202.092 193.526 211.361 193.935 218.626C194.683 228.651 193.994 238.732 191.889 248.563C189.024 260.841 183.704 269.988 176.358 275.697C174.72 276.965 173.82 278.07 173.922 278.766C173.942 278.887 173.994 279.001 174.074 279.095C174.153 279.188 174.256 279.259 174.373 279.298C175.989 279.953 181.657 278.255 189.147 272.382C205.517 259.633 208.771 233.789 206.724 215.495C205.701 206.368 202.857 199.554 198.028 194.704Z"/>
</mask>
<path d="M175.314 279.626C174.98 279.641 174.647 279.592 174.332 279.482C174.179 279.432 174.042 279.34 173.938 279.218C173.833 279.095 173.764 278.946 173.738 278.787C173.738 278.009 174.536 276.863 176.255 275.533C195.286 260.943 194.529 228.305 193.833 218.646C193.321 211.32 193.301 201.948 197.925 194.5V194.377V194.479C202.857 199.37 205.742 206.246 206.786 215.474C207.922 225.746 207.229 236.138 204.74 246.169C201.793 257.689 196.37 266.795 189.085 272.504C183.131 277.375 177.872 279.626 175.314 279.626ZM198.028 194.704C193.505 202.092 193.526 211.361 193.935 218.626C194.683 228.651 193.994 238.732 191.889 248.563C189.024 260.841 183.704 269.988 176.358 275.697C174.72 276.965 173.82 278.07 173.922 278.766C173.942 278.887 173.994 279.001 174.074 279.095C174.153 279.188 174.256 279.259 174.373 279.298C175.989 279.953 181.657 278.255 189.147 272.382C205.517 259.633 208.771 233.789 206.724 215.495C205.701 206.368 202.857 199.554 198.028 194.704Z" stroke="url(#paint18_linear_205_177)" stroke-width="2" mask="url(#path-11-inside-11_205_177)"/>
<mask id="path-12-inside-12_205_177" fill="white">
<path d="M186.754 260.656C186.447 260.534 186.549 259.736 187.02 258.303C188.206 254.62 190.805 244.757 192.524 235.794C193.445 231.067 194.407 228.386 195.205 228.386C195.962 228.386 196.207 230.822 196.289 232.806C196.351 236.735 195.869 240.653 194.857 244.45C193.969 248.24 192.593 251.9 190.764 255.336C188.82 258.651 187.326 260.656 186.754 260.656ZM195.123 228.448C194.386 228.448 193.404 231.19 192.524 235.794C190.785 244.736 188.206 254.62 186.999 258.303C186.385 260.206 186.569 260.534 186.692 260.575C187.142 260.575 188.493 258.979 190.58 255.275C194.196 248.322 196.091 240.603 196.105 232.766C195.982 230.044 195.614 228.448 195.082 228.407L195.123 228.448Z"/>
</mask>
<path d="M186.754 260.656C186.447 260.534 186.549 259.736 187.02 258.303C188.206 254.62 190.805 244.757 192.524 235.794C193.445 231.067 194.407 228.386 195.205 228.386C195.962 228.386 196.207 230.822 196.289 232.806C196.351 236.735 195.869 240.653 194.857 244.45C193.969 248.24 192.593 251.9 190.764 255.336C188.82 258.651 187.326 260.656 186.754 260.656ZM195.123 228.448C194.386 228.448 193.404 231.19 192.524 235.794C190.785 244.736 188.206 254.62 186.999 258.303C186.385 260.206 186.569 260.534 186.692 260.575C187.142 260.575 188.493 258.979 190.58 255.275C194.196 248.322 196.091 240.603 196.105 232.766C195.982 230.044 195.614 228.448 195.082 228.407L195.123 228.448Z" stroke="url(#paint19_linear_205_177)" stroke-width="2" mask="url(#path-12-inside-12_205_177)"/>
<defs>
<linearGradient id="paint0_linear_205_177" x1="-49" y1="236.51" x2="424" y2="236.51" gradientUnits="userSpaceOnUse">
<stop stop-color="#EEFF01"/>
<stop offset="0.5" stop-color="#FF80E6"/>
<stop offset="1" stop-color="#EA27C3"/>
</linearGradient>
<linearGradient id="paint1_linear_205_177" x1="13.1434" y1="129.258" x2="407.31" y2="414.408" gradientUnits="userSpaceOnUse">
<stop stop-color="#EEFF01"/>
<stop offset="0.494792" stop-color="#EA27C3"/>
<stop offset="1" stop-color="#9E03A3"/>
</linearGradient>
<linearGradient id="paint2_linear_205_177" x1="4701.29" y1="49981.8" x2="95118.8" y2="49981.8" gradientUnits="userSpaceOnUse">
<stop stop-color="#EEFF01"/>
<stop offset="0.494792" stop-color="#FF80E6"/>
<stop offset="1" stop-color="#EA27C3"/>
</linearGradient>
<linearGradient id="paint3_linear_205_177" x1="13.1435" y1="127.483" x2="389.2" y2="412.277" gradientUnits="userSpaceOnUse">
<stop stop-color="#EEFF01"/>
<stop offset="0.552083" stop-color="#EA27C3"/>
<stop offset="1" stop-color="#9E03A3"/>
</linearGradient>
<linearGradient id="paint4_linear_205_177" x1="8684.7" y1="45371.4" x2="81541.4" y2="45371.4" gradientUnits="userSpaceOnUse">
<stop stop-color="#EEFF01"/>
<stop offset="0.5" stop-color="#FF80E6"/>
<stop offset="1" stop-color="#EA27C3"/>
</linearGradient>
<linearGradient id="paint5_linear_205_177" x1="17.4053" y1="123.221" x2="382.808" y2="374.636" gradientUnits="userSpaceOnUse">
<stop stop-color="#EEFF01"/>
<stop offset="0.494792" stop-color="#EA27C3"/>
<stop offset="1" stop-color="#9E03A3"/>
</linearGradient>
<linearGradient id="paint6_linear_205_177" x1="11744.9" y1="40895.8" x2="68714.6" y2="40895.8" gradientUnits="userSpaceOnUse">
<stop stop-color="#EEFF01"/>
<stop offset="0.494792" stop-color="#FF80E6"/>
<stop offset="1" stop-color="#EA27C3"/>
</linearGradient>
<linearGradient id="paint7_linear_205_177" x1="21.3109" y1="122.511" x2="387.069" y2="398.428" gradientUnits="userSpaceOnUse">
<stop stop-color="#EEFF01"/>
<stop offset="0.536458" stop-color="#EA27C3"/>
<stop offset="1" stop-color="#9E03A3"/>
</linearGradient>
<linearGradient id="paint8_linear_205_177" x1="21.6661" y1="113.634" x2="393.461" y2="364.693" gradientUnits="userSpaceOnUse">
<stop stop-color="#EEFF01"/>
<stop offset="0.520833" stop-color="#EA27C3"/>
<stop offset="1" stop-color="#9E03A3"/>
</linearGradient>
<linearGradient id="paint9_linear_205_177" x1="13.1432" y1="129.968" x2="390.975" y2="393.101" gradientUnits="userSpaceOnUse">
<stop stop-color="#EEFF01"/>
<stop offset="0.505208" stop-color="#FF80E6"/>
<stop offset="1" stop-color="#EA27C3"/>
</linearGradient>
<linearGradient id="paint10_linear_205_177" x1="14156.3" y1="28375.3" x2="35853.3" y2="28375.3" gradientUnits="userSpaceOnUse">
<stop stop-color="#EEFF01"/>
<stop offset="0.510417" stop-color="#FF80E6"/>
<stop offset="1" stop-color="#EA27C3"/>
</linearGradient>
<linearGradient id="paint11_linear_205_177" x1="27.3474" y1="112.924" x2="362.567" y2="394.877" gradientUnits="userSpaceOnUse">
<stop stop-color="#EEFF01"/>
<stop offset="0.515625" stop-color="#FF80E6"/>
<stop offset="1" stop-color="#EA27C3"/>
</linearGradient>
<linearGradient id="paint12_linear_205_177" x1="12829.2" y1="24171.5" x2="25998.6" y2="24171.5" gradientUnits="userSpaceOnUse">
<stop stop-color="#EEFF01"/>
<stop offset="0.510417" stop-color="#FF80E6"/>
<stop offset="1" stop-color="#EA27C3"/>
</linearGradient>
<linearGradient id="paint13_linear_205_177" x1="4.26572" y1="128.193" x2="377.126" y2="376.057" gradientUnits="userSpaceOnUse">
<stop stop-color="#EEFF01"/>
<stop offset="0.536458" stop-color="#FF80E6"/>
<stop offset="1" stop-color="#EA27C3"/>
</linearGradient>
<linearGradient id="paint14_linear_205_177" x1="10498.1" y1="19328.1" x2="17169.7" y2="19328.1" gradientUnits="userSpaceOnUse">
<stop stop-color="#EEFF01"/>
<stop offset="0.526042" stop-color="#FF80E6"/>
<stop offset="1" stop-color="#EA27C3"/>
</linearGradient>
<linearGradient id="paint15_linear_205_177" x1="19.1803" y1="131.389" x2="399.853" y2="340.901" gradientUnits="userSpaceOnUse">
<stop stop-color="#EEFF01"/>
<stop offset="0.53125" stop-color="#FF80E6"/>
<stop offset="1" stop-color="#EA27C3"/>
</linearGradient>
<linearGradient id="paint16_linear_205_177" x1="7399.77" y1="14603.5" x2="10017.5" y2="14603.5" gradientUnits="userSpaceOnUse">
<stop stop-color="#EEFF01"/>
<stop offset="0.479167" stop-color="#FF80E6"/>
<stop offset="1" stop-color="#EA27C3"/>
</linearGradient>
<linearGradient id="paint17_linear_205_177" x1="24.1518" y1="115.764" x2="379.612" y2="378.542" gradientUnits="userSpaceOnUse">
<stop stop-color="#EEFF01"/>
<stop offset="0.536458" stop-color="#FF80E6"/>
<stop offset="1" stop-color="#EA27C3"/>
</linearGradient>
<linearGradient id="paint18_linear_205_177" x1="24.8612" y1="114.344" x2="400.207" y2="347.648" gradientUnits="userSpaceOnUse">
<stop stop-color="#EEFF01"/>
<stop offset="0.515625" stop-color="#FF80E6"/>
<stop offset="1" stop-color="#EA27C3"/>
</linearGradient>
<linearGradient id="paint19_linear_205_177" x1="37.6459" y1="104.756" x2="372.865" y2="383.514" gradientUnits="userSpaceOnUse">
<stop stop-color="#EEFF01"/>
<stop offset="0.515625" stop-color="#FF80E6"/>
<stop offset="1" stop-color="#EA27C3"/>
</linearGradient>
</defs>
</svg>
